<svg width="101" height="60" viewBox="0 0 101 60" fill="none" xmlns="http://www.w3.org/2000/svg">
<path d="M57.5986 42.2024C57.3565 42.2024 57.1144 42.2024 56.7512 42.2024V48.75C57.1144 48.75 57.4776 48.75 57.8408 48.75C67.1625 48.75 72.7313 42.9167 74.4262 37.2024H66.4361C65.1044 40.5357 61.8358 42.2024 57.5986 42.2024Z" fill="black" style="fill:black;fill-opacity:1;"/>
<path d="M75.6368 42.2024C75.3947 42.2024 75.1525 42.2024 74.9104 42.2024V48.75C75.2736 48.75 75.6368 48.75 76 48.75C85.3217 48.75 90.8905 42.9167 92.5854 37.2024H84.5953C83.1426 40.5357 79.995 42.2024 75.6368 42.2024Z" fill="black" style="fill:black;fill-opacity:1;"/>
<path d="M75.5157 11.25C75.2736 11.25 75.1525 11.25 74.9104 11.25V17.4405C75.1525 17.4405 75.2736 17.4405 75.5157 17.4405C80.2371 17.4405 84.5953 20.8929 84.8374 26.4881H74.6683C73.0945 17.4405 66.6782 11.25 57.3565 11.25C57.1144 11.25 56.9933 11.25 56.7512 11.25V17.4405C56.9933 17.4405 57.1144 17.4405 57.3565 17.4405C62.0779 17.4405 66.4361 20.8929 66.6782 26.4881H56.5091C55.0564 16.0119 46.9452 11.25 38.8341 11.25C38.7131 11.25 38.592 11.25 38.592 11.25V17.6786C38.7131 17.6786 38.8341 17.6786 38.8341 17.6786C44.0398 17.6786 48.519 21.7262 48.519 30.0595C48.519 38.3929 44.0398 42.3214 38.8341 42.3214C38.7131 42.3214 38.592 42.3214 38.592 42.3214V48.75C38.7131 48.75 38.8341 48.75 38.8341 48.75C47.1874 48.75 55.6617 43.631 56.7512 32.2024H92.9485C93.6749 20.2976 86.6534 11.25 75.5157 11.25Z" fill="black" style="fill:black;fill-opacity:1;"/>
<path d="M38.9552 30.0595C38.9552 28.631 38.8341 27.3214 38.592 26.0119C36.8972 15.8929 28.9071 11.25 20.9171 11.25C12.0796 11.25 3 17.0833 3 30.0595C3 43.0357 12.0796 48.75 20.9171 48.75C28.7861 48.75 36.8972 44.2262 38.592 34.1071C38.8341 32.7976 38.9552 31.4881 38.9552 30.0595ZM20.9171 42.3214C15.7114 42.3214 11.2322 38.3929 11.2322 30.0595C11.2322 21.8452 15.7114 17.6786 20.9171 17.6786C26.1227 17.6786 30.602 21.7262 30.602 30.0595C30.602 38.3929 26.1227 42.3214 20.9171 42.3214Z" fill="black" style="fill:black;fill-opacity:1;"/>
<path d="M96.6849 11C98.7298 11 100.39 12.6602 100.39 14.7051C100.39 16.7703 98.7298 18.4305 96.6849 18.4305C94.6602 18.4305 93 16.7703 93 14.7051C93 12.6602 94.6602 11 96.6849 11ZM96.6849 11.5467C94.9639 11.5467 93.5467 12.9842 93.5467 14.7254C93.5467 16.4463 94.9639 17.8838 96.6849 17.8838C98.4261 17.8838 99.8433 16.4463 99.8433 14.7254C99.8433 12.9842 98.4261 11.5467 96.6849 11.5467ZM95.2676 12.8222H96.6646C97.8187 12.8222 98.3653 13.1866 98.3653 13.9155C98.3653 14.3407 98.1426 14.6444 97.677 14.8064C98.1426 15.0291 98.3046 15.353 98.3046 15.9807C98.3046 16.3046 98.3248 16.3451 98.4261 16.5476H97.7579C97.6365 16.2034 97.7175 16.0616 97.6567 15.8389C97.5352 15.0493 97.2315 15.0696 96.4622 15.0696H95.8953V16.5476H95.2676V12.8222ZM95.8953 14.5432H96.6241C97.3935 14.5432 97.7377 14.3609 97.7377 13.9155C97.7377 13.3081 97.0291 13.3486 96.6039 13.3486H95.8953V14.5432Z" fill="black" style="fill:black;fill-opacity:1;"/>
</svg>
