<svg width="80" height="80" viewBox="0 0 80 80" fill="none" xmlns="http://www.w3.org/2000/svg">
<path d="M35.4365 5.6748C38.4148 4.77568 41.5921 4.77562 44.5703 5.6748C48.2554 6.78739 50.8293 9.49849 52.9512 12.3936C55.0432 15.248 57.301 19.1597 60.0137 23.8584L63.9893 30.7432C66.7023 35.442 68.9607 39.3536 70.3867 42.5928C71.833 45.8779 72.8937 49.4623 72.0146 53.21C71.3042 56.2387 69.7159 58.9905 67.4482 61.1201C64.6423 63.7551 61.0074 64.6285 57.4395 65.0186C53.9214 65.4031 49.4042 65.4035 43.9785 65.4033H36.0283C30.6025 65.4035 26.0856 65.4031 22.5674 65.0186C18.9993 64.6285 15.3646 63.7551 12.5586 61.1201C10.2908 58.9904 8.70162 56.2388 7.99121 53.21C7.11224 49.4623 8.17386 45.8779 9.62012 42.5928C11.0461 39.3537 13.3046 35.4419 16.0176 30.7432L19.9922 23.8584C22.7049 19.1595 24.9635 15.248 27.0557 12.3936C29.1775 9.49848 31.7515 6.78739 35.4365 5.6748ZM57.3271 30C49.6292 16.6667 30.3836 16.6667 22.6855 30C14.9876 43.3332 24.6101 59.9997 40.0059 60C55.4018 60 65.0251 43.3333 57.3271 30Z" fill="black" style="fill:black;fill-opacity:1;"/>
<path d="M60.9114 5C62.9563 5 64.6166 6.66022 64.6166 8.70512C64.6166 10.7703 62.9563 12.4305 60.9114 12.4305C58.8868 12.4305 57.2266 10.7703 57.2266 8.70512C57.2266 6.66022 58.8868 5 60.9114 5ZM60.9114 5.54666C59.1905 5.54666 57.7732 6.98417 57.7732 8.72537C57.7732 10.4463 59.1905 11.8838 60.9114 11.8838C62.6526 11.8838 64.0699 10.4463 64.0699 8.72537C64.0699 6.98417 62.6526 5.54666 60.9114 5.54666ZM59.4942 6.82219H60.8912C62.0452 6.82219 62.5919 7.18663 62.5919 7.91551C62.5919 8.34069 62.3692 8.64438 61.9035 8.80636C62.3692 9.02907 62.5312 9.35301 62.5312 9.98066C62.5312 10.3046 62.5514 10.3451 62.6526 10.5476H61.9845C61.863 10.2034 61.944 10.0616 61.8833 9.83893C61.7618 9.04932 61.4581 9.06956 60.6887 9.06956H60.1218V10.5476H59.4942V6.82219ZM60.1218 8.54315H60.8507C61.6201 8.54315 61.9643 8.36093 61.9643 7.91551C61.9643 7.30811 61.2556 7.3486 60.8305 7.3486H60.1218V8.54315Z" fill="black" style="fill:black;fill-opacity:1;"/>
</svg>
