<svg width="184" height="60" viewBox="0 0 184 60" fill="none" xmlns="http://www.w3.org/2000/svg">
<path d="M0.00195312 46L58.0008 30.0003L0.00195312 14L66.6672 27.0004L92.0001 28.5004L117.333 27.0004L183.998 14L125.999 30.0003L183.998 46L117.333 33.0003L92.0001 31.5003L66.6672 33.0003L0.00195312 46Z" fill="black" style="fill:black;fill-opacity:1;"/>
<path d="M118.779 15.0586C120.866 15.0586 122.561 16.7532 122.561 18.8405C122.561 20.9485 120.866 22.6431 118.779 22.6431C116.712 22.6431 115.018 20.9485 115.018 18.8405C115.018 16.7532 116.712 15.0586 118.779 15.0586ZM118.779 15.6166C117.022 15.6166 115.576 17.0839 115.576 18.8612C115.576 20.6178 117.022 22.0851 118.779 22.0851C120.556 22.0851 122.003 20.6178 122.003 18.8612C122.003 17.0839 120.556 15.6166 118.779 15.6166ZM117.332 16.9186H118.758C119.936 16.9186 120.494 17.2905 120.494 18.0345C120.494 18.4685 120.267 18.7785 119.791 18.9438C120.267 19.1712 120.432 19.5018 120.432 20.1425C120.432 20.4731 120.453 20.5145 120.556 20.7211H119.874C119.75 20.3698 119.833 20.2252 119.771 19.9978C119.647 19.1918 119.337 19.2125 118.552 19.2125H117.973V20.7211H117.332V16.9186ZM117.973 18.6752H118.717C119.502 18.6752 119.853 18.4892 119.853 18.0345C119.853 17.4145 119.13 17.4559 118.696 17.4559H117.973V18.6752Z" fill="black" style="fill:black;fill-opacity:1;"/>
</svg>
