<svg width="60" height="60" viewBox="0 0 60 60" fill="none" xmlns="http://www.w3.org/2000/svg">
<path d="M58.4683 16.7758C58.4683 23.0032 53.4199 28.0515 47.1925 28.0515C40.9651 28.0515 35.9168 23.0032 35.9168 16.7758C35.9168 10.5483 40.9651 5.5 47.1925 5.5C53.4199 5.5 58.4683 10.5483 58.4683 16.7758Z" fill="black" style="fill:black;fill-opacity:1;"/>
<path d="M24.7282 55.9875C19.3351 52.8737 17.4873 45.9776 20.601 40.5845C23.7147 35.1914 30.6109 33.3435 36.004 36.4573C41.3971 39.571 43.2449 46.4671 40.1312 51.8602C37.0175 57.2534 30.1213 59.1012 24.7282 55.9875Z" fill="black" style="fill:black;fill-opacity:1;"/>
<path d="M7.63976 7.16258C13.0329 4.04886 19.929 5.89668 23.0427 11.2898C26.1565 16.6829 24.3086 23.5791 18.9155 26.6928C13.5224 29.8065 6.62626 27.9587 3.51255 22.5656C0.398833 17.1724 2.24665 10.2763 7.63976 7.16258Z" fill="black" style="fill:black;fill-opacity:1;"/>
<path d="M46.9505 32.8008C48.9954 32.8008 50.6556 34.461 50.6556 36.5059C50.6556 38.5711 48.9954 40.2313 46.9505 40.2313C44.9258 40.2313 43.2656 38.5711 43.2656 36.5059C43.2656 34.461 44.9258 32.8008 46.9505 32.8008ZM46.9505 33.3474C45.2295 33.3474 43.8123 34.7849 43.8123 36.5262C43.8123 38.2471 45.2295 39.6846 46.9505 39.6846C48.6917 39.6846 50.109 38.2471 50.109 36.5262C50.109 34.7849 48.6917 33.3474 46.9505 33.3474ZM45.5332 34.623H46.9303C48.0843 34.623 48.631 34.9874 48.631 35.7163C48.631 36.1415 48.4083 36.4452 47.9426 36.6071C48.4083 36.8298 48.5702 37.1538 48.5702 37.7814C48.5702 38.1054 48.5905 38.1459 48.6917 38.3483H48.0236C47.9021 38.0042 47.9831 37.8624 47.9223 37.6397C47.8009 36.8501 47.4972 36.8703 46.7278 36.8703H46.1609V38.3483H45.5332V34.623ZM46.1609 36.3439H46.8898C47.6591 36.3439 48.0033 36.1617 48.0033 35.7163C48.0033 35.1089 47.2947 35.1494 46.8695 35.1494H46.1609V36.3439Z" fill="black" style="fill:black;fill-opacity:1;"/>
</svg>
