<svg width="60" height="60" viewBox="0 0 60 60" fill="none" xmlns="http://www.w3.org/2000/svg">
<rect x="1.0275" y="1.0275" width="57.945" height="57.945" rx="28.9725" fill="black" style="fill:black;fill-opacity:1;"/>
<rect x="1.0275" y="1.0275" width="57.945" height="57.945" rx="28.9725" stroke="black" style="stroke:black;stroke-opacity:1;" stroke-width="2.055"/>
<path d="M38.1431 39.5458H35.3976L29.9858 55.8749L24.5213 39.5458H21.9078L28.6131 58.2979H31.4642L38.1431 39.5458Z" fill="white" style="fill:white;fill-opacity:1;"/>
<path d="M34.2801 18.1679L35.6529 20.54L52.5332 17.0513L41.091 29.9372L42.3978 32.1953L55.3229 17.0258L53.8974 14.5625L34.2801 18.1679Z" fill="white" style="fill:white;fill-opacity:1;"/>
<path d="M17.6532 32.1923L19.0259 29.8202L7.55732 16.9799L24.4641 20.423L25.7708 18.165L6.14038 14.5823L4.71484 17.0457L17.6532 32.1923Z" fill="white" style="fill:white;fill-opacity:1;"/>
<path d="M44.997 36.7214C45.5288 36.2046 46.1804 35.9462 46.9519 35.9462C47.7233 35.9462 48.3749 36.2046 48.9067 36.7214C49.4309 37.2382 49.6931 37.8673 49.6931 38.6088C49.6931 39.3503 49.4309 39.9794 48.9067 40.4962C48.3749 41.013 47.7233 41.2714 46.9519 41.2714C46.1804 41.2714 45.5288 41.013 44.997 40.4962C44.4653 39.9794 44.1994 39.3503 44.1994 38.6088C44.1994 37.8673 44.4653 37.2382 44.997 36.7214ZM46.9519 40.7434C47.5735 40.7434 48.0903 40.5374 48.5022 40.1255C48.9216 39.7061 49.1314 39.2005 49.1314 38.6088C49.1314 38.0096 48.9216 37.5003 48.5022 37.0809C48.0903 36.669 47.5735 36.463 46.9519 36.463C46.3227 36.463 45.8022 36.669 45.3902 37.0809C44.9708 37.5003 44.7611 38.0096 44.7611 38.6088C44.7611 39.2005 44.9708 39.7061 45.3902 40.1255C45.8022 40.5374 46.3227 40.7434 46.9519 40.7434ZM48.0191 39.1481L48.0528 39.5638C48.0603 39.7285 48.1053 39.8746 48.1877 40.0019H47.6821C47.6147 39.912 47.5772 39.766 47.5698 39.5638L47.5473 39.2717C47.5323 39.1144 47.4949 39.0058 47.4349 38.9459C47.3825 38.8859 47.2889 38.856 47.1541 38.856H46.3789V40.0019H45.8846V37.1483H47.0979C47.4125 37.1483 47.6559 37.2195 47.8281 37.3618C48.0079 37.4966 48.0978 37.6913 48.0978 37.946C48.0978 38.2755 47.9592 38.5002 47.6821 38.6201C47.8843 38.695 47.9967 38.871 48.0191 39.1481ZM46.3789 38.4066H47.1428C47.4424 38.4066 47.5922 38.2718 47.5922 38.0022C47.5922 37.7325 47.4274 37.5977 47.0979 37.5977H46.3789V38.4066Z" fill="white" style="fill:white;fill-opacity:1;"/>
</svg>
