<svg width="18" height="28" viewBox="0 0 18 28" fill="none" xmlns="http://www.w3.org/2000/svg">
<path d="M0 28V0H17.5V28L8.75 22.96L0 28Z" fill="#AD9058" style="fill:#AD9058;fill:color(display-p3 0.6784 0.5647 0.3451);fill-opacity:1;"/>
<path d="M7.38359 19.1436C6.88867 19.1436 6.46211 19.052 6.10391 18.8688C5.7457 18.6855 5.46953 18.4313 5.27539 18.1059C5.08125 17.7777 4.98418 17.3963 4.98418 16.9615V13.0814H5.90703V16.8918C5.90703 17.1762 5.96445 17.4264 6.0793 17.6424C6.19687 17.8584 6.36504 18.0266 6.58379 18.1469C6.80527 18.2672 7.07187 18.3273 7.38359 18.3273C7.69805 18.3273 7.96465 18.2672 8.1834 18.1469C8.40215 18.0266 8.56894 17.8584 8.68379 17.6424C8.79863 17.4264 8.85605 17.1762 8.85605 16.8918V13.0814H9.77891V16.9615C9.77891 17.3963 9.68184 17.7777 9.48769 18.1059C9.29629 18.4313 9.02148 18.6855 8.66328 18.8688C8.30781 19.052 7.88125 19.1436 7.38359 19.1436ZM11.2596 19V13.0814H12.1783V19H11.2596Z" fill="white" style="fill:white;fill-opacity:1;"/>
</svg>
