<svg width="18" height="28" viewBox="0 0 18 28" fill="none" xmlns="http://www.w3.org/2000/svg">
<path d="M0.5 28V0H18V28L9.25 22.96L0.5 28Z" fill="#470137" style="fill:#470137;fill:color(display-p3 0.2784 0.0039 0.2157);fill-opacity:1;"/>
<path d="M4.11094 19L6.29707 15.6941L6.07969 16.4242V16.01L4.13145 13.0814H5.23066L6.69492 15.3742H7.11738L6.51445 15.7146L8.19609 13.0814H9.23789L7.23223 16.0387V16.457L7.01074 15.727L9.20098 19H8.12226L6.6498 16.7441H6.22324L6.83437 16.4078L5.13223 19H4.11094ZM11.543 19.0738C11.1711 19.0738 10.8457 18.9809 10.5668 18.7949C10.2906 18.6063 10.076 18.3396 9.92285 17.9951C9.77246 17.6506 9.69726 17.2445 9.69726 16.777V16.7688C9.69726 16.2984 9.77246 15.891 9.92285 15.5465C10.0732 15.202 10.2865 14.9367 10.5627 14.7508C10.8389 14.5621 11.1656 14.4678 11.543 14.4678C11.748 14.4678 11.9395 14.5006 12.1172 14.5662C12.2949 14.6291 12.4521 14.7193 12.5889 14.8369C12.7256 14.9518 12.8336 15.0898 12.9129 15.2512H12.9785V12.7984H13.8727V19H12.9785V18.2986H12.9129C12.8254 18.46 12.7146 18.5994 12.5807 18.717C12.4467 18.8318 12.2922 18.9207 12.1172 18.9836C11.9422 19.0437 11.7508 19.0738 11.543 19.0738ZM11.7973 18.3109C12.0434 18.3109 12.2566 18.2494 12.4371 18.1264C12.6176 18.0033 12.7557 17.827 12.8514 17.5973C12.9471 17.3648 12.9949 17.0914 12.9949 16.777V16.7688C12.9949 16.4516 12.9457 16.1781 12.8473 15.9484C12.7516 15.7188 12.6135 15.5424 12.433 15.4193C12.2553 15.2936 12.0434 15.2307 11.7973 15.2307C11.5512 15.2307 11.3379 15.2936 11.1574 15.4193C10.9797 15.5424 10.843 15.7188 10.7473 15.9484C10.6543 16.1754 10.6078 16.4488 10.6078 16.7688V16.777C10.6078 17.0941 10.6543 17.3676 10.7473 17.5973C10.843 17.827 10.9797 18.0033 11.1574 18.1264C11.3379 18.2494 11.5512 18.3109 11.7973 18.3109Z" fill="#FF99F9" style="fill:#FF99F9;fill:color(display-p3 1.0000 0.6000 0.9765);fill-opacity:1;"/>
</svg>
