<svg width="18" height="28" viewBox="0 0 18 28" fill="none" xmlns="http://www.w3.org/2000/svg">
<path d="M0 28V0H17.5V28L8.75 22.96L0 28Z" fill="#470137" style="fill:#470137;fill:color(display-p3 0.2784 0.0039 0.2157);fill-opacity:1;"/>
<path d="M3.64882 19L5.78242 15.9004L3.80002 13.0192H5.05162L6.41242 15.136L7.83202 13.0192H9.00802L7.02562 15.9004L9.15082 19H7.87402L6.37882 16.7152L4.85842 19H3.64882ZM13.7577 13.0192V19H12.8589V18.4036C12.5901 18.874 12.1197 19.1176 11.4729 19.1176C10.2465 19.1176 9.47369 18.2272 9.47369 16.8244C9.47369 15.43 10.2381 14.548 11.4393 14.548C12.0525 14.548 12.5145 14.7832 12.8169 15.2284V13.0192H13.7577ZM11.6157 15.3208C10.8933 15.3208 10.4397 15.8836 10.4397 16.8076C10.4397 17.7568 10.9017 18.3448 11.6493 18.3448C12.3969 18.3448 12.8421 17.782 12.8421 16.8244C12.8421 15.8752 12.3885 15.3208 11.6157 15.3208Z" fill="#FF99F9" style="fill:#FF99F9;fill:color(display-p3 1.0000 0.6000 0.9765);fill-opacity:1;"/>
</svg>
