<svg width="24" height="24" viewBox="0 0 24 24" fill="none" xmlns="http://www.w3.org/2000/svg">
<path d="M18.2567 5.99933C18.0853 5.8279 17.9138 5.74219 17.6567 5.74219C17.4853 5.74219 17.3138 5.74219 17.2281 5.8279C17.1424 5.91362 16.971 5.99933 16.8853 6.17076L10.6281 16.1136L7.54241 11.9993C7.4567 11.8279 7.28527 11.7422 7.19955 11.6565C7.02812 11.5708 6.94241 11.5708 6.77098 11.5708C6.51384 11.5708 6.2567 11.6565 6.08527 11.8279C5.91384 11.9993 5.82812 12.2565 5.82812 12.4279C5.82812 12.685 5.91384 12.8565 6.08527 13.1136L9.77098 17.8279C9.8567 17.9993 10.0281 18.085 10.1996 18.1708C10.371 18.2565 10.5424 18.3422 10.7138 18.3422C11.0567 18.3422 11.3996 18.1708 11.571 17.8279L18.2567 7.19933C18.4281 6.94219 18.4281 6.77076 18.4281 6.59933C18.5138 6.4279 18.4281 6.17076 18.2567 5.99933Z" fill="black" style="fill:black;fill-opacity:1;"/>
</svg>
