<svg width="28" height="28" viewBox="0 0 28 28" fill="none" xmlns="http://www.w3.org/2000/svg">
<path d="M9.64307 13.9944C9.64919 13.6771 9.75324 13.4168 10.0042 13.1693L14.6316 8.46564C14.8214 8.27521 15.0417 8.17999 15.3111 8.17999C15.8497 8.17999 16.2965 8.63702 16.2965 9.18927C16.2965 9.46857 16.1802 9.72882 15.9783 9.93195L11.9445 13.9881L15.9783 18.0506C16.1802 18.2601 16.2965 18.514 16.2965 18.7996C16.2965 19.3582 15.8497 19.8089 15.3111 19.8089C15.0417 19.8089 14.8214 19.7137 14.6316 19.5233L10.0042 14.8196C9.75324 14.5657 9.64307 14.3055 9.64307 13.9944Z" fill="black" style="fill:black;fill-opacity:1;"/>
</svg>
