<svg width="28" height="28" viewBox="0 0 28 28" fill="none" xmlns="http://www.w3.org/2000/svg">
<path d="M18.2543 13.9944C18.2543 14.3055 18.1502 14.5657 17.8932 14.8196L13.2657 19.5233C13.0821 19.7137 12.8556 19.8089 12.5863 19.8089C12.0476 19.8089 11.6069 19.3582 11.6069 18.7996C11.6069 18.514 11.7171 18.2601 11.9191 18.0506L15.9528 13.9881L11.9191 9.93195C11.7171 9.72882 11.6069 9.46857 11.6069 9.18927C11.6069 8.63702 12.0476 8.17999 12.5863 8.17999C12.8556 8.17999 13.0821 8.27521 13.2657 8.46564L17.8932 13.1693C18.1441 13.4168 18.2543 13.6771 18.2543 13.9944Z" fill="black" style="fill:black;fill-opacity:1;"/>
</svg>
