<svg width="976" height="976" viewBox="0 0 976 976" fill="none" xmlns="http://www.w3.org/2000/svg">
<g opacity="0.45">
<path d="M809.39 515.736C799.516 497.508 784.705 482.317 764.577 470.544C744.829 458.392 720.145 449.277 690.523 442.821L613.43 426.491C593.303 422.314 577.732 417.377 566.339 412.06C554.946 406.364 546.971 399.908 542.034 392.692C537.477 385.097 534.818 375.982 534.818 365.349C534.818 351.677 538.236 340.284 545.452 330.79C552.668 321.296 562.921 314.08 576.593 309.143C590.264 304.206 606.215 301.548 625.203 301.548C645.71 301.548 663.18 304.586 677.611 310.283C692.042 315.979 703.435 324.714 711.41 335.727C719.385 347.12 724.322 360.792 725.841 377.122H806.731C804.453 346.74 796.098 320.916 781.287 299.649C766.856 278.382 746.348 262.432 720.144 251.799C693.941 240.785 663.18 235.469 626.722 235.469C588.745 235.469 556.465 241.165 530.261 252.558C504.057 263.951 484.689 279.901 471.777 300.409C471.397 300.789 471.397 301.168 471.018 301.548C459.245 281.42 441.396 265.47 418.61 254.837C394.685 243.444 365.443 237.747 331.643 237.747C299.363 237.747 271.261 243.064 247.335 253.698C223.41 264.331 204.801 279.142 191.889 298.13C178.977 317.119 172.521 338.765 172.521 363.45C172.521 379.78 175.559 394.591 181.636 408.263C187.712 421.934 197.206 433.707 210.498 443.961C220.752 451.936 232.904 458.392 246.955 462.949C228.727 466.367 212.397 472.443 199.105 480.418C182.395 490.672 169.863 503.584 161.888 519.914C153.533 536.244 149.355 554.852 149.355 576.119C149.355 604.982 156.571 630.426 171.382 652.452C186.193 674.479 207.08 691.948 234.043 704.101C261.007 716.253 292.907 722.329 328.985 722.329C366.202 722.329 398.482 715.873 425.446 702.961C445.573 693.087 462.283 680.175 475.955 664.225C490.766 681.694 509.374 695.746 532.54 705.24C561.022 717.393 595.201 723.469 635.457 723.469C677.231 723.469 712.549 717.392 740.652 704.86C769.134 692.328 790.022 675.238 803.693 653.592C817.365 631.945 824.201 606.88 824.201 578.778C824.201 555.232 819.264 533.965 809.39 515.736ZM729.639 622.451C722.043 633.084 710.65 641.439 695.46 647.136C680.269 652.832 661.281 655.491 638.495 655.491C614.569 655.491 594.062 652.073 577.352 645.617C560.643 638.781 547.731 628.527 538.236 614.476C528.742 600.424 523.046 582.196 521.527 560.169H513.172H433.421C432.282 581.056 427.724 598.526 419.749 612.577C411.774 626.628 400.001 636.882 385.19 644.098C370.38 650.933 351.771 654.351 330.124 654.351C308.478 654.351 290.629 650.933 275.818 644.857C261.007 638.401 249.994 628.907 242.778 617.134C235.183 604.982 231.765 590.93 231.765 574.6C231.765 559.03 235.183 545.358 241.639 534.725C248.475 523.712 258.348 515.357 271.64 509.66C284.932 503.964 301.642 500.926 321.769 500.926H366.582V437.505H331.643C313.794 437.505 298.983 434.846 286.831 429.909C274.678 424.592 265.944 417.377 259.868 407.503C253.791 397.629 251.133 385.856 251.133 371.805C251.133 356.994 254.171 344.842 260.627 334.588C266.703 324.714 276.197 317.119 288.35 311.802C300.503 306.485 315.693 304.206 333.542 304.206C351.771 304.206 366.582 306.865 378.355 312.561C390.127 317.878 399.242 326.613 405.318 338.765C411.394 350.538 415.192 366.108 416.331 385.477H452.789C454.308 404.085 459.625 420.035 468.359 433.707C479.373 450.417 494.183 463.708 513.172 473.582C532.16 483.456 555.326 491.431 581.91 497.128L656.344 513.078C676.471 517.256 692.422 522.572 704.574 528.649C716.727 534.725 725.841 542.32 731.158 551.434C736.854 560.169 739.513 571.182 739.513 583.715C741.032 598.905 737.234 611.817 729.639 622.451Z" fill="#747480" fill-opacity="0.08" style="fill:#747480;fill:color(display-p3 0.4549 0.4549 0.5020);fill-opacity:0.08;"/>
<path d="M863.719 234.938C876.211 234.938 886.737 239.102 895.296 247.43C903.74 255.759 907.962 265.938 907.962 277.967C907.962 289.881 903.74 300.003 895.296 308.331C886.737 316.659 876.211 320.823 863.719 320.823C851.342 320.823 840.874 316.659 832.314 308.331C823.754 300.003 819.475 289.881 819.475 277.967C819.475 265.938 823.754 255.759 832.314 247.43C840.874 239.102 851.342 234.938 863.719 234.938ZM863.719 311.454C873.666 311.454 881.879 308.273 888.356 301.911C894.834 295.434 898.073 287.452 898.073 277.967C898.073 268.367 894.834 260.328 888.356 253.85C881.647 247.373 873.435 244.134 863.719 244.134C854.118 244.134 845.963 247.373 839.254 253.85C832.661 260.212 829.364 268.251 829.364 277.967C829.364 287.452 832.661 295.376 839.254 301.738C845.963 308.215 854.118 311.454 863.719 311.454ZM881.59 287.51L882.11 293.583C882.341 296.359 882.978 298.383 884.019 299.656H873.435C872.625 298.499 872.105 296.475 871.873 293.583L871.526 288.898C871.295 286.701 870.774 285.197 869.965 284.387C869.271 283.577 867.94 283.173 865.974 283.173H856.605V299.656H846.541V255.238H866.668C871.642 255.238 875.517 256.395 878.293 258.708C881.185 260.906 882.631 264.029 882.631 268.078C882.631 273.051 880.549 276.464 876.384 278.314C879.739 279.934 881.474 282.999 881.59 287.51ZM856.605 263.913V274.844H866.148C870.196 274.844 872.22 272.994 872.22 269.292C872.22 265.706 870.08 263.913 865.801 263.913H856.605Z" fill="#747480" fill-opacity="0.08" style="fill:#747480;fill:color(display-p3 0.4549 0.4549 0.5020);fill-opacity:0.08;"/>
</g>
</svg>
