<svg width="142" height="40" viewBox="0 0 142 40" fill="none" xmlns="http://www.w3.org/2000/svg">
<path d="M33.1717 21.1348C32.767 20.3877 32.16 19.7652 31.3351 19.2827C30.5258 18.7846 29.5141 18.4111 28.3001 18.1465L25.1405 17.4772C24.3156 17.306 23.6775 17.1037 23.2106 16.8858C22.7437 16.6523 22.4168 16.3877 22.2145 16.092C22.0277 15.7807 21.9188 15.4072 21.9188 14.9714C21.9188 14.4111 22.0588 13.9442 22.3546 13.5551C22.6503 13.1659 23.0705 12.8702 23.6308 12.6679C24.1911 12.4656 24.8448 12.3566 25.623 12.3566C26.4635 12.3566 27.1795 12.4811 27.7709 12.7146C28.3623 12.948 28.8293 13.306 29.1561 13.7574C29.483 14.2243 29.6853 14.7846 29.7476 15.4539H33.0627C32.9693 14.2087 32.6269 13.1504 32.0199 12.2788C31.4285 11.4072 30.588 10.7535 29.5141 10.3177C28.4402 9.86634 27.1795 9.64844 25.6853 9.64844C24.1289 9.64844 22.8059 9.8819 21.732 10.3488C20.6581 10.8158 19.8643 11.4694 19.3351 12.3099C19.3195 12.3255 19.3195 12.341 19.304 12.3566C18.8215 11.5317 18.09 10.878 17.1561 10.4422C16.1756 9.97529 14.9771 9.74182 13.5919 9.74182C12.269 9.74182 11.1172 9.95972 10.1367 10.3955C9.15611 10.8313 8.39347 11.4383 7.86428 12.2165C7.3351 12.9947 7.07051 13.8819 7.07051 14.8936C7.07051 15.5628 7.19502 16.1698 7.44405 16.7301C7.69308 17.2905 8.08218 17.773 8.62693 18.1932C9.04716 18.52 9.54522 18.7846 10.1211 18.9714C9.37401 19.1115 8.70475 19.3605 8.16 19.6873C7.47518 20.1076 6.96156 20.6368 6.63471 21.306C6.2923 21.9753 6.12109 22.7379 6.12109 23.6095C6.12109 24.7924 6.41681 25.8352 7.02382 26.7379C7.63082 27.6407 8.48685 28.3566 9.59191 28.8547C10.697 29.3527 12.0044 29.6017 13.483 29.6017C15.0083 29.6017 16.3312 29.3372 17.4363 28.808C18.2612 28.4033 18.946 27.8741 19.5063 27.2204C20.1133 27.9364 20.876 28.5123 21.8254 28.9014C22.9927 29.3994 24.3935 29.6484 26.0433 29.6484C27.7553 29.6484 29.2028 29.3994 30.3546 28.8858C31.5219 28.3722 32.3779 27.6718 32.9382 26.7846C33.4985 25.8975 33.7787 24.8702 33.7787 23.7185C33.7787 22.7535 33.5763 21.8819 33.1717 21.1348ZM29.9032 25.5084C29.5919 25.9442 29.125 26.2866 28.5024 26.52C27.8798 26.7535 27.1016 26.8624 26.1678 26.8624C25.1872 26.8624 24.3468 26.7224 23.6619 26.4578C22.9771 26.1776 22.4479 25.7574 22.0588 25.1815C21.6697 24.6056 21.4363 23.8586 21.374 22.9558H21.0316H17.7631C17.7164 23.8119 17.5297 24.5278 17.2028 25.1037C16.876 25.6796 16.3935 26.0998 15.7865 26.3955C15.1795 26.6757 14.4168 26.8158 13.5297 26.8158C12.6425 26.8158 11.911 26.6757 11.304 26.4266C10.697 26.1621 10.2456 25.7729 9.94989 25.2905C9.6386 24.7924 9.49853 24.2165 9.49853 23.5473C9.49853 22.9091 9.6386 22.3488 9.90319 21.913C10.1834 21.4617 10.588 21.1193 11.1328 20.8858C11.6775 20.6523 12.3623 20.5278 13.1872 20.5278H15.0238V17.9286H13.5919C12.8604 17.9286 12.2534 17.8196 11.7553 17.6173C11.2573 17.3994 10.8993 17.1037 10.6503 16.699C10.4012 16.2944 10.2923 15.8119 10.2923 15.236C10.2923 14.629 10.4168 14.1309 10.6814 13.7107C10.9304 13.306 11.3195 12.9947 11.8176 12.7768C12.3156 12.5589 12.9382 12.4656 13.6697 12.4656C14.4168 12.4656 15.0238 12.5745 15.5063 12.808C15.9888 13.0259 16.3623 13.3838 16.6114 13.8819C16.8604 14.3644 17.016 15.0025 17.0627 15.7963H18.5569C18.6191 16.5589 18.837 17.2126 19.195 17.773C19.6464 18.4578 20.2534 19.0025 21.0316 19.4072C21.8098 19.8119 22.7592 20.1387 23.8487 20.3722L26.8993 21.0259C27.7242 21.1971 28.3779 21.415 28.876 21.664C29.374 21.913 29.7476 22.2243 29.9655 22.5979C30.1989 22.9558 30.3079 23.4072 30.3079 23.9208C30.3701 24.5434 30.2145 25.0726 29.9032 25.5084Z" fill="black" style="fill:black;fill-opacity:1;"/>
<path d="M35.3992 9.95312C35.9112 9.95312 36.3426 10.1238 36.6934 10.4651C37.0395 10.8064 37.2125 11.2236 37.2125 11.7166C37.2125 12.2049 37.0395 12.6197 36.6934 12.961C36.3426 13.3023 35.9112 13.473 35.3992 13.473C34.892 13.473 34.4629 13.3023 34.1121 12.961C33.7613 12.6197 33.5859 12.2049 33.5859 11.7166C33.5859 11.2236 33.7613 10.8064 34.1121 10.4651C34.4629 10.1238 34.892 9.95312 35.3992 9.95312ZM35.3992 13.089C35.8069 13.089 36.1435 12.9587 36.409 12.6979C36.6744 12.4325 36.8072 12.1054 36.8072 11.7166C36.8072 11.3232 36.6744 10.9937 36.409 10.7282C36.134 10.4627 35.7974 10.33 35.3992 10.33C35.0057 10.33 34.6715 10.4627 34.3966 10.7282C34.1264 10.9889 33.9913 11.3184 33.9913 11.7166C33.9913 12.1054 34.1264 12.4301 34.3966 12.6908C34.6715 12.9563 35.0057 13.089 35.3992 13.089ZM36.1316 12.1077L36.153 12.3566C36.1624 12.4704 36.1885 12.5533 36.2312 12.6055H35.7974C35.7642 12.5581 35.7429 12.4751 35.7334 12.3566L35.7192 12.1646C35.7097 12.0745 35.6884 12.0129 35.6552 11.9797C35.6268 11.9465 35.5722 11.9299 35.4917 11.9299H35.1077V12.6055H34.6952V10.7851H35.5201C35.7239 10.7851 35.8828 10.8325 35.9965 10.9273C36.115 11.0174 36.1743 11.1454 36.1743 11.3113C36.1743 11.5151 36.089 11.655 35.9183 11.7308C36.0558 11.7972 36.1269 11.9228 36.1316 12.1077ZM35.1077 11.1406V11.5886H35.4988C35.6647 11.5886 35.7476 11.5128 35.7476 11.3611C35.7476 11.2141 35.6599 11.1406 35.4845 11.1406H35.1077Z" fill="black" style="fill:black;fill-opacity:1;"/>
<path d="M48.003 24.1665C48.6245 24.1665 49.1608 24.0583 49.6118 23.842C50.0609 23.6256 50.4093 23.3149 50.6568 22.9097C50.9043 22.5046 51.0399 22.0215 51.0638 21.4605H49.7685C49.752 21.8143 49.675 22.1095 49.5375 22.346C49.4 22.5825 49.2048 22.7594 48.9518 22.8767C48.6969 22.9941 48.3853 23.0527 48.0168 23.0527C47.6501 23.0527 47.3421 22.9968 47.0928 22.885C46.8434 22.7731 46.6564 22.6155 46.5318 22.412C46.4053 22.2085 46.342 21.9674 46.342 21.6887C46.342 21.4229 46.3988 21.1974 46.5125 21.0122C46.6262 20.8252 46.7976 20.6822 47.0268 20.5832C47.2541 20.4842 47.5364 20.4347 47.8738 20.4347H48.6355V19.398H48.0525C47.75 19.398 47.4979 19.3549 47.2963 19.2687C47.0928 19.1807 46.9415 19.0542 46.8425 18.8892C46.7417 18.7242 46.6913 18.5226 46.6913 18.2842C46.6913 18.0349 46.7444 17.825 46.8508 17.6545C46.9571 17.484 47.1148 17.3566 47.3238 17.2722C47.5328 17.1861 47.7894 17.143 48.0938 17.143C48.4018 17.143 48.6557 17.1897 48.8555 17.2832C49.0553 17.3767 49.2084 17.5243 49.3148 17.726C49.4211 17.9276 49.4834 18.1935 49.5018 18.5235H50.7805C50.7585 17.9955 50.6384 17.5463 50.4203 17.176C50.2021 16.8056 49.8932 16.5242 49.4935 16.3317C49.092 16.1392 48.6098 16.043 48.047 16.043C47.5098 16.043 47.0414 16.1319 46.6418 16.3097C46.2403 16.4857 45.9323 16.7323 45.7178 17.0495C45.5033 17.3666 45.396 17.7306 45.396 18.1412C45.396 18.4126 45.4473 18.6628 45.55 18.892C45.6527 19.1193 45.8122 19.3182 46.0285 19.4887C46.243 19.6592 46.5171 19.7894 46.8508 19.8792V19.7802C46.4474 19.8316 46.1073 19.9425 45.8305 20.113C45.5537 20.2835 45.3465 20.5044 45.209 20.7757C45.0697 21.0471 45 21.3596 45 21.7135C45 22.1975 45.1228 22.6246 45.3685 22.995C45.6142 23.3653 45.9643 23.6531 46.419 23.8585C46.8718 24.0638 47.3998 24.1665 48.003 24.1665Z" fill="black" style="fill:black;fill-opacity:1;"/>
<path d="M80.1114 24.1504C79.5339 24.1504 79.0334 24.0239 78.6099 23.7709C78.1864 23.5179 77.8619 23.165 77.6364 22.7121C77.4109 22.2575 77.2981 21.735 77.2981 21.1446C77.2981 20.558 77.41 20.041 77.6336 19.5936C77.8591 19.1445 78.1818 18.7952 78.6016 18.5459C79.0233 18.2965 79.5192 18.1719 80.0894 18.1719C80.6595 18.1719 81.149 18.2956 81.5579 18.5431C81.9667 18.7906 82.2784 19.1362 82.4929 19.5799C82.7092 20.0217 82.8174 20.5332 82.8174 21.1144C82.8174 21.1749 82.8174 21.2354 82.8174 21.2959C82.8174 21.3545 82.8174 21.4141 82.8174 21.4746H78.2166V20.6359H82.1601L81.5826 21.0621C81.579 20.6533 81.5185 20.3077 81.4011 20.0254C81.2856 19.7412 81.117 19.5276 80.8951 19.3846C80.6751 19.2416 80.4075 19.1701 80.0921 19.1701C79.786 19.1701 79.5192 19.238 79.2919 19.3736C79.0664 19.5093 78.8913 19.7137 78.7666 19.9869C78.642 20.2582 78.5796 20.5946 78.5796 20.9961V21.2821C78.5796 21.6983 78.642 22.0457 78.7666 22.3244C78.8931 22.603 79.0728 22.8111 79.3056 22.9486C79.5385 23.0843 79.8171 23.1521 80.1416 23.1521C80.369 23.1521 80.5697 23.1191 80.7439 23.0531C80.918 22.9871 81.0675 22.89 81.1921 22.7616C81.3186 22.6315 81.4213 22.472 81.5001 22.2831L82.7156 22.3986C82.5873 22.7671 82.4003 23.0825 82.1546 23.3446C81.909 23.6068 81.6129 23.8066 81.2664 23.9441C80.9199 24.0816 80.5349 24.1504 80.1114 24.1504Z" fill="black" style="fill:black;fill-opacity:1;"/>
<path d="M71.2307 23.9964V18.3204H72.438L72.4737 19.4946L72.5342 19.5056V23.9964H71.2307ZM75.0037 20.3884C75.0037 20.1464 74.9652 19.9429 74.8882 19.7779C74.8112 19.6129 74.6957 19.4882 74.5417 19.4039C74.3896 19.3195 74.1989 19.2774 73.9697 19.2774C73.7131 19.2774 73.4766 19.3315 73.2602 19.4396C73.0457 19.5478 72.8707 19.721 72.735 19.9594C72.6012 20.1977 72.5342 20.502 72.5342 20.8724H72.13V19.2719H72.361C72.4875 19.0354 72.647 18.8355 72.8395 18.6724C73.0338 18.5092 73.2566 18.3855 73.5077 18.3011C73.7589 18.215 74.033 18.1719 74.33 18.1719C74.737 18.1719 75.089 18.248 75.386 18.4001C75.683 18.5505 75.9103 18.7705 76.068 19.0601C76.2275 19.3498 76.3072 19.699 76.3072 20.1079V23.9964H75.0037V20.3884Z" fill="black" style="fill:black;fill-opacity:1;"/>
<path d="M67.5372 24.1504C66.9597 24.1504 66.4592 24.0239 66.0357 23.7709C65.6122 23.5179 65.2877 23.165 65.0622 22.7121C64.8367 22.2575 64.7239 21.735 64.7239 21.1446C64.7239 20.558 64.8357 20.041 65.0594 19.5936C65.2849 19.1445 65.6076 18.7952 66.0274 18.5459C66.4491 18.2965 66.945 18.1719 67.5152 18.1719C68.0853 18.1719 68.5748 18.2956 68.9837 18.5431C69.3925 18.7906 69.7042 19.1362 69.9187 19.5799C70.135 20.0217 70.2432 20.5332 70.2432 21.1144C70.2432 21.1749 70.2432 21.2354 70.2432 21.2959C70.2432 21.3545 70.2432 21.4141 70.2432 21.4746H65.6424V20.6359H69.5859L69.0084 21.0621C69.0047 20.6533 68.9442 20.3077 68.8269 20.0254C68.7114 19.7412 68.5427 19.5276 68.3209 19.3846C68.1009 19.2416 67.8332 19.1701 67.5179 19.1701C67.2117 19.1701 66.945 19.238 66.7177 19.3736C66.4922 19.5093 66.3171 19.7137 66.1924 19.9869C66.0677 20.2582 66.0054 20.5946 66.0054 20.9961V21.2821C66.0054 21.6983 66.0677 22.0457 66.1924 22.3244C66.3189 22.603 66.4986 22.8111 66.7314 22.9486C66.9642 23.0843 67.2429 23.1521 67.5674 23.1521C67.7947 23.1521 67.9955 23.1191 68.1697 23.0531C68.3438 22.9871 68.4932 22.89 68.6179 22.7616C68.7444 22.6315 68.8471 22.472 68.9259 22.2831L70.1414 22.3986C70.0131 22.7671 69.8261 23.0825 69.5804 23.3446C69.3347 23.6068 69.0387 23.8066 68.6922 23.9441C68.3457 24.0816 67.9607 24.1504 67.5372 24.1504Z" fill="black" style="fill:black;fill-opacity:1;"/>
<path d="M60.823 26.3719C60.3354 26.3719 59.9137 26.3105 59.558 26.1877C59.2024 26.0667 58.9173 25.8769 58.7028 25.6184C58.4883 25.3618 58.3526 25.0336 58.2958 24.6339L59.5525 24.5899C59.602 24.7861 59.6845 24.9429 59.8 25.0602C59.9155 25.1794 60.0622 25.2646 60.24 25.3159C60.4197 25.3673 60.636 25.3929 60.889 25.3929C61.2814 25.3929 61.5921 25.3352 61.8213 25.2197C62.0523 25.106 62.2164 24.9383 62.3135 24.7164C62.4107 24.4964 62.4593 24.2159 62.4593 23.8749V22.6897H62.5693V19.8077H62.484L62.5225 18.3199H63.738V23.7127C63.738 24.314 63.6216 24.8127 63.3888 25.2087C63.1578 25.6047 62.8259 25.8971 62.3933 26.0859C61.9606 26.2766 61.4372 26.3719 60.823 26.3719ZM60.6745 24.0674C60.1594 24.0674 59.7093 23.9409 59.3243 23.6879C58.9393 23.4331 58.6432 23.0774 58.436 22.6209C58.2289 22.1644 58.1253 21.6419 58.1253 21.0534C58.1253 20.4778 58.2325 19.9727 58.447 19.5382C58.6634 19.1037 58.9622 18.7691 59.3435 18.5344C59.7249 18.2979 60.1603 18.1797 60.6498 18.1797C61.0036 18.1797 61.329 18.242 61.626 18.3667C61.923 18.4914 62.1724 18.6674 62.374 18.8947C62.5775 19.122 62.7205 19.3869 62.803 19.6894V22.5412C62.7242 22.8382 62.5849 23.1022 62.385 23.3332C62.1852 23.5624 61.9377 23.742 61.6425 23.8722C61.3492 24.0024 61.0265 24.0674 60.6745 24.0674ZM60.9138 22.9949C61.2181 22.9949 61.4885 22.917 61.725 22.7612C61.9634 22.6035 62.1485 22.3789 62.2805 22.0874C62.4144 21.7941 62.4813 21.4522 62.4813 21.0617C62.4813 20.673 62.4153 20.3412 62.2833 20.0662C62.1531 19.7912 61.9716 19.5831 61.7388 19.4419C61.5059 19.3008 61.2364 19.2302 60.9303 19.2302C60.6241 19.2302 60.3592 19.2989 60.1355 19.4364C59.9119 19.5739 59.7395 19.7784 59.6185 20.0497C59.4994 20.321 59.4398 20.6529 59.4398 21.0452C59.4398 21.4467 59.4984 21.7941 59.6158 22.0874C59.7349 22.3789 59.9054 22.6035 60.1273 22.7612C60.3491 22.917 60.6113 22.9949 60.9138 22.9949Z" fill="black" style="fill:black;fill-opacity:1;"/>
<path d="M54.0342 24.1448C53.6272 24.1448 53.2752 24.0696 52.9782 23.9193C52.6812 23.7671 52.4529 23.5462 52.2934 23.2566C52.1357 22.9669 52.0569 22.6176 52.0569 22.2088V18.3203H53.3604V21.9283C53.3604 22.1703 53.3989 22.3738 53.4759 22.5388C53.5529 22.7038 53.6675 22.8285 53.8197 22.9128C53.9737 22.9971 54.1652 23.0393 54.3944 23.0393C54.6511 23.0393 54.8867 22.9852 55.1012 22.8771C55.3175 22.7689 55.4926 22.5956 55.6264 22.3573C55.7621 22.119 55.8299 21.8146 55.8299 21.4443H56.2342V23.0448H56.0032C55.8767 23.2813 55.7162 23.4811 55.5219 23.6443C55.3294 23.8075 55.1076 23.9312 54.8564 24.0156C54.6052 24.1017 54.3312 24.1448 54.0342 24.1448ZM55.9262 23.9963L55.8904 22.8221H55.8299V18.3203H57.1334V23.9963H55.9262Z" fill="black" style="fill:black;fill-opacity:1;"/>
<path d="M138.776 23.9961V18.3201H140.079V23.9961H138.776ZM138.776 17.3383V16.1641H140.079V17.3383H138.776Z" fill="black" style="fill:black;fill-opacity:1;"/>
<path d="M133.513 22.3131V21.0811L134.696 19.8023L136.183 18.3201H137.784L135.16 20.8198L134.971 20.9601L133.513 22.3131ZM132.65 23.9961V16.1641H133.953V19.3788L133.898 20.9848L133.953 21.3918V23.9961H132.65ZM136.417 23.9961L135.259 22.1921L134.517 20.9106V20.3138H135.446L137.954 23.9961H136.417Z" fill="black" style="fill:black;fill-opacity:1;"/>
<path d="M129.24 24.1575C128.736 24.1575 128.307 24.0869 127.953 23.9457C127.601 23.8046 127.324 23.5946 127.122 23.316C126.923 23.0355 126.799 22.6871 126.751 22.271L127.98 22.216C128.01 22.4525 128.078 22.645 128.184 22.7935C128.29 22.942 128.435 23.052 128.618 23.1235C128.802 23.1931 129.027 23.228 129.295 23.228C129.572 23.228 129.803 23.1959 129.988 23.1317C130.175 23.0657 130.313 22.9731 130.403 22.854C130.495 22.733 130.541 22.59 130.541 22.425C130.541 22.2746 130.503 22.15 130.428 22.051C130.355 21.9501 130.235 21.8658 130.07 21.798C129.907 21.7283 129.685 21.6678 129.402 21.6165L128.75 21.5065C128.336 21.435 127.992 21.3314 127.719 21.1957C127.446 21.0601 127.239 20.8831 127.098 20.665C126.958 20.4468 126.889 20.1819 126.889 19.8702C126.889 19.5182 126.976 19.2148 127.15 18.96C127.324 18.7051 127.581 18.5099 127.92 18.3742C128.261 18.2367 128.675 18.168 129.163 18.168C129.62 18.168 130.017 18.2321 130.356 18.3605C130.697 18.487 130.972 18.6795 131.181 18.938C131.392 19.1946 131.527 19.5146 131.586 19.8977L130.348 19.9555C130.312 19.7575 130.243 19.5934 130.142 19.4632C130.043 19.3331 129.908 19.2359 129.738 19.1717C129.567 19.1076 129.358 19.0755 129.111 19.0755C128.889 19.0755 128.7 19.1002 128.544 19.1497C128.388 19.1992 128.269 19.2744 128.187 19.3752C128.104 19.4742 128.063 19.5989 128.063 19.7492C128.063 19.8977 128.102 20.0187 128.181 20.1122C128.262 20.2057 128.376 20.2809 128.522 20.3377C128.671 20.3927 128.864 20.4422 129.103 20.4862L129.735 20.5962C130.173 20.6751 130.539 20.7814 130.832 20.9152C131.127 21.0472 131.356 21.2269 131.517 21.4542C131.68 21.6816 131.762 21.9657 131.762 22.3067C131.762 22.6954 131.66 23.0291 131.456 23.3077C131.253 23.5846 130.962 23.7954 130.585 23.9402C130.207 24.0851 129.759 24.1575 129.24 24.1575Z" fill="black" style="fill:black;fill-opacity:1;"/>
<path d="M122.997 23.9963L120.852 18.3203H122.238L123.299 21.5131C123.382 21.7899 123.464 22.0731 123.547 22.3628C123.631 22.6525 123.709 22.9302 123.781 23.1961H123.657C123.736 22.8991 123.815 22.6103 123.896 22.3298C123.977 22.0493 124.057 21.7688 124.138 21.4883L125.153 18.3203H126.462L124.391 23.9963H122.997Z" fill="black" style="fill:black;fill-opacity:1;"/>
<path d="M117.771 24.1591C117.21 24.1591 116.714 24.0335 116.283 23.7823C115.854 23.5293 115.521 23.1746 115.285 22.7181C115.05 22.2616 114.933 21.7372 114.933 21.1451C114.933 20.5566 115.054 20.0368 115.296 19.5858C115.538 19.1348 115.873 18.7856 116.302 18.5381C116.733 18.2887 117.223 18.1641 117.771 18.1641C118.326 18.1641 118.82 18.2869 119.25 18.5326C119.681 18.7782 120.017 19.1266 120.257 19.5776C120.499 20.0286 120.62 20.5511 120.62 21.1451C120.62 21.7409 120.5 22.2671 120.26 22.7236C120.019 23.1782 119.684 23.5311 119.253 23.7823C118.822 24.0335 118.328 24.1591 117.771 24.1591ZM117.771 23.1443C118.097 23.1443 118.375 23.0636 118.604 22.9023C118.835 22.7391 119.009 22.5081 119.127 22.2093C119.246 21.9086 119.305 21.5539 119.305 21.1451C119.305 20.7344 119.245 20.3824 119.124 20.0891C119.005 19.7939 118.831 19.5684 118.601 19.4126C118.372 19.2567 118.095 19.1788 117.771 19.1788C117.452 19.1788 117.178 19.2567 116.949 19.4126C116.721 19.5666 116.547 19.7911 116.426 20.0863C116.307 20.3796 116.247 20.7326 116.247 21.1451C116.247 21.5557 116.307 21.9114 116.426 22.2121C116.545 22.5127 116.719 22.7437 116.946 22.9051C117.175 23.0646 117.45 23.1443 117.771 23.1443Z" fill="black" style="fill:black;fill-opacity:1;"/>
<path d="M112.647 23.9961V16.1641H113.95V23.9961H112.647Z" fill="black" style="fill:black;fill-opacity:1;"/>
<path d="M108.817 24.1591C108.256 24.1591 107.76 24.0335 107.329 23.7823C106.9 23.5293 106.567 23.1746 106.331 22.7181C106.096 22.2616 105.979 21.7372 105.979 21.1451C105.979 20.5566 106.1 20.0368 106.342 19.5858C106.584 19.1348 106.919 18.7856 107.348 18.5381C107.779 18.2887 108.269 18.1641 108.817 18.1641C109.372 18.1641 109.865 18.2869 110.296 18.5326C110.727 18.7782 111.063 19.1266 111.303 19.5776C111.545 20.0286 111.666 20.5511 111.666 21.1451C111.666 21.7409 111.546 22.2671 111.306 22.7236C111.065 23.1782 110.73 23.5311 110.299 23.7823C109.868 24.0335 109.374 24.1591 108.817 24.1591ZM108.817 23.1443C109.143 23.1443 109.421 23.0636 109.65 22.9023C109.881 22.7391 110.055 22.5081 110.173 22.2093C110.292 21.9086 110.351 21.5539 110.351 21.1451C110.351 20.7344 110.291 20.3824 110.17 20.0891C110.051 19.7939 109.876 19.5684 109.647 19.4126C109.418 19.2567 109.141 19.1788 108.817 19.1788C108.498 19.1788 108.224 19.2567 107.995 19.4126C107.767 19.5666 107.593 19.7911 107.472 20.0863C107.353 20.3796 107.293 20.7326 107.293 21.1451C107.293 21.5557 107.353 21.9114 107.472 22.2121C107.591 22.5127 107.764 22.7437 107.992 22.9051C108.221 23.0646 108.496 23.1443 108.817 23.1443Z" fill="black" style="fill:black;fill-opacity:1;"/>
<path d="M101.462 22.3131V21.0811L102.645 19.8023L104.133 18.3201H105.733L103.11 20.8198L102.92 20.9601L101.462 22.3131ZM100.599 23.9961V16.1641H101.902V19.3788L101.847 20.9848L101.902 21.3918V23.9961H100.599ZM104.366 23.9961L103.209 22.1921L102.466 20.9106V20.3138H103.396L105.904 23.9961H104.366Z" fill="black" style="fill:black;fill-opacity:1;"/>
<path d="M96.7689 24.1591C96.2079 24.1591 95.712 24.0335 95.2812 23.7823C94.8522 23.5293 94.5194 23.1746 94.2829 22.7181C94.0483 22.2616 93.9309 21.7372 93.9309 21.1451C93.9309 20.5566 94.0519 20.0368 94.2939 19.5858C94.5359 19.1348 94.8714 18.7856 95.3004 18.5381C95.7313 18.2887 96.2208 18.1641 96.7689 18.1641C97.3244 18.1641 97.8176 18.2869 98.2484 18.5326C98.6793 18.7782 99.0148 19.1266 99.2549 19.5776C99.4969 20.0286 99.6179 20.5511 99.6179 21.1451C99.6179 21.7409 99.4979 22.2671 99.2577 22.7236C99.0175 23.1782 98.682 23.5311 98.2512 23.7823C97.8204 24.0335 97.3263 24.1591 96.7689 24.1591ZM96.7689 23.1443C97.0953 23.1443 97.373 23.0636 97.6022 22.9023C97.8332 22.7391 98.0074 22.5081 98.1247 22.2093C98.2439 21.9086 98.3034 21.5539 98.3034 21.1451C98.3034 20.7344 98.2429 20.3824 98.1219 20.0891C98.0028 19.7939 97.8286 19.5684 97.5994 19.4126C97.3703 19.2567 97.0934 19.1788 96.7689 19.1788C96.4499 19.1788 96.1759 19.2567 95.9467 19.4126C95.7194 19.5666 95.5452 19.7911 95.4242 20.0863C95.305 20.3796 95.2454 20.7326 95.2454 21.1451C95.2454 21.5557 95.305 21.9114 95.4242 22.2121C95.5434 22.5127 95.7166 22.7437 95.9439 22.9051C96.1731 23.0646 96.4481 23.1443 96.7689 23.1443Z" fill="black" style="fill:black;fill-opacity:1;"/>
<path d="M90.0658 24.1813C89.3948 24.1813 88.8219 24.0795 88.3471 23.876C87.8741 23.6725 87.5047 23.3682 87.2388 22.963C86.9748 22.5578 86.8217 22.0528 86.7796 21.4478H88.1188C88.15 21.8236 88.2453 22.1316 88.4048 22.3718C88.5662 22.6119 88.7889 22.7898 89.0731 22.9053C89.3572 23.0189 89.7047 23.0758 90.1153 23.0758C90.5022 23.0758 90.8257 23.0272 91.0861 22.93C91.3482 22.831 91.5444 22.6898 91.6746 22.5065C91.8047 22.3232 91.8698 22.1032 91.8698 21.8465C91.8698 21.6302 91.8222 21.4459 91.7268 21.2938C91.6315 21.1416 91.4793 21.0123 91.2703 20.906C91.0632 20.7997 90.7863 20.7098 90.4398 20.6365L89.2106 20.3725C88.7577 20.2772 88.3718 20.1461 88.0528 19.9792C87.7338 19.8124 87.4836 19.5897 87.3021 19.311C87.1224 19.0323 87.0326 18.6886 87.0326 18.2797C87.0326 17.8251 87.1417 17.4272 87.3598 17.0862C87.578 16.7452 87.9043 16.4794 88.3388 16.2888C88.7733 16.0963 89.3068 16 89.9393 16C90.5425 16 91.0613 16.0907 91.4958 16.2722C91.9322 16.4537 92.2722 16.7214 92.5161 17.0753C92.7617 17.4291 92.9038 17.8617 92.9423 18.3733H91.6278C91.6003 18.0909 91.5169 17.8535 91.3776 17.661C91.2382 17.4685 91.0448 17.3227 90.7973 17.2237C90.5517 17.1247 90.2547 17.0753 89.9063 17.0753C89.5837 17.0753 89.3059 17.1183 89.0731 17.2045C88.8421 17.2888 88.6652 17.4135 88.5423 17.5785C88.4195 17.7417 88.3581 17.9397 88.3581 18.1725C88.3581 18.354 88.3984 18.5089 88.4791 18.6372C88.5616 18.7637 88.7 18.8747 88.8943 18.97C89.0905 19.0653 89.36 19.1497 89.7028 19.223L90.9761 19.4953C91.4729 19.5998 91.8872 19.7528 92.2191 19.9545C92.5509 20.1562 92.8002 20.4082 92.9671 20.7108C93.1339 21.0114 93.2173 21.3653 93.2173 21.7723C93.2173 22.2398 93.1027 22.6541 92.8736 23.0153C92.6462 23.3764 92.297 23.6615 91.8258 23.8705C91.3547 24.0777 90.768 24.1813 90.0658 24.1813Z" fill="black" style="fill:black;fill-opacity:1;"/>
</svg>
