<svg width="40" height="32" viewBox="0 0 40 32" fill="none" xmlns="http://www.w3.org/2000/svg">
<g clip-path="url(#clip0_35868_76786)">
<path d="M33.1717 17.6348C32.767 16.8877 32.16 16.2652 31.3351 15.7827C30.5258 15.2846 29.5141 14.9111 28.3001 14.6465L25.1405 13.9772C24.3156 13.806 23.6775 13.6037 23.2106 13.3858C22.7437 13.1523 22.4168 12.8877 22.2145 12.592C22.0277 12.2807 21.9188 11.9072 21.9188 11.4714C21.9188 10.9111 22.0588 10.4442 22.3546 10.0551C22.6503 9.66595 23.0705 9.37023 23.6308 9.16789C24.1911 8.96556 24.8448 8.85661 25.623 8.85661C26.4635 8.85661 27.1795 8.98112 27.7709 9.21458C28.3623 9.44805 28.8293 9.80602 29.1561 10.2574C29.483 10.7243 29.6853 11.2846 29.7476 11.9539H33.0627C32.9693 10.7087 32.6269 9.65038 32.0199 8.77879C31.4285 7.90719 30.588 7.2535 29.5141 6.8177C28.4402 6.36634 27.1795 6.14844 25.6853 6.14844C24.1289 6.14844 22.8059 6.3819 21.732 6.84883C20.6581 7.31575 19.8643 7.96945 19.3351 8.80992C19.3195 8.82548 19.3195 8.84104 19.304 8.85661C18.8215 8.03171 18.09 7.37801 17.1561 6.94221C16.1756 6.47529 14.9771 6.24182 13.5919 6.24182C12.269 6.24182 11.1172 6.45972 10.1367 6.89552C9.15611 7.33132 8.39347 7.93832 7.86428 8.71653C7.3351 9.49474 7.07051 10.3819 7.07051 11.3936C7.07051 12.0628 7.19502 12.6698 7.44405 13.2301C7.69308 13.7905 8.08218 14.273 8.62693 14.6932C9.04716 15.02 9.54522 15.2846 10.1211 15.4714C9.37401 15.6115 8.70475 15.8605 8.16 16.1873C7.47518 16.6076 6.96156 17.1368 6.63471 17.806C6.2923 18.4753 6.12109 19.2379 6.12109 20.1095C6.12109 21.2924 6.41681 22.3352 7.02382 23.2379C7.63082 24.1407 8.48685 24.8566 9.59191 25.3547C10.697 25.8527 12.0044 26.1017 13.483 26.1017C15.0083 26.1017 16.3312 25.8372 17.4363 25.308C18.2612 24.9033 18.946 24.3741 19.5063 23.7204C20.1133 24.4364 20.876 25.0123 21.8254 25.4014C22.9927 25.8994 24.3935 26.1484 26.0433 26.1484C27.7553 26.1484 29.2028 25.8994 30.3546 25.3858C31.5219 24.8722 32.3779 24.1718 32.9382 23.2846C33.4985 22.3975 33.7787 21.3702 33.7787 20.2185C33.7787 19.2535 33.5763 18.3819 33.1717 17.6348ZM29.9032 22.0084C29.5919 22.4442 29.125 22.7866 28.5024 23.02C27.8798 23.2535 27.1016 23.3624 26.1678 23.3624C25.1872 23.3624 24.3468 23.2224 23.6619 22.9578C22.9771 22.6776 22.4479 22.2574 22.0588 21.6815C21.6697 21.1056 21.4363 20.3586 21.374 19.4558H21.0316H17.7631C17.7164 20.3119 17.5297 21.0278 17.2028 21.6037C16.876 22.1796 16.3935 22.5998 15.7865 22.8955C15.1795 23.1757 14.4168 23.3158 13.5297 23.3158C12.6425 23.3158 11.911 23.1757 11.304 22.9266C10.697 22.6621 10.2456 22.2729 9.94989 21.7905C9.6386 21.2924 9.49853 20.7165 9.49853 20.0473C9.49853 19.4091 9.6386 18.8488 9.90319 18.413C10.1834 17.9617 10.588 17.6193 11.1328 17.3858C11.6775 17.1523 12.3623 17.0278 13.1872 17.0278H15.0238V14.4286H13.5919C12.8604 14.4286 12.2534 14.3196 11.7553 14.1173C11.2573 13.8994 10.8993 13.6037 10.6503 13.199C10.4012 12.7944 10.2923 12.3119 10.2923 11.736C10.2923 11.129 10.4168 10.6309 10.6814 10.2107C10.9304 9.80602 11.3195 9.49474 11.8176 9.27684C12.3156 9.05894 12.9382 8.96556 13.6697 8.96556C14.4168 8.96556 15.0238 9.07451 15.5063 9.30797C15.9888 9.52587 16.3623 9.88385 16.6114 10.3819C16.8604 10.8644 17.016 11.5025 17.0627 12.2963H18.5569C18.6191 13.0589 18.837 13.7126 19.195 14.273C19.6464 14.9578 20.2534 15.5025 21.0316 15.9072C21.8098 16.3119 22.7592 16.6387 23.8487 16.8722L26.8993 17.5259C27.7242 17.6971 28.3779 17.915 28.876 18.164C29.374 18.413 29.7476 18.7243 29.9655 19.0979C30.1989 19.4558 30.3079 19.9072 30.3079 20.4208C30.3701 21.0434 30.2145 21.5726 29.9032 22.0084Z" fill="black" style="fill:black;fill-opacity:1;"/>
</g>
<defs>
<clipPath id="clip0_35868_76786">
<rect width="40" height="32" fill="white" style="fill:white;fill-opacity:1;"/>
</clipPath>
</defs>
</svg>
