<svg width="20" height="20" viewBox="0 0 20 20" fill="none" xmlns="http://www.w3.org/2000/svg">
<path d="M16.5178 10.5609C16.3166 10.1853 16.0132 9.87091 15.6092 9.61627C15.2053 9.36163 14.6992 9.16987 14.0909 9.03941L12.4121 8.67789C12.0632 8.60401 11.7881 8.51756 11.5838 8.42011C11.3826 8.31951 11.238 8.20162 11.1515 8.06802C11.0666 7.93441 11.0242 7.77408 11.0242 7.58861C11.0242 7.34654 11.0902 7.14221 11.2223 6.97559C11.3543 6.80741 11.5413 6.68166 11.785 6.59678C12.0302 6.51033 12.3241 6.46632 12.6668 6.46632C13.0393 6.46632 13.3568 6.51819 13.6162 6.62036C13.8755 6.72095 14.0783 6.87185 14.2229 7.07305C14.3706 7.27267 14.4602 7.51945 14.4917 7.81338H16.4533C16.4109 7.1815 16.2395 6.64865 15.9378 6.21482C15.636 5.781 15.2131 5.45563 14.6709 5.23557C14.1239 5.01394 13.47 4.90234 12.7061 4.90234C11.8903 4.90234 11.2081 5.0218 10.658 5.26072C10.2037 5.45877 9.84533 5.72127 9.58126 6.04821C9.33134 5.7417 9.01383 5.4965 8.62873 5.31574C8.1226 5.07996 7.50802 4.96207 6.78497 4.96207C6.09494 4.96207 5.49764 5.0721 4.99466 5.29373C4.4901 5.51221 4.10343 5.81715 3.83779 6.20539C3.57215 6.59364 3.43854 7.03846 3.43854 7.53674C3.43854 7.8794 3.50613 8.19376 3.63974 8.48141C3.77334 8.76748 3.98082 9.01426 4.26061 9.22174C4.46495 9.37264 4.70701 9.4921 4.9868 9.58012C4.62999 9.64771 4.31877 9.76088 4.04998 9.92278C3.70418 10.1287 3.44169 10.399 3.26564 10.7338C3.08802 11.0686 3 11.4537 3 11.8876C3 12.477 3.1509 13.0004 3.45269 13.4563C3.75448 13.9105 4.18831 14.2642 4.75259 14.5188C5.31845 14.7735 5.98334 14.9008 6.74725 14.9008C7.53631 14.9008 8.21377 14.7656 8.77806 14.4952C9.13015 14.3271 9.43351 14.1117 9.68501 13.8524C9.96479 14.1321 10.3027 14.3569 10.7004 14.5267C11.2946 14.7766 12.0082 14.9023 12.8428 14.9023C13.7073 14.9023 14.4367 14.7766 15.0324 14.5235C15.6297 14.2705 16.0761 13.9184 16.3732 13.4641C16.6734 13.0083 16.8227 12.4786 16.8227 11.875C16.8227 11.3752 16.7205 10.9366 16.5178 10.5609ZM14.5876 12.6798C14.4492 12.87 14.2402 13.0161 13.9604 13.1183C13.6806 13.2189 13.3348 13.2692 12.9214 13.2692C12.475 13.2692 12.0962 13.2095 11.785 13.0884C11.4769 12.9658 11.2364 12.7757 11.0635 12.5179C10.8922 12.2617 10.7884 11.9332 10.7554 11.5323H10.5998V11.5308H8.73247C8.71204 11.9332 8.62716 12.2664 8.47784 12.5336C8.32537 12.7992 8.11003 12.9989 7.83024 13.1309C7.55046 13.2629 7.20622 13.3289 6.79755 13.3289C6.39987 13.3289 6.0635 13.2692 5.78843 13.1482C5.51336 13.0271 5.30588 12.8558 5.16441 12.6326C5.02295 12.4094 4.95379 12.1438 4.95379 11.8341C4.95379 11.5339 5.01981 11.2824 5.15184 11.0765C5.28387 10.869 5.47878 10.7118 5.73813 10.6065C5.99591 10.4996 6.31342 10.4462 6.69381 10.4462H7.54574V9.02212H6.81169C6.47218 9.02212 6.18768 8.97339 5.95976 8.87751C5.73185 8.77848 5.56209 8.63702 5.45049 8.45154C5.33574 8.26449 5.27916 8.03658 5.27916 7.77094C5.27916 7.4943 5.33889 7.26009 5.45677 7.0699C5.57466 6.87971 5.75071 6.73667 5.98334 6.64079C6.21597 6.54491 6.50362 6.49618 6.8447 6.49618C7.18265 6.49618 7.46086 6.54648 7.68249 6.64708C7.90412 6.74768 8.07545 6.90957 8.19491 7.13277C8.31594 7.3544 8.38824 7.64676 8.41339 8.01143H9.03898C9.07199 8.40439 9.17573 8.7439 9.35335 9.02841C9.57183 9.37735 9.8752 9.65714 10.2619 9.86619C10.6485 10.0737 11.1154 10.2371 11.6624 10.355L13.2986 10.7071C13.6555 10.7857 13.9431 10.88 14.16 10.9916C14.3785 11.1017 14.5388 11.2368 14.6394 11.3972C14.7416 11.5575 14.7935 11.754 14.7935 11.9835C14.795 12.257 14.7259 12.488 14.5876 12.6798Z" fill="#3C3C43" fill-opacity="0.6" style="fill:#3C3C43;fill:color(display-p3 0.2353 0.2353 0.2627);fill-opacity:0.6;"/>
</svg>
