<svg width="40" height="40" viewBox="0 0 40 40" fill="none" xmlns="http://www.w3.org/2000/svg">
<path d="M33.1717 21.1348C32.767 20.3877 32.16 19.7652 31.3351 19.2827C30.5258 18.7846 29.5141 18.4111 28.3001 18.1465L25.1405 17.4772C24.3156 17.306 23.6775 17.1037 23.2106 16.8858C22.7437 16.6523 22.4168 16.3877 22.2145 16.092C22.0277 15.7807 21.9188 15.4072 21.9188 14.9714C21.9188 14.4111 22.0588 13.9442 22.3546 13.5551C22.6503 13.1659 23.0705 12.8702 23.6308 12.6679C24.1911 12.4656 24.8448 12.3566 25.623 12.3566C26.4635 12.3566 27.1795 12.4811 27.7709 12.7146C28.3623 12.948 28.8293 13.306 29.1561 13.7574C29.483 14.2243 29.6853 14.7846 29.7476 15.4539H33.0627C32.9693 14.2087 32.6269 13.1504 32.0199 12.2788C31.4285 11.4072 30.588 10.7535 29.5141 10.3177C28.4402 9.86634 27.1795 9.64844 25.6853 9.64844C24.1289 9.64844 22.8059 9.8819 21.732 10.3488C20.6581 10.8158 19.8643 11.4694 19.3351 12.3099C19.3195 12.3255 19.3195 12.341 19.304 12.3566C18.8215 11.5317 18.09 10.878 17.1561 10.4422C16.1756 9.97529 14.9771 9.74182 13.5919 9.74182C12.269 9.74182 11.1172 9.95972 10.1367 10.3955C9.15611 10.8313 8.39347 11.4383 7.86428 12.2165C7.3351 12.9947 7.07051 13.8819 7.07051 14.8936C7.07051 15.5628 7.19502 16.1698 7.44405 16.7301C7.69308 17.2905 8.08218 17.773 8.62693 18.1932C9.04716 18.52 9.54522 18.7846 10.1211 18.9714C9.37401 19.1115 8.70475 19.3605 8.16 19.6873C7.47518 20.1076 6.96156 20.6368 6.63471 21.306C6.2923 21.9753 6.12109 22.7379 6.12109 23.6095C6.12109 24.7924 6.41681 25.8352 7.02382 26.7379C7.63082 27.6407 8.48685 28.3566 9.59191 28.8547C10.697 29.3527 12.0044 29.6017 13.483 29.6017C15.0083 29.6017 16.3312 29.3372 17.4363 28.808C18.2612 28.4033 18.946 27.8741 19.5063 27.2204C20.1133 27.9364 20.876 28.5123 21.8254 28.9014C22.9927 29.3994 24.3935 29.6484 26.0433 29.6484C27.7553 29.6484 29.2028 29.3994 30.3546 28.8858C31.5219 28.3722 32.3779 27.6718 32.9382 26.7846C33.4985 25.8975 33.7787 24.8702 33.7787 23.7185C33.7787 22.7535 33.5763 21.8819 33.1717 21.1348ZM29.9032 25.5084C29.5919 25.9442 29.125 26.2866 28.5024 26.52C27.8798 26.7535 27.1016 26.8624 26.1678 26.8624C25.1872 26.8624 24.3468 26.7224 23.6619 26.4578C22.9771 26.1776 22.4479 25.7574 22.0588 25.1815C21.6697 24.6056 21.4363 23.8586 21.374 22.9558H21.0316H17.7631C17.7164 23.8119 17.5297 24.5278 17.2028 25.1037C16.876 25.6796 16.3935 26.0998 15.7865 26.3955C15.1795 26.6757 14.4168 26.8158 13.5297 26.8158C12.6425 26.8158 11.911 26.6757 11.304 26.4266C10.697 26.1621 10.2456 25.7729 9.94989 25.2905C9.6386 24.7924 9.49853 24.2165 9.49853 23.5473C9.49853 22.9091 9.6386 22.3488 9.90319 21.913C10.1834 21.4617 10.588 21.1193 11.1328 20.8858C11.6775 20.6523 12.3623 20.5278 13.1872 20.5278H15.0238V17.9286H13.5919C12.8604 17.9286 12.2534 17.8196 11.7553 17.6173C11.2573 17.3994 10.8993 17.1037 10.6503 16.699C10.4012 16.2944 10.2923 15.8119 10.2923 15.236C10.2923 14.629 10.4168 14.1309 10.6814 13.7107C10.9304 13.306 11.3195 12.9947 11.8176 12.7768C12.3156 12.5589 12.9382 12.4656 13.6697 12.4656C14.4168 12.4656 15.0238 12.5745 15.5063 12.808C15.9888 13.0259 16.3623 13.3838 16.6114 13.8819C16.8604 14.3644 17.016 15.0025 17.0627 15.7963H18.5569C18.6191 16.5589 18.837 17.2126 19.195 17.773C19.6464 18.4578 20.2534 19.0025 21.0316 19.4072C21.8098 19.8119 22.7592 20.1387 23.8487 20.3722L26.8993 21.0259C27.7242 21.1971 28.3779 21.415 28.876 21.664C29.374 21.913 29.7476 22.2243 29.9655 22.5979C30.1989 22.9558 30.3079 23.4072 30.3079 23.9208C30.3701 24.5434 30.2145 25.0726 29.9032 25.5084Z" fill="black" style="fill:black;fill-opacity:1;"/>
<path d="M35.3968 9.94047C35.9088 9.94047 36.3402 10.1111 36.691 10.4525C37.0371 10.7938 37.2101 11.2109 37.2101 11.704C37.2101 12.1922 37.0371 12.607 36.691 12.9484C36.3402 13.2897 35.9088 13.4604 35.3968 13.4604C34.8896 13.4604 34.4606 13.2897 34.1098 12.9484C33.759 12.607 33.5836 12.1922 33.5836 11.704C33.5836 11.2109 33.759 10.7938 34.1098 10.4525C34.4606 10.1111 34.8896 9.94047 35.3968 9.94047ZM35.3968 13.0764C35.8045 13.0764 36.1411 12.946 36.4066 12.6853C36.672 12.4198 36.8048 12.0927 36.8048 11.704C36.8048 11.3105 36.672 10.981 36.4066 10.7156C36.1316 10.4501 35.795 10.3173 35.3968 10.3173C35.0034 10.3173 34.6691 10.4501 34.3942 10.7156C34.124 10.9763 33.9889 11.3058 33.9889 11.704C33.9889 12.0927 34.124 12.4174 34.3942 12.6782C34.6691 12.9436 35.0034 13.0764 35.3968 13.0764ZM36.1292 12.0951L36.1506 12.3439C36.1601 12.4577 36.1861 12.5407 36.2288 12.5928H35.795C35.7619 12.5454 35.7405 12.4625 35.731 12.3439L35.7168 12.152C35.7073 12.0619 35.686 12.0003 35.6528 11.9671C35.6244 11.9339 35.5699 11.9173 35.4893 11.9173H35.1053V12.5928H34.6928V10.7724H35.5177C35.7216 10.7724 35.8804 10.8198 35.9941 10.9147C36.1127 11.0047 36.1719 11.1327 36.1719 11.2986C36.1719 11.5025 36.0866 11.6423 35.9159 11.7182C36.0534 11.7846 36.1245 11.9102 36.1292 12.0951ZM35.1053 11.128V11.576H35.4964C35.6623 11.576 35.7453 11.5001 35.7453 11.3484C35.7453 11.2015 35.6576 11.128 35.4822 11.128H35.1053Z" fill="black" style="fill:black;fill-opacity:1;"/>
</svg>
