<svg width="246" height="246" viewBox="0 0 246 246" fill="none" xmlns="http://www.w3.org/2000/svg">
<path d="M204.006 129.977C201.517 125.383 197.784 121.554 192.711 118.587C187.733 115.523 181.511 113.226 174.045 111.599L154.614 107.483C149.541 106.43 145.616 105.186 142.745 103.846C139.873 102.41 137.863 100.783 136.619 98.9639C135.47 97.0496 134.8 94.7523 134.8 92.0721C134.8 88.6262 135.662 85.7546 137.48 83.3616C139.299 80.9686 141.883 79.1499 145.329 77.9056C148.775 76.6612 152.795 75.9912 157.581 75.9912C162.75 75.9912 167.153 76.7569 170.791 78.1927C174.428 79.6285 177.3 81.8301 179.31 84.606C181.32 87.4776 182.564 90.9235 182.947 95.0394H203.336C202.761 87.3818 200.655 80.8729 196.922 75.5126C193.285 70.1523 188.116 66.132 181.511 63.4519C174.907 60.676 167.153 59.3359 157.964 59.3359C148.392 59.3359 140.256 60.7717 133.652 63.6433C127.047 66.5149 122.165 70.5352 118.911 75.704C118.815 75.7997 118.815 75.8955 118.719 75.9912C115.752 70.918 111.253 66.8978 105.51 64.2176C99.4795 61.3461 92.1091 59.9103 83.59 59.9103C75.4539 59.9103 68.3706 61.2503 62.3402 63.9305C56.3099 66.6106 51.6196 70.3437 48.3652 75.1297C45.1107 79.9157 43.4834 85.3717 43.4834 91.5935C43.4834 95.7095 44.2492 99.4425 45.7807 102.888C47.3122 106.334 49.7052 109.302 53.0554 111.886C55.6399 113.896 58.7029 115.523 62.2445 116.672C57.65 117.534 53.534 119.065 50.1838 121.075C45.9722 123.66 42.8134 126.914 40.8033 131.03C38.6974 135.146 37.6445 139.836 37.6445 145.197C37.6445 152.471 39.4632 158.885 43.1963 164.436C46.9294 169.988 52.1939 174.391 58.9901 177.454C65.7862 180.517 73.8266 182.049 82.92 182.049C92.3006 182.049 100.437 180.422 107.233 177.167C112.306 174.678 116.518 171.424 119.964 167.404C123.697 171.807 128.387 175.348 134.226 177.741C141.405 180.804 150.02 182.336 160.166 182.336C170.695 182.336 179.597 180.804 186.68 177.646C193.859 174.487 199.124 170.18 202.57 164.723C206.016 159.267 207.739 152.95 207.739 145.867C207.739 139.932 206.494 134.572 204.006 129.977ZM183.904 156.874C181.99 159.555 179.118 161.66 175.29 163.096C171.461 164.532 166.675 165.202 160.932 165.202C154.901 165.202 149.732 164.341 145.521 162.713C141.309 160.99 138.055 158.406 135.662 154.864C133.269 151.323 131.833 146.728 131.45 141.176H129.344H109.243C108.956 146.441 107.807 150.844 105.797 154.386C103.787 157.927 100.82 160.512 97.0865 162.33C93.3535 164.053 88.6632 164.915 83.2072 164.915C77.7511 164.915 73.2523 164.053 69.5192 162.522C65.7862 160.895 63.0103 158.502 61.1916 155.534C59.2772 152.471 58.4157 148.93 58.4157 144.814C58.4157 140.889 59.2772 137.443 60.9045 134.763C62.6274 131.987 65.1161 129.881 68.4663 128.446C71.8165 127.01 76.0282 126.244 81.1013 126.244H92.3963V110.259H83.59C79.0912 110.259 75.3581 109.589 72.2951 108.344C69.2321 107.004 67.0305 105.186 65.499 102.697C63.9675 100.208 63.2974 97.241 63.2974 93.6994C63.2974 89.9663 64.0632 86.9032 65.6904 84.3188C67.222 81.8301 69.615 79.9157 72.678 78.5756C75.741 77.2355 79.5698 76.6612 84.0686 76.6612C88.6632 76.6612 92.3963 77.3313 95.3636 78.7671C98.3309 80.1071 100.628 82.3087 102.16 85.3717C103.691 88.339 104.648 92.2636 104.936 97.1453H114.125C114.508 101.836 115.848 105.856 118.049 109.302C120.825 113.513 124.558 116.864 129.344 119.352C134.13 121.841 139.969 123.851 146.669 125.287L165.43 129.307C170.504 130.36 174.524 131.7 177.587 133.232C180.65 134.763 182.947 136.678 184.287 138.975C185.723 141.176 186.393 143.952 186.393 147.111C186.776 150.94 185.819 154.194 183.904 156.874Z" fill="black" style="fill:black;fill-opacity:1;"/>
<path d="M217.467 57.8624C220.615 57.8624 223.268 58.912 225.426 61.0111C227.554 63.1102 228.618 65.6758 228.618 68.7079C228.618 71.7108 227.554 74.2619 225.426 76.361C223.268 78.4601 220.615 79.5097 217.467 79.5097C214.347 79.5097 211.709 78.4601 209.551 76.361C207.394 74.2619 206.315 71.7108 206.315 68.7079C206.315 65.6758 207.394 63.1102 209.551 61.0111C211.709 58.912 214.347 57.8624 217.467 57.8624ZM217.467 77.1482C219.974 77.1482 222.044 76.3464 223.677 74.7429C225.309 73.1103 226.126 71.0986 226.126 68.7079C226.126 66.2881 225.309 64.2618 223.677 62.6292C221.986 60.9965 219.916 60.1802 217.467 60.1802C215.047 60.1802 212.991 60.9965 211.3 62.6292C209.639 64.2327 208.808 66.2589 208.808 68.7079C208.808 71.0986 209.639 73.0957 211.3 74.6992C212.991 76.3318 215.047 77.1482 217.467 77.1482ZM221.971 71.1132L222.102 72.6438C222.161 73.3435 222.321 73.8537 222.583 74.1744H219.916C219.712 73.8829 219.58 73.3727 219.522 72.6438L219.435 71.463C219.376 70.9091 219.245 70.5301 219.041 70.326C218.866 70.1219 218.531 70.0199 218.035 70.0199H215.674V74.1744H213.137V62.979H218.21C219.464 62.979 220.44 63.2706 221.14 63.8537C221.869 64.4076 222.233 65.1948 222.233 66.2152C222.233 67.4688 221.709 68.3289 220.659 68.7954C221.505 69.2035 221.942 69.9761 221.971 71.1132ZM215.674 65.1656V67.9207H218.079C219.099 67.9207 219.61 67.4543 219.61 66.5213C219.61 65.6175 219.07 65.1656 217.991 65.1656H215.674Z" fill="black" style="fill:black;fill-opacity:1;"/>
</svg>
