<svg width="82" height="82" viewBox="0 0 82 82" fill="none" xmlns="http://www.w3.org/2000/svg">
<path d="M71.1145 81.354C76.7208 81.354 81.3483 76.7266 81.3483 71.1301C81.3483 65.5337 76.7109 60.9062 71.1046 60.9062C65.5082 60.9062 60.8906 65.5337 60.8906 71.1301C60.8906 76.7266 65.5181 81.354 71.1145 81.354ZM66.3289 71.14C66.3289 70.5566 66.7441 70.1512 67.3176 70.1512H70.1356V67.3333C70.1356 66.7598 70.5311 66.3544 71.0947 66.3544C71.6781 66.3544 72.0835 66.7598 72.0835 67.3333V70.1512H74.9114C75.475 70.1512 75.8903 70.5566 75.8903 71.14C75.8903 71.7036 75.475 72.109 74.9114 72.109H72.0835V74.927C72.0835 75.4906 71.6781 75.9059 71.0947 75.9059C70.5311 75.9059 70.1356 75.4906 70.1356 74.927V72.109H67.3176C66.7441 72.109 66.3289 71.7036 66.3289 71.14Z" fill="#007AFF" style="fill:#007AFF;fill:color(display-p3 0.0000 0.4784 1.0000);fill-opacity:1;"/>
</svg>
