<svg width="1520" height="993" viewBox="0 0 1520 993" fill="none" xmlns="http://www.w3.org/2000/svg">
<path d="M784.599 444.422H1136L860.608 469.451C839.029 471.413 819.857 481.501 806.165 496.644C819.857 511.787 839.029 521.876 860.608 523.837L1136 548.868H784.599L759.906 820.429L735.213 548.868H383.812L659.203 523.837C680.782 521.876 699.954 511.787 713.646 496.644C699.954 481.501 680.782 471.413 659.203 469.451L383.812 444.422H735.213L759.906 172.859L784.599 444.422Z" fill="black" style="fill:black;fill-opacity:1;"/>
<path d="M799.544 419.281C800.595 418.26 801.882 417.75 803.406 417.75C804.929 417.75 806.216 418.26 807.267 419.281C808.302 420.301 808.82 421.544 808.82 423.008C808.82 424.472 808.302 425.715 807.267 426.735C806.216 427.756 804.929 428.266 803.406 428.266C801.882 428.266 800.595 427.756 799.544 426.735C798.494 425.715 797.969 424.472 797.969 423.008C797.969 421.544 798.494 420.301 799.544 419.281ZM803.406 427.223C804.633 427.223 805.654 426.817 806.468 426.003C807.296 425.175 807.711 424.176 807.711 423.008C807.711 421.825 807.296 420.819 806.468 419.991C805.654 419.177 804.633 418.771 803.406 418.771C802.163 418.771 801.135 419.177 800.321 419.991C799.493 420.819 799.078 421.825 799.078 423.008C799.078 424.176 799.493 425.175 800.321 426.003C801.135 426.817 802.163 427.223 803.406 427.223ZM805.514 424.073L805.58 424.894C805.595 425.219 805.684 425.508 805.847 425.759H804.848C804.715 425.582 804.641 425.293 804.626 424.894L804.582 424.317C804.552 424.006 804.478 423.792 804.36 423.674C804.256 423.555 804.071 423.496 803.805 423.496H802.274V425.759H801.297V420.124H803.694C804.315 420.124 804.796 420.264 805.136 420.545C805.491 420.812 805.669 421.196 805.669 421.699C805.669 422.35 805.395 422.794 804.848 423.03C805.247 423.178 805.469 423.526 805.514 424.073ZM802.274 422.609H803.783C804.375 422.609 804.67 422.342 804.67 421.81C804.67 421.278 804.345 421.011 803.694 421.011H802.274V422.609Z" fill="black" style="fill:black;fill-opacity:1;"/>
</svg>
