<svg width="28" height="28" viewBox="0 0 28 28" fill="none" xmlns="http://www.w3.org/2000/svg">
<path d="M5.78223 10.5088H22.209C22.6484 10.5088 23.0088 10.1484 23.0088 9.70898C23.0088 9.26953 22.6484 8.91797 22.209 8.91797H5.78223C5.34277 8.91797 4.99121 9.26953 4.99121 9.70898C4.99121 10.1396 5.34277 10.5088 5.78223 10.5088ZM5.78223 14.4639H22.209C22.6484 14.4639 23.0088 14.1035 23.0088 13.6729C23.0088 13.2246 22.6484 12.8643 22.209 12.8643H5.78223C5.34277 12.8643 4.99121 13.2246 4.99121 13.6729C4.99121 14.1035 5.34277 14.4639 5.78223 14.4639ZM5.78223 18.4277H22.209C22.6484 18.4277 23.0088 18.0674 23.0088 17.6191C23.0088 17.1797 22.6484 16.8281 22.209 16.8281H5.78223C5.34277 16.8281 4.99121 17.1885 4.99121 17.6191C4.99121 18.0586 5.34277 18.4277 5.78223 18.4277Z" fill="black" style="fill:black;fill-opacity:1;"/>
</svg>
