<svg width="24" height="24" viewBox="0 0 24 24" fill="none" xmlns="http://www.w3.org/2000/svg">
<path d="M16.1656 14.0991C12.1804 14.0991 9.70187 11.7109 9.70187 7.84626C9.70187 6.76144 9.88267 5.78209 10.1614 5.24721C10.2895 4.9986 10.3271 4.84794 10.3271 4.6596C10.3271 4.34319 10.0635 4.01172 9.67174 4.01172C9.5738 4.01172 9.40053 4.04185 9.15946 4.13225C6.3344 5.28488 4.36816 8.23047 4.36816 11.4171C4.36816 15.9975 7.7055 19.3424 12.2859 19.3424C15.5554 19.3424 18.2524 17.5946 19.4879 14.762C19.5933 14.5285 19.6235 14.3326 19.6235 14.2121C19.6235 13.8278 19.3297 13.5868 19.0208 13.5868C18.8626 13.5868 18.7194 13.6094 18.501 13.7073C17.9209 13.9484 17.0319 14.0991 16.1656 14.0991ZM5.84473 11.3719C5.84473 9.24749 6.90695 7.19085 8.63965 6.02316C8.43624 6.62584 8.33078 7.29632 8.33078 8.02706C8.33078 12.6602 11.1784 15.4475 15.917 15.4475C16.5498 15.4475 17.0997 15.3722 17.6196 15.1914C16.5197 16.8638 14.5082 17.8733 12.3311 17.8733C8.57938 17.8733 5.84473 15.1311 5.84473 11.3719Z" fill="#3C3C43" fill-opacity="0.3" style="fill:#3C3C43;fill:color(display-p3 0.2353 0.2353 0.2627);fill-opacity:0.3;"/>
</svg>
