<svg width="114" height="43" viewBox="0 0 114 43" fill="none" xmlns="http://www.w3.org/2000/svg">
<path d="M7.03418 24.5586C8.35018 24.5586 9.48266 24.7563 10.4307 25.1523C11.3826 25.5483 12.1243 26.1324 12.6562 26.9043C13.1922 27.6763 13.5029 28.6204 13.5869 29.7363H10.7188C10.6588 29.1205 10.4767 28.6026 10.1729 28.1826C9.86885 27.7626 9.44625 27.4445 8.90625 27.2285C8.37037 27.0126 7.72264 26.9043 6.96289 26.9043C6.25889 26.9043 5.65253 26.9985 5.14453 27.1865C4.64066 27.3705 4.2543 27.6421 3.98633 28.002C3.71833 28.358 3.58496 28.7908 3.58496 29.2988C3.58502 29.6947 3.67269 30.0326 3.84863 30.3125C4.02864 30.5885 4.33091 30.8301 4.75488 31.0381C5.18288 31.2461 5.7706 31.4308 6.51855 31.5908L9.29688 32.1846C10.3808 32.4126 11.2848 32.7466 12.0088 33.1865C12.7327 33.6265 13.2767 34.177 13.6406 34.8369C14.0045 35.4928 14.1865 36.2645 14.1865 37.1523C14.1865 38.1723 13.9365 39.0763 13.4365 39.8643C12.9405 40.6523 12.1784 41.2745 11.1504 41.7305C10.1224 42.1824 8.84244 42.4082 7.31055 42.4082C5.84658 42.4082 4.59653 42.1862 3.56055 41.7422C2.52862 41.2982 1.72255 40.634 1.14258 39.75C0.56671 38.8661 0.232614 37.7642 0.140625 36.4443H3.0625C3.13048 37.2641 3.33867 37.936 3.68652 38.46C4.03848 38.9839 4.52464 39.372 5.14453 39.624C5.76453 39.872 6.52294 39.9961 7.41895 39.9961C8.2628 39.9961 8.96918 39.8907 9.53711 39.6787C10.1087 39.4628 10.5364 39.1546 10.8203 38.7549C11.1043 38.3549 11.2471 37.8744 11.2471 37.3145C11.2471 36.8425 11.1426 36.4404 10.9346 36.1084C10.7266 35.7764 10.3945 35.4947 9.93848 35.2627C9.48656 35.0307 8.88276 34.8348 8.12695 34.6748L5.44434 34.0986C4.45652 33.8907 3.61486 33.6042 2.91895 33.2402C2.22295 32.8762 1.67627 32.3902 1.28027 31.7822C0.888406 31.1743 0.692383 30.4241 0.692383 29.5322C0.692417 28.5405 0.930439 27.6726 1.40625 26.9287C1.88225 26.1847 2.59497 25.6045 3.54297 25.1885C4.49082 24.7686 5.65451 24.5586 7.03418 24.5586ZM21.585 29.2744C22.7967 29.2745 23.8726 29.5423 24.8125 30.0781C25.7525 30.6141 26.4848 31.3744 27.0088 32.3584C27.5368 33.3424 27.8008 34.4824 27.8008 35.7783C27.8008 37.0783 27.5386 38.2267 27.0146 39.2227C26.4907 40.2146 25.7583 40.9843 24.8184 41.5322C23.8785 42.0801 22.8008 42.3544 21.585 42.3545C20.361 42.3545 19.2788 42.0802 18.3389 41.5322C17.4029 40.9802 16.6762 40.206 16.1602 39.21C15.6483 38.2141 15.3926 37.0701 15.3926 35.7783C15.3926 34.4944 15.6566 33.3599 16.1846 32.376C16.7126 31.3922 17.445 30.6308 18.3809 30.0908C19.3208 29.5468 20.389 29.2744 21.585 29.2744ZM47.1709 29.2744C48.3827 29.2745 49.4586 29.5423 50.3984 30.0781C51.3384 30.6141 52.0707 31.3744 52.5947 32.3584C53.1227 33.3424 53.3867 34.4824 53.3867 35.7783C53.3867 37.0783 53.1246 38.2267 52.6006 39.2227C52.0766 40.2146 51.3443 40.9843 50.4043 41.5322C49.4644 42.0801 48.3867 42.3544 47.1709 42.3545C45.947 42.3545 44.8648 42.0802 43.9248 41.5322C42.9888 40.9802 42.2621 40.206 41.7461 39.21C41.2343 38.2141 40.9785 37.0701 40.9785 35.7783C40.9785 34.4944 41.2425 33.3599 41.7705 32.376C42.2985 31.3922 43.0309 30.6308 43.9668 30.0908C44.9068 29.5468 45.9749 29.2744 47.1709 29.2744ZM66.0068 29.2744C67.2186 29.2745 68.2945 29.5423 69.2344 30.0781C70.1744 30.6141 70.9067 31.3744 71.4307 32.3584C71.9586 33.3424 72.2226 34.4824 72.2227 35.7783C72.2227 37.0783 71.9605 38.2267 71.4365 39.2227C70.9125 40.2146 70.1802 40.9843 69.2402 41.5322C68.3004 42.0801 67.2226 42.3544 66.0068 42.3545C64.7829 42.3545 63.7007 42.0802 62.7607 41.5322C61.8247 40.9802 61.098 40.206 60.582 39.21C60.0702 38.2141 59.8145 37.0701 59.8145 35.7783C59.8145 34.4944 60.0785 33.3599 60.6064 32.376C61.1344 31.3922 61.8668 30.6308 62.8027 30.0908C63.7427 29.5468 64.8109 29.2744 66.0068 29.2744ZM90.1611 29.2861C91.1571 29.2861 92.0256 29.4261 92.7656 29.7061C93.5096 29.9821 94.1094 30.4028 94.5654 30.9668C95.0253 31.5268 95.3193 32.2247 95.4473 33.0605L92.7471 33.1865C92.6671 32.7546 92.5178 32.3963 92.2979 32.1123C92.0819 31.8283 91.787 31.6166 91.415 31.4766C91.0432 31.3367 90.5875 31.2666 90.0479 31.2666C89.5639 31.2666 89.1515 31.3207 88.8115 31.4287C88.4715 31.5367 88.2113 31.7009 88.0312 31.9209C87.8515 32.1368 87.7617 32.4085 87.7617 32.7363C87.7617 33.0603 87.8475 33.3243 88.0195 33.5283C88.1955 33.7323 88.4437 33.8965 88.7637 34.0205C89.0876 34.1405 89.5095 34.2488 90.0293 34.3447L91.4092 34.584C92.3652 34.756 93.1637 34.9883 93.8037 35.2803C94.4476 35.5683 94.9459 35.9601 95.2979 36.4561C95.6538 36.952 95.831 37.5724 95.8311 38.3164C95.8311 39.1643 95.609 39.892 95.165 40.5C94.7211 41.104 94.0876 41.5649 93.2637 41.8809C92.4397 42.1969 91.4611 42.3545 90.3291 42.3545C89.2293 42.3545 88.2934 42.2005 87.5215 41.8926C86.7535 41.5846 86.149 41.1266 85.709 40.5186C85.273 39.9066 85.0034 39.1462 84.8994 38.2383L87.5811 38.1182C87.6451 38.6342 87.7934 39.0549 88.0254 39.3789C88.2574 39.7027 88.5738 39.9427 88.9736 40.0986C89.3735 40.2505 89.8654 40.3262 90.4492 40.3262C91.0531 40.3262 91.557 40.2561 91.9609 40.1162C92.3688 39.9723 92.6712 39.7706 92.8672 39.5107C93.0672 39.2467 93.167 38.9342 93.167 38.5742C93.167 38.2463 93.0849 37.9747 92.9209 37.7588C92.7609 37.5388 92.5016 37.3541 92.1416 37.2061C91.7856 37.0541 91.2995 36.9225 90.6836 36.8105L89.2617 36.5703C88.3579 36.4143 87.6077 36.1885 87.0117 35.8926C86.4157 35.5966 85.9633 35.2104 85.6553 34.7344C85.3513 34.2584 85.1992 33.68 85.1992 33C85.1993 32.2322 85.3896 31.5705 85.7695 31.0146C86.1495 30.4587 86.7093 30.0323 87.4492 29.7363C88.1932 29.4364 89.0972 29.2862 90.1611 29.2861ZM32.4346 31.9268L32.3389 34.7051L34.0547 32.8506L37.3008 29.6162H40.792L35.9023 34.2744L41.1641 42H37.8105L35.2842 38.0645L34.0508 35.9355L32.4346 37.4365V42H29.5908V24.9121H32.4346V31.9268ZM58.0205 42H55.1768V24.9121H58.0205V42ZM77.7168 36.582C77.8968 37.186 78.0768 37.8045 78.2568 38.4365C78.3891 38.8909 78.513 39.3322 78.6309 39.7598C78.7595 39.2848 78.8887 38.8193 79.0195 38.3643C79.1955 37.7523 79.3709 37.1402 79.5469 36.5283L81.7617 29.6162H84.6172L80.0996 42H77.0576L72.377 29.6162H75.4014L77.7168 36.582ZM100.263 31.9268L100.167 34.7051L101.883 32.8506L105.129 29.6162H108.62L103.73 34.2744L108.992 42H105.639L103.112 38.0645L101.879 35.9355L100.263 37.4365V42H97.4189V24.9121H100.263V31.9268ZM113.278 42H110.435V29.6162H113.278V42ZM21.585 31.4883C20.8892 31.4883 20.2909 31.6583 19.791 31.998C19.295 32.334 18.9144 32.8247 18.6504 33.4688C18.3905 34.1087 18.2608 34.8785 18.2607 35.7783C18.2607 36.6743 18.3904 37.4505 18.6504 38.1064C18.9103 38.7623 19.2884 39.2662 19.7842 39.6182C20.2842 39.9662 20.885 40.1406 21.585 40.1406C22.2967 40.1406 22.9025 39.9642 23.4023 39.6123C23.9063 39.2563 24.287 38.7526 24.543 38.1006C24.803 37.4446 24.9326 36.6703 24.9326 35.7783C24.9326 34.8824 24.8001 34.1146 24.5361 33.4746C24.2761 32.8306 23.8965 32.338 23.3965 31.998C22.8966 31.6582 22.2927 31.4883 21.585 31.4883ZM47.1709 31.4883C46.4751 31.4883 45.8769 31.6583 45.377 31.998C44.881 32.334 44.5003 32.8247 44.2363 33.4688C43.9764 34.1087 43.8467 34.8785 43.8467 35.7783C43.8467 36.6743 43.9763 37.4505 44.2363 38.1064C44.4963 38.7623 44.8743 39.2662 45.3701 39.6182C45.8701 39.9662 46.4709 40.1406 47.1709 40.1406C47.8827 40.1406 48.4884 39.9642 48.9883 39.6123C49.4923 39.2563 49.8729 38.7526 50.1289 38.1006C50.3889 37.4446 50.5186 36.6703 50.5186 35.7783C50.5185 34.8824 50.3861 34.1146 50.1221 33.4746C49.8621 32.8306 49.4824 32.338 48.9824 31.998C48.4826 31.6582 47.8786 31.4883 47.1709 31.4883ZM66.0068 31.4883C65.3111 31.4883 64.7128 31.6583 64.2129 31.998C63.7169 32.334 63.3363 32.8247 63.0723 33.4688C62.8124 34.1087 62.6826 34.8785 62.6826 35.7783C62.6826 36.6743 62.8123 37.4505 63.0723 38.1064C63.3322 38.7623 63.7102 39.2662 64.2061 39.6182C64.7061 39.9662 65.3068 40.1406 66.0068 40.1406C66.7186 40.1406 67.3243 39.9642 67.8242 39.6123C68.3282 39.2563 68.7088 38.7526 68.9648 38.1006C69.2248 37.4446 69.3545 36.6703 69.3545 35.7783C69.3545 34.8824 69.222 34.1146 68.958 33.4746C68.698 32.8306 68.3184 32.338 67.8184 31.998C67.3185 31.6582 66.7146 31.4883 66.0068 31.4883ZM113.278 27.4746H110.435V24.9121H113.278V27.4746ZM33.6426 5.31055C34.4145 5.31055 35.1245 5.44679 35.7725 5.71875C36.4203 5.99068 36.9644 6.37431 37.4043 6.87012C37.5054 6.98304 37.5991 7.10123 37.6865 7.22266L37.7285 5.61621H40.3809V17.3828C40.3808 18.6946 40.127 19.7826 39.6191 20.6465C39.1151 21.5105 38.3903 22.1485 37.4463 22.5605C36.5024 22.9764 35.3603 23.1846 34.0205 23.1846C32.9566 23.1845 32.0367 23.0502 31.2607 22.7822C30.4848 22.5182 29.8625 22.104 29.3945 21.54C28.9267 20.9801 28.6308 20.2643 28.5068 19.3926L31.249 19.2969C31.357 19.7247 31.5372 20.0664 31.7891 20.3223C32.0411 20.5822 32.3611 20.7689 32.749 20.8809C33.141 20.9928 33.6132 21.0488 34.165 21.0488C35.0209 21.0488 35.6993 20.9229 36.1992 20.6709C36.7031 20.4229 37.0605 20.0562 37.2725 19.5723C37.4844 19.0923 37.5908 18.4803 37.5908 17.7363V16.3555C37.5389 16.4229 37.485 16.4896 37.4287 16.5547C36.9927 17.0546 36.4525 17.4465 35.8086 17.7305C35.1686 18.0144 34.4642 18.1562 33.6963 18.1562C32.5725 18.1562 31.5909 17.88 30.751 17.3281C29.911 16.7721 29.2645 15.996 28.8125 15C28.3606 14.0041 28.1348 12.8639 28.1348 11.5801C28.1348 10.3242 28.369 9.22232 28.8369 8.27441C29.3089 7.32646 29.961 6.59597 30.793 6.08398C31.6248 5.56816 32.5748 5.31057 33.6426 5.31055ZM7.02051 0.648438C8.24851 0.648438 9.30076 0.85832 10.1768 1.27832C11.0486 1.69825 11.7223 2.31234 12.1982 3.12012C12.6742 3.92812 12.9364 4.90855 12.9844 6.06055H10.1943C10.1543 5.3406 10.0191 4.7603 9.78711 4.32031C9.55511 3.88031 9.22018 3.55849 8.78418 3.35449C8.34832 3.15064 7.79468 3.04887 7.12305 3.04883C6.45905 3.04883 5.89838 3.14208 5.44238 3.33008C4.98645 3.51407 4.64214 3.79211 4.41016 4.16406C4.17821 4.53598 4.06255 4.99424 4.0625 5.53809C4.0625 6.05806 4.1726 6.49841 4.39258 6.8584C4.60858 7.2184 4.93881 7.49452 5.38281 7.68652C5.82269 7.87443 6.3725 7.96871 7.03223 7.96875H8.30469V10.2305H6.64258C5.90668 10.2305 5.29088 10.3387 4.79492 10.5547C4.29502 10.7706 3.92085 11.0824 3.67285 11.4902C3.42485 11.8942 3.30078 12.3868 3.30078 12.9668C3.30084 13.5746 3.4389 14.101 3.71484 14.5449C3.98681 14.9886 4.39477 15.3323 4.93848 15.5762C5.48248 15.8202 6.15508 15.9424 6.95508 15.9424C7.75866 15.9423 8.43833 15.8144 8.99414 15.5586C9.54613 15.3026 9.97246 14.9164 10.2725 14.4004C10.5724 13.8845 10.7403 13.2406 10.7764 12.4688H13.6025C13.5505 13.6926 13.2548 14.7469 12.7148 15.6309C12.1749 16.5147 11.4144 17.1921 10.4346 17.6641C9.45061 18.136 8.28073 18.372 6.9248 18.3721C5.60881 18.3721 4.45675 18.1482 3.46875 17.7002C2.47677 17.2522 1.71276 16.6244 1.17676 15.8164C0.640769 15.0084 0.373059 14.0765 0.373047 13.0205C0.373047 12.2485 0.525102 11.5666 0.829102 10.9746C1.1291 10.3826 1.58059 9.90031 2.18457 9.52832C2.68083 9.22268 3.27055 9.0061 3.95312 8.87598C3.42836 8.69272 2.98208 8.45683 2.61621 8.16602C2.14444 7.7941 1.79619 7.3601 1.57227 6.86426C1.34837 6.36437 1.23634 5.8184 1.23633 5.22656C1.23633 4.33068 1.4706 3.53666 1.93848 2.84473C2.40648 2.15273 3.07908 1.61447 3.95508 1.23047C4.82697 0.84259 5.84872 0.64845 7.02051 0.648438ZM48.2715 5.29199C49.5155 5.29199 50.5836 5.56254 51.4756 6.10254C52.3675 6.64251 53.0476 7.39633 53.5156 8.36426C53.9876 9.32826 54.2236 10.4449 54.2236 11.7129V12.498H44.9893C45.0255 13.2224 45.1568 13.8407 45.3857 14.3525C45.6617 14.9605 46.0536 15.4149 46.5615 15.7148C47.0695 16.0108 47.6778 16.1582 48.3857 16.1582C48.8815 16.1582 49.3193 16.0863 49.6992 15.9424C50.0792 15.7984 50.4057 15.5866 50.6777 15.3066C50.9537 15.0227 51.1776 14.6746 51.3496 14.2627L54.002 14.5146C53.722 15.3186 53.3133 16.0062 52.7773 16.5781C52.2414 17.1501 51.5958 17.5867 50.8398 17.8867C50.0838 18.1867 49.2433 18.3369 48.3193 18.3369C47.0596 18.3369 45.9678 18.0606 45.0439 17.5088C44.1199 16.9568 43.4119 16.1862 42.9199 15.1982C42.4279 14.2063 42.1816 13.0663 42.1816 11.7783C42.1817 10.4984 42.4261 9.3705 42.9141 8.39453C43.406 7.41464 44.1095 6.65237 45.0254 6.1084C45.9454 5.56442 47.0275 5.29201 48.2715 5.29199ZM75.0059 5.29199C76.2499 5.29199 77.318 5.56254 78.21 6.10254C79.1019 6.64251 79.782 7.39633 80.25 8.36426C80.722 9.32826 80.958 10.4449 80.958 11.7129V12.498H71.7236C71.7599 13.2224 71.8911 13.8407 72.1201 14.3525C72.3961 14.9605 72.7879 15.4149 73.2959 15.7148C73.8039 16.0108 74.4122 16.1582 75.1201 16.1582C75.6159 16.1582 76.0537 16.0863 76.4336 15.9424C76.8136 15.7984 77.1401 15.5866 77.4121 15.3066C77.6881 15.0227 77.912 14.6746 78.084 14.2627L80.7363 14.5146C80.4563 15.3186 80.0477 16.0062 79.5117 16.5781C78.9757 17.1501 78.3302 17.5867 77.5742 17.8867C76.8182 18.1867 75.9777 18.3369 75.0537 18.3369C73.794 18.3369 72.7022 18.0606 71.7783 17.5088C70.8543 16.9568 70.1463 16.1862 69.6543 15.1982C69.1623 14.2063 68.916 13.0663 68.916 11.7783C68.916 10.4984 69.1605 9.3705 69.6484 8.39453C70.1404 7.41464 70.8439 6.65237 71.7598 6.1084C72.6797 5.56442 73.7619 5.29201 75.0059 5.29199ZM18.0908 13.4883C18.0908 14.0163 18.1748 14.4603 18.3428 14.8203C18.5108 15.1803 18.7608 15.4527 19.0928 15.6367C19.4287 15.8206 19.8468 15.9121 20.3467 15.9121C20.9066 15.9121 21.4207 15.7946 21.8887 15.5586C22.3605 15.3227 22.7422 14.9446 23.0342 14.4248C23.2932 13.9698 23.4393 13.4041 23.4717 12.7285L23.4785 12.4326V5.61621H26.3223V18H23.6885L23.6357 16.2969C23.401 16.6537 23.1245 16.9655 22.8066 17.2324C22.3866 17.5884 21.9025 17.858 21.3545 18.042C20.8065 18.23 20.2085 18.3242 19.5605 18.3242C18.6726 18.3242 17.9048 18.16 17.2568 17.832C16.6089 17.5001 16.1107 17.0186 15.7627 16.3867C15.4187 15.7548 15.2471 14.9925 15.2471 14.1006V5.61621H18.0908V13.4883ZM62.79 5.29199C63.6779 5.29201 64.4458 5.45815 65.0938 5.79004C65.7418 6.11804 66.238 6.59847 66.582 7.23047C66.93 7.86245 67.1035 8.62464 67.1035 9.5166V18H64.2598V10.1289C64.2598 9.60107 64.1757 9.15682 64.0078 8.79688C63.8398 8.4369 63.5879 8.16447 63.252 7.98047C62.92 7.79647 62.5039 7.70411 62.0039 7.7041C61.4439 7.7041 60.928 7.82262 60.4561 8.05859C59.9881 8.29459 59.6056 8.67238 59.3096 9.19238C59.054 9.64747 58.9108 10.213 58.8789 10.8887L58.8721 11.1846V18H56.0283V5.61621H58.6621L58.7139 7.32129C58.948 6.96396 59.2229 6.65196 59.5381 6.38477C59.9621 6.02877 60.4481 5.75822 60.9961 5.57422C61.544 5.38628 62.1421 5.29199 62.79 5.29199ZM34.2549 7.60254C33.5869 7.60254 33.0085 7.75273 32.5205 8.05273C32.0327 8.35273 31.6565 8.79875 31.3926 9.39062C31.1326 9.98258 31.0029 10.7066 31.0029 11.5625C31.0029 12.4385 31.1307 13.1969 31.3867 13.8369C31.6467 14.4727 32.019 14.9627 32.5029 15.3066C32.9869 15.6465 33.5588 15.8164 34.2188 15.8164C34.8826 15.8164 35.4724 15.6465 35.9883 15.3066C36.5082 14.9627 36.9132 14.4728 37.2012 13.8369C37.4931 13.197 37.6386 12.4506 37.6387 11.5986C37.6387 10.7508 37.4949 10.0267 37.207 9.42676C36.923 8.82676 36.5266 8.37245 36.0186 8.06445C35.5106 7.75653 34.9228 7.60256 34.2549 7.60254ZM48.2773 7.4707C47.6095 7.47074 47.0272 7.6181 46.5312 7.91406C46.0394 8.20999 45.6577 8.65622 45.3857 9.25195C45.1995 9.65721 45.0783 10.1296 45.0195 10.668H51.4707C51.408 10.1693 51.2953 9.72567 51.1338 9.33691C50.8818 8.71691 50.5133 8.25048 50.0293 7.93848C49.5493 7.62657 48.9652 7.4707 48.2773 7.4707ZM75.0117 7.4707C74.3438 7.47074 73.7616 7.6181 73.2656 7.91406C72.7738 8.20999 72.3921 8.65622 72.1201 9.25195C71.9339 9.65721 71.8126 10.1296 71.7539 10.668H78.2051C78.1423 10.1693 78.0297 9.72567 77.8682 9.33691C77.6162 8.71691 77.2477 8.25048 76.7637 7.93848C76.2837 7.62657 75.6996 7.4707 75.0117 7.4707Z" fill="black" style="fill:black;fill-opacity:1;"/>
</svg>
