<svg width="40" height="40" viewBox="0 0 40 40" fill="none" xmlns="http://www.w3.org/2000/svg">
<g clip-path="url(#clip0_36583_53954)">
<path d="M39.9242 19.2387C39.8969 19.2757 39.8467 19.3123 39.8459 19.3497C39.8362 19.7968 39.8085 20.2454 39.8346 20.691C39.8919 21.679 39.7847 22.6421 39.4723 23.583C39.4825 23.0958 39.6324 22.6067 39.4018 22.1179C39.3516 22.5183 39.2865 22.9171 39.2542 23.3186C39.1934 24.0714 39.23 24.8347 38.9862 25.5661C38.948 25.681 38.9367 25.8052 38.9032 25.9739C38.874 25.8933 38.8615 25.8582 38.8405 25.8006C38.8214 25.8714 38.7996 25.9236 38.7934 25.9778C38.7618 26.257 38.7731 26.5479 38.6956 26.8135C38.5865 27.187 38.4128 27.5414 38.2671 27.904C38.2484 27.8978 38.2297 27.8915 38.211 27.8857C38.2192 27.8409 38.2305 27.7965 38.2352 27.7517C38.2605 27.4974 38.2843 27.2427 38.3053 27.0227C38.3481 26.9907 38.398 26.9732 38.4054 26.9444C38.4494 26.7758 38.488 26.6052 38.5199 26.4342C38.5546 26.25 38.5912 26.0654 38.6072 25.8788C38.6309 25.5981 38.6395 25.3161 38.6504 25.0341C38.6555 24.9005 38.6512 24.7666 38.6512 24.6042C38.8316 24.802 38.8288 24.802 38.8203 25.0999C38.8152 25.2779 38.8195 25.4563 38.8413 25.6374C38.8997 25.357 38.9823 25.0793 39.0127 24.7958C39.1334 23.6687 39.241 22.5401 39.3454 21.4114C39.3609 21.2413 39.3337 21.0672 39.2858 20.8931C39.2332 20.9939 39.181 21.0948 39.1284 21.1961C39.1031 21.1926 39.0781 21.1887 39.0528 21.1852C39.045 20.8043 39.0984 20.4203 38.9952 20.0445C38.8935 19.6737 38.8331 19.2913 38.7505 18.8948C38.6594 19.0424 38.5854 19.1639 38.5098 19.2843C38.4965 19.3057 38.4728 19.3423 38.4611 19.3396C38.19 19.2769 38.3076 19.493 38.2702 19.5993C38.2418 19.6796 38.204 19.7567 38.1682 19.8342C38.1168 19.9448 38.056 20.0519 38.0127 20.1656C37.9161 20.4195 37.846 20.6855 37.7288 20.9293C37.6629 21.0656 37.5165 21.161 37.421 21.286C37.3712 21.3515 37.3244 21.4414 37.3244 21.5205C37.3256 22.146 37.1445 22.7367 36.9957 23.3338C36.9454 23.5351 36.8695 23.7291 36.6556 23.8416C36.6303 23.8046 36.5941 23.7758 36.5909 23.7435C36.5473 23.3131 36.5103 22.8824 36.4671 22.4521C36.4367 22.1502 36.4285 21.8422 36.358 21.5497C36.247 21.087 36.1484 20.629 36.1819 20.1481C36.1944 19.9693 36.1671 19.7855 36.1395 19.6067C36.1239 19.5055 36.0709 19.41 36.0246 19.2846C35.9533 19.3828 35.9128 19.447 35.8637 19.5039C35.7456 19.6414 35.6568 19.6375 35.5606 19.4918C35.4928 19.3898 35.4083 19.2909 35.374 19.1775C35.3553 19.1164 35.4262 19.0284 35.4683 18.9232C35.3518 18.8621 35.1609 18.8212 35.0788 18.6206C35.016 18.4684 34.9054 18.3356 34.8139 18.195C34.7247 18.0583 34.595 18.04 34.4411 18.0477C34.115 18.0641 33.7765 18.1167 33.4649 18.0509C33.2339 18.0022 33.0177 17.8663 32.7626 17.8655C32.7248 17.8655 32.6769 17.7603 32.6512 17.6965C32.5588 17.4694 32.4965 17.4363 32.2538 17.4869C31.9309 17.5539 31.6672 17.4753 31.3945 17.2614C31.1355 17.0578 30.9937 16.777 30.7744 16.5534C30.7288 16.5071 30.6918 16.4389 30.6369 16.4191C30.5453 16.3863 30.4324 16.3544 30.3486 16.3821C30.303 16.3972 30.2641 16.5449 30.282 16.6181C30.3389 16.8498 30.4176 17.0772 30.5029 17.3004C30.5208 17.3471 30.5983 17.3845 30.6556 17.4001C30.8496 17.4527 30.9621 17.557 30.9388 17.7728C30.9349 17.8098 30.9497 17.8491 30.9618 17.9216C31.1904 17.948 31.4253 17.9726 31.6594 18.0049C31.7015 18.0107 31.7389 18.0505 31.7786 18.0746C31.7361 18.1027 31.6964 18.1408 31.6497 18.1552C31.6173 18.1654 31.5729 18.1299 31.5375 18.1362C31.4498 18.1513 31.3641 18.179 31.2777 18.2016C31.308 18.2814 31.3236 18.3722 31.3727 18.438C31.4385 18.5264 31.5164 18.4987 31.5772 18.4142C31.6551 18.306 31.742 18.2876 31.8776 18.3352C32.1436 18.4286 32.1884 18.3877 32.2087 18.105C32.218 17.9741 32.2176 17.839 32.4116 17.7966C32.4759 18.0263 32.5409 18.2577 32.6056 18.4886C32.6235 18.4874 32.641 18.4859 32.659 18.4847C32.6726 18.4212 32.6866 18.3581 32.7003 18.2954C32.9102 18.3079 32.9184 18.3215 32.8864 18.6253C33.0758 18.6495 33.1696 18.7651 33.1872 18.9587C33.1907 18.9988 33.2721 19.0276 33.306 19.0704C33.3469 19.1219 33.3925 19.1803 33.4014 19.241C33.4057 19.2702 33.327 19.3076 33.2931 19.3477C33.2522 19.396 33.1946 19.4478 33.1876 19.5035C33.1716 19.6305 33.1825 19.7609 33.1825 19.9117C32.9866 19.8303 32.9422 19.9315 32.9083 20.0702C32.881 20.1823 32.9083 20.3521 32.7038 20.3311C32.6309 20.5449 32.4751 20.6575 32.2686 20.7389C32.2164 20.7595 32.2176 20.9153 32.1919 21.0193C31.906 21.0664 31.518 20.9098 31.4249 21.3254C31.2975 21.4009 31.2005 21.4636 31.0985 21.517C31.0015 21.5672 30.9033 21.6237 30.7985 21.649C30.5383 21.7117 30.2949 21.79 30.1932 22.056C30.0685 22.0431 29.9614 22.0373 29.8562 22.0202C29.6938 21.9941 29.5785 22.0607 29.4936 22.1911C29.3798 22.3664 29.2229 22.4049 29.0378 22.3294C28.8497 22.2527 28.778 22.1043 28.8111 21.9057C28.8999 21.3752 28.6795 20.9087 28.42 20.4943C28.2288 20.189 28.0878 19.8205 27.7415 19.6137C27.6729 19.5728 27.6612 19.3921 27.6674 19.2784C27.6838 18.984 27.417 18.5061 27.1583 18.3663C27.094 18.3317 27.0333 18.2281 27.0302 18.1537C27.0126 17.7576 26.8268 17.441 26.588 17.1458C26.5195 17.0609 26.442 16.983 26.3687 16.902C26.1775 17.0897 26.0707 17.0823 25.9266 16.8603C25.7981 16.6629 25.6387 16.4841 25.6411 16.2165C25.6422 16.1013 25.5807 15.9494 25.3992 15.9459C25.3606 15.9451 25.3228 15.91 25.2847 15.891C25.2889 15.8754 25.2932 15.8602 25.2975 15.8446C25.428 15.873 25.5581 15.9038 25.689 15.9295C25.747 15.9412 25.807 15.9482 25.8666 15.9486C26.1771 15.9513 26.2881 15.7558 26.3329 15.4855C26.3422 15.4299 26.3948 15.3796 26.4318 15.3302C26.5779 15.1354 26.6963 14.9419 26.6013 14.6755C26.5658 14.5754 26.6079 14.4488 26.6087 14.3343C26.6095 14.2058 26.6765 14.0193 26.4135 14.1038C26.3765 14.1158 26.322 14.0637 26.2729 14.0512C26.1977 14.0317 26.1202 14.0212 26.0263 14.0033V14.2588C25.7805 14.2868 25.5573 14.293 25.3781 14.0905C25.331 14.0372 25.2504 13.9939 25.1814 13.9873C25.137 13.9834 25.0727 14.0465 25.0408 14.0952C25.0038 14.1521 24.9835 14.2845 24.9707 14.2825C24.8538 14.2654 24.7261 14.2483 24.6298 14.1871C24.5488 14.1357 24.5056 14.0255 24.4452 13.941C24.4214 13.9566 24.3977 13.9721 24.3739 13.9877C24.3474 14.1104 24.3209 14.2335 24.2941 14.3561C24.268 14.3573 24.2422 14.3581 24.2162 14.3592C24.2033 14.2755 24.1577 14.1789 24.1842 14.1104C24.231 13.9904 24.1663 13.9406 24.1114 13.858C24.037 13.7455 23.9961 13.6099 23.945 13.4822C23.9127 13.4008 23.8983 13.3108 23.8574 13.2345C23.8056 13.1379 23.6552 13.0764 23.7849 12.9253C23.799 12.9089 23.6801 12.7574 23.6034 12.692C23.5481 12.6449 23.4608 12.6351 23.3864 12.6118C23.1383 12.5343 23.1071 12.5526 23.0608 12.8306C22.9572 12.8011 22.8582 12.7687 22.7569 12.7465C22.7176 12.738 22.6736 12.7524 22.6315 12.7563C22.6374 12.7987 22.6319 12.8723 22.651 12.8793C22.8633 12.9568 22.9225 13.1547 23.0187 13.3245C23.0323 13.3482 23.0709 13.358 23.1122 13.3829C23.1457 13.3241 23.1757 13.2715 23.217 13.1987C23.2793 13.2524 23.3381 13.3034 23.3638 13.3256C23.3027 13.4176 23.2696 13.4947 23.2123 13.5437C23.1617 13.5874 23.0705 13.6368 23.0207 13.6189C22.8777 13.5679 22.8204 13.5741 22.8236 13.749C22.8267 13.9164 22.7083 14.0033 22.5528 13.9593C22.5014 13.9449 22.4403 13.8798 22.4274 13.8273C22.3896 13.6723 22.353 13.5663 22.1446 13.5862C21.9868 13.6014 21.9163 13.4549 21.8746 13.2886C21.9642 13.3081 22.0332 13.3233 22.1165 13.3412C22.1181 13.1948 22.0979 13.0924 21.9561 13.0495C21.9101 13.0355 21.8419 12.9993 21.8357 12.9638C21.8002 12.7652 21.6129 12.5997 21.7212 12.3641C21.7469 12.308 21.69 12.1721 21.63 12.1257C21.4076 11.9536 21.1649 11.8076 20.9366 11.6428C20.8326 11.5677 20.7485 11.4652 20.6476 11.385C20.5031 11.2697 20.3508 11.1646 20.2035 11.0524C20.1696 11.0267 20.1299 10.9967 20.1151 10.9597C20.0649 10.8363 19.9819 10.8359 19.9098 10.8666C19.8639 11.0279 19.8245 11.1654 19.8031 11.2401C19.9036 11.3558 19.971 11.4465 20.0516 11.5233C20.1973 11.6615 20.3862 11.7597 20.4439 11.9766C20.4517 12.0066 20.5004 12.028 20.5335 12.0482C20.7664 12.1923 20.9955 12.3442 21.2362 12.4747C21.3881 12.5573 21.4656 12.6554 21.4123 12.8408C21.2635 12.7925 21.1053 12.6484 20.9347 12.8739C21.0247 12.8918 21.0948 12.9058 21.2035 12.9276C21.1824 12.9934 21.1797 13.0744 21.138 13.1204C21.0169 13.2552 20.8774 13.3728 20.7508 13.5028C20.6694 13.5866 20.5985 13.68 20.5405 13.786C20.2051 13.9129 19.9706 13.719 19.7248 13.4491C20.0828 13.3922 20.419 13.3389 20.8143 13.2762C20.7072 13.1083 20.6488 12.967 20.5483 12.8684C20.3169 12.6425 20.0727 12.4276 19.8191 12.2266C19.5382 12.0046 19.2702 11.7807 19.1004 11.4528C18.9874 11.2347 18.8904 11.2265 18.6758 11.3581C18.638 11.3811 18.5916 11.4103 18.5519 11.4068C18.3887 11.3928 18.3038 11.4637 18.2107 11.5996C18.1682 11.6615 17.9715 11.6335 17.8476 11.6191C17.7413 11.6066 17.6416 11.5462 17.5352 11.5244C17.3654 11.4898 17.2789 11.5774 17.2629 11.7429C17.2586 11.7881 17.2571 11.834 17.2602 11.8788C17.2731 12.0662 17.2166 12.1845 17.0047 12.2161C16.8465 12.2395 16.6958 12.3107 16.5415 12.359C16.3167 12.4295 16.2373 12.6301 16.1457 12.8139C16.1286 12.8482 16.1683 12.9179 16.1937 12.965C16.2673 13.1013 16.2194 13.2485 16.0729 13.2579C15.6873 13.2828 15.3717 13.4748 15.0469 13.6512C14.8825 13.7408 14.7122 13.8191 14.5319 13.909C14.4384 13.7163 14.3188 13.5846 14.0715 13.6193C13.9503 13.636 13.8148 13.5788 13.6913 13.5383C13.6535 13.5258 13.6001 13.4429 13.6114 13.4191C13.6944 13.2431 13.7026 13.0651 13.6718 12.877C13.6648 12.8338 13.7014 12.7781 13.7291 12.7356C13.8751 12.5113 13.9355 12.2726 13.9176 12.0007C13.9055 11.82 13.9546 11.6354 13.9799 11.4232C14.4041 11.2654 14.8544 11.3079 15.3032 11.4824C15.4173 11.5268 15.5373 11.5731 15.6573 11.5809C15.7963 11.5902 15.9225 11.5412 15.9743 11.3823C16.0203 11.2409 16.0752 11.1015 16.1344 10.9648C16.2011 10.8117 16.24 10.675 16.0632 10.5598C16.025 10.5348 16.016 10.4456 16.0152 10.3861C16.0117 10.0854 15.9506 10.0098 15.6682 9.91872C15.5836 9.89146 15.5151 9.81395 15.4247 9.7493C15.5505 9.613 15.6713 9.57639 15.8197 9.61767C15.9475 9.65311 16.0768 9.68388 16.24 9.72555C16.2525 9.54835 16.2626 9.40581 16.2723 9.26716C16.4005 9.31662 16.4979 9.35907 16.5984 9.39179C16.6977 9.42411 16.7686 9.421 16.827 9.29559C16.8566 9.23172 16.9977 9.21965 17.1122 9.17525C17.1784 8.78152 17.6116 8.83059 17.8807 8.58523C17.8663 8.53928 17.8402 8.45477 17.8137 8.36987C17.8204 8.36169 17.8297 8.34261 17.8359 8.34338C18.0716 8.38116 18.2481 8.25809 18.4331 8.14048C18.5075 8.09297 18.615 8.08985 18.7089 8.08245C18.8296 8.0731 18.9512 8.08011 19.0984 8.08011C19.0735 7.82152 19.0622 7.58863 19.0248 7.36041C19.0049 7.23851 18.9808 7.15672 19.1078 7.06287C19.25 6.95771 19.352 6.79882 19.5094 6.62045C19.5721 6.88722 19.622 7.09831 19.6726 7.31484C19.6632 7.3164 19.6816 7.31484 19.6991 7.31017C19.805 7.28252 19.911 7.25448 20.0169 7.22644C20.0072 7.34483 20.0127 7.4679 19.9803 7.58006C19.9679 7.6229 19.8681 7.66496 19.8089 7.66379C19.7217 7.66223 19.636 7.61277 19.5472 7.60304C19.5117 7.59914 19.4704 7.64665 19.4319 7.6708C19.4996 7.75025 19.56 7.83865 19.6391 7.90408C19.6679 7.92823 19.7824 7.91031 19.7883 7.89045C19.828 7.75804 19.9274 7.78608 20.0212 7.77985C20.1097 7.77401 20.1969 7.75336 20.2814 7.74012C20.3796 7.97847 20.4139 7.99288 20.6616 7.90837C20.6799 7.90213 20.6994 7.89746 20.7169 7.89006C20.8778 7.82113 21.036 7.70663 21.2004 7.6965C21.3433 7.68794 21.4933 7.79776 21.6553 7.86124C21.6277 7.79542 21.602 7.73467 21.5638 7.64315H22.0009C22.0472 7.33938 21.9962 6.9951 22.2673 6.73845C22.4852 6.96563 22.6762 6.97057 22.8403 6.75325C22.7542 6.6629 22.6635 6.56748 22.5676 6.46662C22.4122 6.6259 22.2833 6.68782 22.1329 6.58111C22.1138 6.56748 22.1123 6.48336 22.1286 6.47285C22.2225 6.41287 22.2599 6.15544 22.4329 6.38561C22.531 6.23139 22.7772 6.15544 22.9965 6.20412C23.0725 6.22087 23.1465 6.25047 23.2228 6.25943C23.2781 6.26605 23.3779 6.26332 23.3864 6.23956C23.4624 6.0277 23.6513 6.02186 23.8293 5.98292C23.5329 5.86569 23.2462 5.7582 22.9334 5.91281C22.6744 6.04055 22.1571 5.92528 21.9697 5.70952C21.8326 5.55179 21.8902 5.07744 22.0425 4.92945C22.2069 4.76977 22.3573 4.59335 22.4928 4.40875C22.5139 4.38032 22.436 4.25336 22.3775 4.20078C22.323 4.15132 22.2334 4.14159 22.1602 4.11199C22.0538 4.06837 21.9705 4.07032 21.9455 4.20818C21.9409 4.2335 21.9257 4.25842 21.9261 4.28335C21.9323 4.68916 21.6078 4.82079 21.3328 4.98202C21.0874 5.12573 21.0025 5.53427 21.1863 5.76638C21.2198 5.80844 21.2296 5.8692 21.2393 5.89334C21.3277 5.94163 21.3955 5.97902 21.4633 6.01641C21.4076 6.11221 21.3694 6.27111 21.2927 6.29292C20.9678 6.38483 21.0496 6.6777 20.9351 6.8919C21.0227 6.91215 21.0878 6.92734 21.1497 6.94175C21.1524 6.9581 21.1556 6.9694 21.154 6.97018C20.9846 7.04339 20.9183 7.28369 20.6721 7.24747C20.6013 7.23695 20.5144 7.33315 20.4349 7.38066C20.4435 7.4013 20.4521 7.42155 20.4602 7.44219C20.3967 7.44219 20.3329 7.44024 20.2694 7.44258C20.1295 7.44803 20.0715 7.39585 20.1323 7.25526C20.1424 7.23189 20.1599 7.19917 20.1513 7.18282C20.0688 7.02314 19.9811 6.86619 19.8958 6.70808C19.8701 6.66017 19.8374 6.61266 19.8253 6.56086C19.7883 6.40313 19.7599 6.24307 19.7217 6.05302C19.5047 6.21113 19.3345 6.33615 19.1635 6.4596C18.9555 6.60993 18.7782 6.45532 18.5971 6.38833C18.5815 6.38249 18.6162 6.24112 18.6298 6.14376C18.6021 6.13208 18.5515 6.11066 18.4826 6.08106C18.5336 5.99109 18.5827 5.90386 18.6438 5.79637C18.5815 5.78079 18.5239 5.76638 18.4627 5.75119C18.5722 5.34071 18.7813 5.02525 19.2176 4.90063C19.2803 4.88271 19.3232 4.79665 19.3828 4.73433C19.576 4.75108 19.842 4.61243 19.9823 4.40291C19.9406 4.38149 19.9005 4.36085 19.8436 4.33125C19.8791 4.30399 19.9001 4.27867 19.9266 4.26894C20.098 4.20507 20.2253 4.10537 20.2861 3.9196C20.3095 3.84794 20.3948 3.79731 20.4486 3.73383C20.5136 3.65711 20.5701 3.5726 20.6394 3.50016C20.706 3.43084 20.7847 3.37242 20.8494 3.2622C20.6749 3.314 20.5004 3.3658 20.3259 3.4176C20.32 3.40981 20.3138 3.40202 20.3079 3.39423C20.4723 3.27895 20.6367 3.16406 20.7875 3.05852C20.8486 3.1072 20.9086 3.15511 20.969 3.20301C20.9814 3.19132 20.9943 3.17925 21.0068 3.16757C20.9881 3.1185 20.9698 3.06943 20.9417 2.99582C21.0948 2.98569 21.3324 3.05385 21.1641 2.69906C21.318 2.78357 21.4099 2.8342 21.5015 2.88444C21.4999 2.86808 21.4984 2.85172 21.4968 2.83498C21.607 2.82602 21.7169 2.81745 21.8369 2.80771C21.7788 2.76721 21.7192 2.72515 21.6596 2.68309C21.6643 2.65894 21.669 2.6348 21.6736 2.61026C21.7679 2.61494 21.8626 2.61961 21.9568 2.62389C22.0589 2.59274 22.1493 2.44786 22.3016 2.60286C22.3164 2.61805 22.3666 2.61961 22.3853 2.60637C22.5189 2.51056 22.593 2.54483 22.5992 2.65505C22.7149 2.66712 22.8115 2.65855 22.8909 2.69166C22.9443 2.71347 22.9735 2.79408 23.0004 2.86068C23.1551 3.0075 23.478 2.81667 23.5415 3.14576C23.6069 3.1259 23.6692 3.08384 23.7152 3.09747C23.9902 3.17964 24.2625 3.27155 24.5336 3.36619C24.668 3.41292 24.8059 3.45849 24.9282 3.52859C25.0482 3.59713 25.1908 3.67463 25.1538 3.85378C25.1292 3.97295 24.9126 4.08317 24.7455 4.04812C24.4693 3.99087 24.1967 3.9157 23.9236 3.84288C23.8379 3.8199 23.7569 3.78056 23.6735 3.74863C23.663 3.76304 23.6525 3.77706 23.642 3.79147C23.7226 3.85145 23.7974 3.92194 23.8847 3.96945C24.037 4.0524 24.1749 4.14081 24.2232 4.32268C24.2317 4.3554 24.2629 4.38733 24.2921 4.40797C24.4175 4.49599 24.5586 4.56609 24.6696 4.6689C24.7927 4.78262 24.9146 4.82235 25.1097 4.74874C25.0342 4.70357 24.9824 4.66852 24.9267 4.64086C24.883 4.61867 24.8219 4.6175 24.7915 4.58517C24.7424 4.53299 24.7124 4.46288 24.6746 4.40057C24.7416 4.4142 24.8094 4.42511 24.8752 4.44263C25.0389 4.48625 25.2017 4.53338 25.3649 4.57894L25.3922 4.52325C25.3205 4.44536 25.2492 4.36747 25.1791 4.29153C25.3719 3.99437 25.4097 3.98191 25.8339 4.08628C25.8027 4.01073 25.7903 3.93946 25.7501 3.89156C25.5897 3.70112 25.4202 3.51846 25.236 3.31244C25.5106 3.27622 25.7003 3.37592 25.874 3.5613C25.8257 3.59051 25.7903 3.61193 25.7548 3.63335C25.8171 3.80082 26.0637 3.88026 26.2156 3.772C26.1845 3.72682 26.1533 3.68125 26.1112 3.6205C26.2955 3.49432 26.4794 3.36852 26.6554 3.24779C26.7551 3.32413 26.856 3.45966 26.9328 3.44719C27.0598 3.42655 27.1712 3.3105 27.3032 3.22521C27.362 3.27934 27.4271 3.33932 27.4921 3.39929C27.5093 3.38917 27.5264 3.37904 27.5436 3.36891C27.4972 3.28791 27.4692 3.18081 27.3998 3.13213C27.2802 3.04762 27.1338 3.00166 27.0009 2.93468C26.9254 2.89651 26.8549 2.84822 26.7824 2.80421C26.791 2.78824 26.7999 2.77227 26.8085 2.75631C27.4065 2.97829 28.0044 3.20067 28.6023 3.42266L28.6409 3.37047C28.0102 3.09007 27.4992 2.66556 27.0551 2.12812C27.2658 2.05568 27.4018 2.17797 27.5373 2.27339C27.6706 2.36724 27.7909 2.47941 27.9444 2.55262C27.8669 2.46694 27.7898 2.38126 27.7122 2.29558L27.7302 2.27416C27.8061 2.30415 27.8825 2.33414 27.9584 2.36413C27.965 2.34816 27.9713 2.33258 27.9779 2.31661C27.9277 2.28702 27.8774 2.25742 27.8272 2.22782L27.8384 2.19978C27.9117 2.21964 27.9849 2.2395 28.0585 2.25898L28.0702 2.23288C27.8969 2.13552 27.7235 2.03816 27.5276 1.92833C27.5942 1.86991 27.6293 1.83876 27.648 1.8224C27.2538 1.55718 26.8607 1.29275 26.4677 1.02831C26.4704 1.01779 26.4727 1.00689 26.4755 0.996373C26.7532 1.09296 27.0352 1.17864 27.3075 1.28807C29.8251 2.29987 32.0637 3.73617 33.9744 5.67213C35.8968 7.61978 37.437 9.82291 38.4557 12.3723C39.1225 14.0415 39.5643 15.7718 39.7968 17.5539C39.842 17.9009 39.8564 18.2518 39.8872 18.6008C39.8946 18.6837 39.9117 18.7659 39.9246 18.8485V19.2379L39.9242 19.2387ZM29.2279 3.23923C29.1422 3.19366 29.0511 3.11032 29.011 3.13018C28.8244 3.22209 28.7387 3.06943 28.6245 2.99504C28.4769 2.89924 28.339 2.78863 28.1968 2.68465C28.5155 2.9966 28.8645 3.2661 29.2007 3.55079C29.3078 3.64114 29.3818 3.77122 29.4874 3.90363C29.3892 3.92661 29.3432 3.93712 29.2976 3.94764C29.2969 3.95893 29.2957 3.97023 29.2949 3.98152C29.4024 4.00684 29.5103 4.03215 29.6186 4.05785C29.6552 3.87053 29.5415 3.77044 29.4313 3.66412C29.3171 3.5539 29.2108 3.43629 29.0959 3.31634C29.1512 3.28401 29.18 3.26727 29.2275 3.23923H29.2279Z" fill="black" style="fill:black;fill-opacity:1;"/>
<path d="M18.9282 -0.078125C18.8818 -0.0621575 18.8359 -0.04619 18.7895 -0.0302224C18.7895 -0.0232123 18.7895 -0.0158127 18.7895 -0.00880256C19.0521 -0.0216545 19.3142 -0.0345064 19.5768 -0.0473583C19.5791 -0.0294435 19.5818 -0.0111393 19.5842 0.00677554C19.4654 0.0278059 19.3462 0.0492258 19.2274 0.0702562L19.2293 0.10297C19.2936 0.109591 19.3582 0.115822 19.4829 0.128284C19.2219 0.201891 19.0162 0.257193 18.8121 0.318337C18.5698 0.390775 18.3307 0.473339 18.0876 0.541104C17.915 0.589006 17.8207 0.713241 17.7222 0.847213C17.6867 0.895505 17.596 0.928998 17.5325 0.926272C17.4172 0.921209 17.3128 0.89862 17.3038 1.06258C17.3027 1.08439 17.2824 1.11671 17.2633 1.1245C17.0378 1.21524 16.912 1.45904 16.6634 1.51395C16.6268 1.52213 16.5719 1.53031 16.5602 1.55524C16.4422 1.80682 16.2439 1.70751 16.0203 1.67207C16.0589 1.72387 16.0811 1.75386 16.1247 1.81266C16.0055 1.88199 15.8863 1.95131 15.7671 2.02063L15.7254 1.95949C15.6549 2.25469 15.5162 2.47707 15.17 2.48447C15.1824 2.44552 15.1964 2.40229 15.2183 2.33453C15.0757 2.37347 14.9479 2.40853 14.8201 2.44319L14.8166 2.53159C14.9238 2.57443 15.0309 2.61727 15.1244 2.65427C15.1037 2.66401 15.0492 2.69516 14.9904 2.71619C14.7496 2.80265 14.5077 2.88483 14.267 2.97128C14.1696 3.00633 14.0757 3.05073 13.9787 3.08656C13.8175 3.14615 13.6632 3.14965 13.5604 3.03399C13.0668 3.28401 12.5885 3.52664 12.1105 3.76888C12.0992 3.7533 12.0879 3.73773 12.0766 3.72215C12.0914 3.68087 12.1062 3.63919 12.1226 3.59402C12.1012 3.59402 12.0864 3.58934 12.0778 3.5948C11.8301 3.74863 11.5812 3.90013 11.3373 4.05941C11.2458 4.119 11.1729 4.20701 11.0806 4.26504C10.9139 4.36942 10.7382 4.45899 10.568 4.55869C10.4963 4.60075 10.4192 4.64164 10.3623 4.70006C10.1675 4.89946 9.98522 5.11171 9.78773 5.30838C9.71099 5.38511 9.60659 5.43418 9.48545 5.51596C9.46168 5.36914 9.44611 5.27333 9.42974 5.17441C9.28951 5.14949 9.25289 5.06887 9.32145 4.90881C9.47259 4.55596 9.67515 4.24518 10.0211 4.05007C10.0596 4.02826 10.0912 3.99437 10.1434 3.95153C10.092 3.94102 10.0592 3.9344 9.9899 3.92038C10.1403 3.80666 10.2711 3.70735 10.3794 3.62517C10.3977 3.56286 10.3981 3.50561 10.4266 3.47407C10.7417 3.12629 11.1223 2.89067 11.5769 2.75358C11.7658 2.69672 11.9267 2.546 12.0969 2.43228C12.1094 2.4241 12.0918 2.37075 12.0895 2.3505C11.9621 2.42761 11.8445 2.49927 11.7264 2.57054C11.7124 2.55223 11.6984 2.53393 11.6848 2.51562C11.73 2.47317 11.7681 2.41047 11.8215 2.39178C11.9913 2.33297 12.1378 2.20757 12.3458 2.24535C12.4085 2.25664 12.4958 2.13163 12.5823 2.06075C12.5203 2.02803 12.4892 2.01206 12.43 1.98091C13.1354 1.61521 13.8179 1.26081 14.5397 0.886548C14.4497 0.865907 14.4142 0.857728 14.3784 0.84955C14.3757 0.837476 14.3726 0.825404 14.3698 0.81333C14.6639 0.725704 14.9577 0.638467 15.2518 0.55084C15.2475 0.53643 15.2432 0.52202 15.2393 0.507611C15.1738 0.519684 15.1084 0.531367 15.0434 0.54344C15.0406 0.533315 15.0379 0.523189 15.0356 0.513063C15.3133 0.447246 15.5899 0.374029 15.8696 0.31639C16.7593 0.132958 17.6548 -0.0130865 18.5648 -0.0485266C18.5951 -0.049695 18.6251 -0.0679993 18.6551 -0.078125C18.7459 -0.078125 18.837 -0.078125 18.9278 -0.078125H18.9282Z" fill="black" style="fill:black;fill-opacity:1;"/>
<path d="M17.6879 24.765C17.9914 24.7701 18.2952 24.7662 18.5877 24.7662V24.7658C18.6057 24.8304 18.6173 24.8499 18.615 24.8671C18.5429 25.3601 18.472 25.8531 18.393 26.3446C18.386 26.3879 18.331 26.4323 18.2878 26.4595C18.2056 26.5113 18.1869 26.5647 18.273 26.6204C18.7198 26.9089 18.9227 27.3627 19.1086 27.8316C19.211 28.0905 19.3349 28.341 19.4408 28.5984C19.4759 28.6833 19.4872 28.7787 19.5059 28.8702C19.5289 28.9816 19.5106 29.1312 19.5768 29.197C19.6714 29.2908 19.68 29.3734 19.6418 29.4708C19.5195 29.7835 19.3933 30.0951 19.2577 30.4023C19.1401 30.6683 19.0151 30.9565 19.1086 31.2268C19.1981 31.4858 19.3076 31.7631 19.4743 31.9784C19.59 32.128 19.6827 32.2627 19.7088 32.4434C19.74 32.658 19.7606 32.8742 19.7902 33.0888C19.8035 33.1838 19.8124 33.2843 19.8491 33.3711C20.0563 33.8611 20.2682 34.3494 20.4867 34.8347C20.53 34.9301 20.5218 34.9885 20.4412 35.0497C20.408 35.0746 20.3882 35.117 20.3629 35.1513C20.4213 35.2043 20.5054 35.2432 20.514 35.295C20.5432 35.4738 20.6679 35.4948 20.8011 35.4855C21.0769 35.466 21.3531 35.3994 21.6261 35.4119C21.9845 35.4282 22.2544 35.1719 22.5937 35.1517C22.6101 35.1505 22.6257 35.1307 22.6413 35.119C22.7585 35.0306 22.8765 34.9433 22.9918 34.8526C23.2252 34.6684 23.478 34.5017 23.6829 34.2895C23.8204 34.1465 23.9559 33.9436 23.9723 33.7571C23.9922 33.5312 24.0931 33.4393 24.2648 33.3614C24.312 33.34 24.3525 33.3006 24.4008 33.2862C24.8971 33.1378 25.0186 32.7979 24.8963 32.3297C24.8375 32.1035 24.9228 31.9601 25.1257 31.8406C25.5164 31.6104 25.8962 31.3608 26.2729 31.108C26.9211 30.6734 26.8919 29.9763 26.9519 29.3162C26.9534 29.2982 26.9363 29.2795 26.9351 29.2608C26.9219 29.0704 26.9032 28.8796 26.9012 28.6891C26.9001 28.5606 26.9207 28.4313 26.9359 28.3028C26.9526 28.1579 26.9406 27.9975 27.0006 27.8728C27.1626 27.5364 27.3566 27.2151 27.5385 26.8867L27.8155 26.6679C27.8353 26.5869 27.8513 26.5203 27.8622 26.4755C27.9499 26.4397 28.0363 26.4245 28.0959 26.3758C28.579 25.9824 29.0612 25.5883 29.5345 25.1833C30.1468 24.6591 30.6353 24.0465 30.8375 23.2454C30.8764 23.0912 30.9641 22.8871 30.8052 22.7979C30.7093 22.7441 30.5227 22.8438 30.3802 22.8855C30.2267 22.9307 30.0802 23.014 29.9244 23.0351C29.7347 23.0608 29.5368 23.0534 29.3456 23.0335C29.2186 23.0203 29.0472 22.9969 28.9829 22.912C28.8598 22.7504 28.8037 22.5393 28.7114 22.3528C28.66 22.2488 28.607 22.1378 28.5275 22.0564C28.1474 21.6681 27.7434 21.3016 27.3769 20.9013C27.1696 20.6746 27.1178 20.3813 27.1552 20.0624C27.1755 19.8867 27.1299 19.6873 27.0605 19.521C26.939 19.2286 26.7641 18.9587 26.634 18.6693C26.2706 17.8604 25.9184 17.0461 25.5612 16.2341C25.546 16.1998 25.5304 16.1496 25.5028 16.1394C25.2574 16.0487 25.0486 15.7874 24.7366 15.986C24.6742 16.0257 24.5566 16.0101 24.476 15.9844C23.97 15.8232 23.4714 15.6367 22.9611 15.4894C22.6424 15.3971 22.3078 15.3594 21.9296 15.2877C21.9296 15.5124 21.9405 15.6736 21.9257 15.8325C21.9159 15.9338 21.8863 16.1032 21.8341 16.1161C21.7145 16.1457 21.5264 16.1472 21.4539 16.0736C21.2455 15.8629 21.0005 15.8248 20.731 15.8018C20.6231 15.7924 20.4657 15.7512 20.4244 15.6744C20.2483 15.3465 19.9488 15.2932 19.6336 15.2729C19.4755 15.2628 19.3719 15.2044 19.3193 15.0622C19.234 14.8313 19.1522 14.5991 19.0758 14.3651C18.9798 14.0707 18.9831 14.0691 19.2476 13.9416L19.2488 13.941C19.2585 13.9363 19.2636 13.9211 19.2873 13.8872C19.2433 13.8518 19.2036 13.8016 19.1522 13.7817C18.7027 13.6064 18.2609 13.6793 17.834 13.8557C17.7043 13.9094 17.626 13.9188 17.5111 13.8261C17.2212 13.592 16.9895 13.5948 16.7312 13.7762C16.6459 13.8362 16.5263 13.8576 16.4188 13.8744C16.2751 13.897 16.1193 13.8713 15.9845 13.9153C15.808 13.9733 15.6479 14.0808 15.4792 14.1641C15.1816 14.311 14.8805 14.2432 14.6012 14.131C14.3484 14.0294 14.3266 14.0158 14.2545 14.2724C14.1982 14.4723 14.0677 14.571 13.8631 14.5684C13.8323 14.568 13.8011 14.5734 13.7641 14.577C13.7376 14.7487 13.7127 14.9115 13.687 15.0774C13.6313 15.0813 13.5927 15.086 13.5545 15.086C13.3387 15.0852 13.2067 15.1681 13.1685 15.4018C13.1229 15.6803 13.0462 15.9537 12.9815 16.2368H12.6625C12.5581 16.5281 12.368 16.724 12.0638 16.798C12.0307 16.8062 11.9952 16.8366 11.9765 16.8661C11.7946 17.1575 11.5979 17.4418 11.4429 17.7471C11.3447 17.9403 11.2808 18.1303 11.0054 18.0684C10.9887 18.2343 10.9731 18.3753 10.9606 18.5163C10.9439 18.7024 10.8835 18.8547 10.6879 18.9256C10.649 18.94 10.6128 18.9961 10.5995 19.0401C10.5465 19.2153 10.6081 19.301 10.8095 19.3489C11.1118 19.421 11.1094 19.4202 11.0214 19.6979C10.998 19.7711 10.9848 19.8497 10.9813 19.9265C10.9688 20.1921 10.9696 20.4585 10.9497 20.7237C10.9435 20.8051 10.9092 20.9079 10.8512 20.9573C10.7312 21.0594 10.723 21.1661 10.762 21.302L10.763 21.3055C10.7926 21.4096 10.8235 21.5178 10.8247 21.6245C10.8274 21.8574 10.9006 22.0653 11.0541 22.2293C11.2481 22.4365 11.4721 22.6152 11.6731 22.8166C11.7331 22.8766 11.7888 22.9689 11.7946 23.0503C11.8102 23.2726 11.9013 23.4346 12.1008 23.5316C12.1877 23.5741 12.2769 23.6216 12.3704 23.6391C12.5336 23.6695 12.601 23.7521 12.5908 23.918C12.5873 23.9756 12.6068 24.0554 12.6465 24.0917C12.8966 24.3218 13.1685 24.5189 13.5097 24.5968C13.6134 24.6205 13.6811 24.6065 13.7232 24.4947C13.7419 24.4453 13.8031 24.3787 13.8463 24.3775C14.099 24.3716 14.3521 24.3794 14.6051 24.3872L14.6441 24.3884C14.6791 24.3896 14.7298 24.4052 14.7461 24.4309C14.8599 24.6131 15.0348 24.5894 15.1992 24.5586C15.3316 24.5337 15.5026 24.5091 15.5755 24.4192C15.6919 24.2751 15.8068 24.1999 15.9845 24.2221C16.2166 24.2509 16.4274 24.2412 16.6502 24.1201C16.9088 23.9795 17.0619 24.0765 17.1426 24.3538C17.236 24.6743 17.3436 24.7592 17.6879 24.765Z" fill="black" style="fill:black;fill-opacity:1;"/>
<path d="M7.49842 34.0885C7.46375 34.0632 7.42948 34.0375 7.38429 34.0044C7.38624 34.0289 7.38273 34.0464 7.38935 34.0585C7.50466 34.261 7.62425 34.4612 7.73604 34.6653C7.76993 34.7272 7.78278 34.8008 7.80538 34.869C7.73292 34.8612 7.65969 34.8557 7.58763 34.8448C7.55763 34.8401 7.52998 34.8238 7.49102 34.809C7.80538 35.1178 8.11077 35.4177 8.44733 35.7483C8.33242 35.7865 8.27906 35.8044 8.22218 35.8231C8.72235 36.3824 9.29652 36.8423 9.89096 37.2614C10.4943 37.687 11.164 38.0192 11.7935 38.4161C11.4491 38.2436 11.0938 38.0897 10.7631 37.8942C10.1609 37.5387 9.5618 37.1749 8.981 36.7851C7.42636 35.7417 6.0957 34.453 4.96917 32.9641C4.40278 32.2156 3.9143 31.4087 3.39037 30.6278C3.36155 30.585 3.34129 30.5336 3.30468 30.4989C2.5743 29.8076 2.17229 28.9092 1.75549 28.0239C1.51008 27.5029 1.26857 26.9732 1.0999 26.4245C0.889548 25.7402 0.701403 25.0392 0.608693 24.3316C0.543641 23.8334 0.417821 23.3548 0.327059 22.866C0.325891 22.8598 0.321996 22.8532 0.322775 22.8474C0.374194 22.5673 0.131124 22.3496 0.158392 22.0315C0.230456 22.107 0.281484 22.1604 0.380815 22.2647C0.270577 21.8507 0.417043 21.5341 0.576363 21.2117V22.1409C0.597398 22.1409 0.618433 22.1409 0.639078 22.1413V21.4146C0.823718 21.672 0.979145 21.8885 1.16223 22.144C1.18599 22.0447 1.20079 21.9828 1.21364 21.9294C1.27441 21.9103 1.33051 21.8928 1.38894 21.8745C1.5802 21.9356 1.27363 22.2854 1.61331 22.2826C1.73796 22.743 2.07569 23.0873 2.33161 23.4798C2.34836 23.5055 2.40173 23.5316 2.42783 23.5234C2.65649 23.4541 2.76751 23.613 2.88476 23.754C3.11926 24.0356 3.29883 24.3351 3.37674 24.7097C3.4079 24.8608 3.56216 25.0049 3.56255 25.1899C3.56255 25.2744 3.53177 25.3589 3.52087 25.4442C3.51113 25.5198 3.50918 25.5965 3.50373 25.6728C3.53178 25.6736 3.55982 25.6748 3.58787 25.6756C3.59371 25.5953 3.59917 25.5155 3.60501 25.4333C3.8212 25.4002 3.96728 25.5416 3.92443 25.7507C3.90144 25.8617 3.87418 25.9766 4.06154 26.0272C4.04791 25.9112 4.03739 25.82 4.02298 25.6974C4.33617 25.801 4.58976 25.9513 4.80244 26.1713C4.81647 26.1857 4.82542 26.2227 4.81685 26.2391C4.72921 26.4151 4.86749 26.4311 4.99176 26.4837C4.99643 26.4182 5.00033 26.3664 5.00695 26.273C5.09031 26.3061 5.16042 26.34 5.23366 26.3614C5.37116 26.4015 5.5188 26.4817 5.64773 26.4599C5.84757 26.4256 5.97456 26.4864 6.08441 26.632C6.15452 26.7251 6.20711 26.8365 6.29203 26.9128C6.37227 26.9853 6.48563 27.0196 6.58146 27.0764C6.67183 27.1302 6.78051 27.173 6.84205 27.2513C7.22029 27.7326 7.21406 28.267 7.02202 28.8153C6.98774 28.9138 6.911 28.9964 6.85997 29.0899C6.73727 29.3158 6.78946 29.5288 6.87945 29.7574C7.03721 30.1593 7.19536 30.5663 7.29508 30.985C7.38156 31.3483 7.38663 31.7308 7.42909 32.1183H7.10928C7.00176 32.2109 6.93321 32.2701 6.82219 32.3656C6.78479 32.5875 6.86465 32.845 6.99397 33.0876C7.12486 33.3337 7.27288 33.5701 7.40922 33.8135C7.45519 33.8957 7.48752 33.9853 7.52569 34.0717L7.49842 34.0881V34.0885Z" fill="black" style="fill:black;fill-opacity:1;"/>
<path d="M6.46264 7.03872C6.23516 7.15556 6.02948 7.26149 5.8238 7.36703C5.83471 7.38923 5.84562 7.41104 5.85614 7.43323C5.9804 7.36859 6.10427 7.30355 6.2262 7.24007C6.34695 7.45504 6.21958 7.56565 6.13349 7.71052C6.00221 7.93173 5.82965 8.03026 5.58541 8.08518C5.46231 8.11283 5.36532 8.25848 5.25664 8.35078C5.1577 8.43529 5.06772 8.47073 4.92476 8.41232C4.73155 8.33365 4.54418 8.35312 4.38758 8.5459C4.25241 8.71219 4.07089 8.84071 3.91391 8.99026C3.85158 9.04985 3.80133 9.12151 3.75576 9.19395C4.12374 8.87953 4.36499 8.7366 4.47951 8.76516C4.27851 9.13553 3.85782 9.40308 3.94663 9.91755C4.18035 9.95182 4.19009 9.63636 4.41212 9.61806C4.16633 10.0936 3.68837 10.2688 3.29533 10.5598C3.35259 10.4612 3.39349 10.3463 3.47139 10.2692C3.55125 10.1906 3.66772 10.1493 3.76822 10.092C3.76705 10.0718 3.76549 10.0519 3.76433 10.0317C3.69849 10.0317 3.61319 10.0052 3.57073 10.0363C3.41452 10.1516 3.25208 10.2692 3.13016 10.4172C2.95721 10.6267 2.82048 10.8663 2.66272 11.089C2.58364 11.2008 2.49366 11.3052 2.40523 11.4099C2.33823 11.4894 2.25098 11.5556 2.19917 11.6432C2.01648 11.9505 1.82911 12.257 1.67485 12.5787C1.55293 12.8334 1.5093 13.1278 1.37491 13.3735C1.06679 13.9379 0.827225 14.5248 0.671021 15.1459C1.32194 12.3454 2.563 9.82836 4.34863 7.5711C4.32837 7.62095 4.30773 7.6708 4.28747 7.72026C4.29449 7.72571 4.3015 7.73117 4.30812 7.73662C4.51419 7.47919 4.707 7.20969 4.92904 6.96706C5.25197 6.61422 5.59281 6.27695 5.93171 5.93891C6.3302 5.54128 6.73571 5.15066 7.13537 4.75419C7.22185 4.66852 7.29119 4.5657 7.37805 4.4808C7.4209 4.43913 7.48323 4.41265 7.54166 4.39356C7.56659 4.38538 7.61645 4.40641 7.63086 4.42939C7.64411 4.45042 7.63632 4.50144 7.6184 4.52286C7.41195 4.76744 7.20159 5.00812 6.99319 5.25075C6.85101 5.41626 6.71 5.58334 6.5686 5.74963C6.58457 5.7656 6.60054 5.78157 6.61651 5.79754C6.85763 5.6106 7.09876 5.42366 7.33949 5.23673C7.34767 5.24296 7.35585 5.24919 7.36403 5.25542C7.08785 5.63046 6.80855 6.00356 6.53705 6.38171C6.3972 6.57683 6.29787 6.78558 6.46264 7.03677V7.03872Z" fill="black" style="fill:black;fill-opacity:1;"/>
<path d="M29.1079 30.03C29.2828 30.0818 29.3576 30.1831 29.2887 30.3751C29.2034 30.613 29.173 30.8557 28.9868 31.0714C28.8189 31.2657 28.7772 31.5664 28.6635 31.8125C28.6308 31.8834 28.5517 31.9578 28.4785 31.9804C28.2872 32.0388 28.1879 32.1576 28.1505 32.3473C28.1384 32.4092 28.1185 32.4882 28.0737 32.5225C27.8369 32.7044 27.7454 32.9754 27.6051 33.2208C27.4516 33.4895 27.1747 33.5261 26.8923 33.3719C26.8295 33.3376 26.7435 33.3462 26.655 33.333C26.7275 32.9813 26.7968 32.6339 27.0013 32.3328C27.0411 32.2744 27.0863 32.1993 27.1451 32.179C27.313 32.121 27.3005 32.0077 27.3122 31.8624C27.3254 31.6988 27.4123 31.5407 27.4723 31.3818C27.4879 31.3409 27.5292 31.3109 27.5475 31.2704C27.6585 31.0223 27.7115 30.9818 27.9787 31.004C28.159 31.0192 28.281 30.9939 28.3974 30.8155C28.5233 30.6232 28.7379 30.4903 28.9031 30.3213C28.9806 30.2419 29.0332 30.1379 29.1079 30.0296V30.03Z" fill="black" style="fill:black;fill-opacity:1;"/>
<path d="M16.6175 6.2972C16.5419 6.38872 16.4741 6.47051 16.3767 6.58812C16.5415 6.60448 16.6654 6.61655 16.7916 6.62902C16.806 6.91877 16.5248 6.99744 16.367 7.22215C16.6182 7.21125 16.7152 7.33899 16.7421 7.52865C16.7643 7.68482 17.0471 7.73545 16.9447 7.88734C16.9957 8.05207 17.03 8.16346 17.0647 8.27523C17.0791 8.29237 17.0935 8.3095 17.1079 8.32703C17.1387 8.26666 17.1694 8.20669 17.1975 8.15099C17.3891 8.25381 17.4086 8.39674 17.2583 8.51747C17.1539 8.6012 17.0339 8.6752 17.1515 8.84188C16.9268 8.93107 16.7297 9.09386 16.4979 8.89913C16.3397 9.03232 16.0935 8.85473 15.9529 9.05258C15.9424 9.06738 15.9241 9.08373 15.9081 9.08568C15.7535 9.10321 15.598 9.11761 15.4551 9.13163C15.5953 8.87693 15.8454 8.76944 16.1383 8.72894L16.1255 8.66312C15.963 8.6417 15.801 8.62028 15.6226 8.59653C15.5762 8.38856 15.8548 8.44893 15.9015 8.29081C15.8326 8.2725 15.7652 8.25459 15.6721 8.23005C15.822 8.13853 15.9249 8.03572 16.1009 8.13035C16.2077 8.1876 16.3078 8.0439 16.2712 7.89045C16.2466 7.78764 16.2116 7.68716 16.1804 7.58162C16.092 7.57733 15.9895 7.57266 15.8738 7.56721C15.9377 7.44687 15.986 7.35612 16.0238 7.28524C15.8738 7.24435 15.7613 7.21397 15.6035 7.17113C15.6686 7.1205 15.7297 7.09636 15.7496 7.05274C15.7878 6.97057 15.8088 6.87866 15.824 6.78869C15.8322 6.73962 15.7955 6.6777 15.8142 6.63758C15.8255 6.61344 15.9058 6.62707 15.9514 6.61227C16.0082 6.59358 16.0908 6.57722 16.1111 6.53516C16.2607 6.22905 16.2681 6.22165 16.6167 6.29837L16.6175 6.2972Z" fill="black" style="fill:black;fill-opacity:1;"/>
<path d="M12.1249 1.49215C12.093 1.54745 12.0747 1.62183 12.0276 1.65455C11.6279 1.93262 11.2438 2.24418 10.813 2.46344C10.4647 2.64064 10.2762 2.92143 10.0581 3.20729C9.96458 3.32997 9.77916 3.38371 9.63347 3.46511C9.48272 3.54923 9.32963 3.62907 9.16018 3.69839C9.2712 3.58117 9.38222 3.46433 9.49324 3.3471C9.47805 3.33036 9.46285 3.314 9.44805 3.29726C9.05306 3.67424 8.65807 4.05123 8.26308 4.42822C8.24672 4.41732 8.23036 4.40641 8.21361 4.39512C8.24984 4.32463 8.28606 4.25375 8.3219 4.18326C8.31333 4.17781 8.30437 4.17235 8.2958 4.1669L7.92341 4.62022C7.90237 4.61166 7.88173 4.60348 7.86069 4.59491C7.87316 4.54311 7.86965 4.47807 7.90042 4.44146C8.04845 4.26504 8.20348 4.09446 8.36124 3.92661C8.40253 3.88221 8.46175 3.85456 8.51277 3.81912C8.49836 3.80354 8.48395 3.78796 8.46993 3.77278C8.43019 3.78757 8.39046 3.80198 8.33943 3.82107C8.34761 3.79614 8.348 3.772 8.35813 3.76654C8.51901 3.68281 8.68651 3.60998 8.84193 3.5173C9.15278 3.33153 9.46168 3.1407 9.76357 2.94013C10.0355 2.75981 10.3249 2.59235 10.5571 2.36802C11.0074 1.93262 11.6104 1.79436 12.1281 1.49487L12.1257 1.49176L12.1249 1.49215Z" fill="black" style="fill:black;fill-opacity:1;"/>
<path d="M13.7236 4.44069C13.7711 4.34371 13.8011 4.28218 13.8389 4.20546C13.7828 4.18598 13.7333 4.16885 13.6835 4.15171C13.6804 4.13575 13.6772 4.11939 13.6741 4.10342C13.7524 4.08628 13.8303 4.06525 13.9094 4.0524C13.9799 4.04111 14.0995 4.12718 14.0937 3.97841C14.0921 3.93596 13.983 3.89818 13.9086 3.84794C14.008 3.59324 14.2927 3.77433 14.4984 3.64309C14.4618 3.73695 14.438 3.79731 14.401 3.89156C14.7843 3.82925 15.1435 3.77083 15.5377 3.70696C15.4816 3.80315 15.4438 3.86819 15.406 3.93284C15.4196 3.93479 15.4333 3.93635 15.4469 3.93829C15.4469 4.00684 15.4707 4.0894 15.4403 4.13964C15.4091 4.19144 15.3246 4.24168 15.2646 4.24012C15.0044 4.23389 14.787 4.3441 14.5856 4.48119C14.3722 4.62645 14.3324 4.63541 14.1318 4.47067C14.1018 4.44614 14.0489 4.4438 14.0064 4.44185C13.9234 4.43757 13.8401 4.44069 13.724 4.44069H13.7236Z" fill="black" style="fill:black;fill-opacity:1;"/>
<path d="M14.6269 7.98158C14.6581 7.88344 14.6932 7.77362 14.7313 7.65444C14.9249 7.69105 15.0531 7.64938 15.1189 7.44219C15.1684 7.28641 15.2662 7.38338 15.3359 7.46556C15.3741 7.44297 15.4068 7.40675 15.4387 7.40714C15.5209 7.40831 15.6031 7.42622 15.6849 7.43752C15.6627 7.54579 15.8065 7.66768 15.6495 7.76855C15.5981 7.80166 15.5583 7.86592 15.5338 7.92472C15.4641 8.09297 15.4052 8.26588 15.3371 8.45048C15.2401 8.45048 15.138 8.44776 15.0359 8.45165C14.9865 8.4536 14.9055 8.45438 14.8934 8.48047C14.8112 8.66195 14.6417 8.5607 14.5183 8.60042C14.4988 8.60665 14.4135 8.49955 14.4224 8.48631C14.4871 8.387 14.5662 8.29704 14.6437 8.2063C14.6784 8.1654 14.7189 8.12996 14.7567 8.0918C14.7173 8.05869 14.6784 8.02559 14.6269 7.98236V7.98158Z" fill="black" style="fill:black;fill-opacity:1;"/>
<path d="M25.1308 1.06336C25.2352 1.11905 25.3493 1.18019 25.481 1.2503C25.2582 1.45748 25.4537 1.60002 25.5172 1.74451C25.712 2.18732 26.0832 2.45253 26.5004 2.66401C26.5269 2.67725 26.5456 2.70529 26.5732 2.73138C26.3609 2.77539 26.1638 2.71035 25.9991 2.58378C25.9278 2.52926 25.823 2.49537 25.733 2.49382C25.5776 2.49187 25.5164 2.40113 25.4747 2.28001C25.4342 2.162 25.4039 2.0401 25.3618 1.92249C25.354 1.90029 25.3119 1.88432 25.2831 1.87731C25.2095 1.8594 25.1343 1.85083 25.2021 1.74412C25.2091 1.73322 25.1682 1.69193 25.1491 1.66506C25.0977 1.59301 25.0276 1.5272 25.0003 1.44697C24.9765 1.37648 24.9146 1.26354 25.0708 1.23004C25.0938 1.22498 25.1016 1.14826 25.1308 1.06297V1.06336Z" fill="black" style="fill:black;fill-opacity:1;"/>
<path d="M5.82887 8.25887C5.70538 8.39518 5.5819 8.5311 5.47906 8.64404C5.5114 8.77957 5.51607 8.90108 5.56866 8.99611C5.66137 9.16396 5.49543 9.20485 5.44674 9.30183C5.39454 9.40581 5.34273 9.51018 5.28274 9.60949C5.24846 9.66635 5.19782 9.71348 5.11485 9.81318C5.1055 9.65467 5.10004 9.55692 5.09303 9.44242C4.98474 9.4245 4.87295 9.40581 4.76076 9.3875C4.79309 9.21654 5.64228 8.27017 5.82887 8.25887Z" fill="black" style="fill:black;fill-opacity:1;"/>
<path d="M21.2031 0.924714C21.1287 0.82813 21.0718 0.754523 21.0001 0.661444C20.9253 0.827351 20.8646 0.962101 20.7808 1.14865C20.7411 0.983132 20.5572 1.02636 20.5642 0.852276C20.5662 0.797752 20.424 0.737777 20.341 0.674686C20.3504 0.634961 20.3652 0.573428 20.3905 0.46555C20.4638 0.474118 20.5744 0.487359 20.6897 0.50099C20.7208 0.490864 20.7851 0.447246 20.8136 0.464382C21.0383 0.597964 21.2561 0.743229 21.5155 0.910304C21.3737 0.916925 21.2678 0.921988 21.2031 0.925103V0.924714Z" fill="black" style="fill:black;fill-opacity:1;"/>
<path d="M0.465345 19.4365V18.783C0.683874 18.7639 0.650762 18.9653 0.706855 19.0331C0.832286 19.0401 0.929671 19.0455 1.03874 19.0518C1.0477 19.1406 1.05627 19.2274 1.0664 19.3306C0.880198 19.3629 0.646089 19.1947 0.513257 19.4603C0.497286 19.4525 0.481316 19.4443 0.465345 19.4365Z" fill="black" style="fill:black;fill-opacity:1;"/>
<path d="M37.1916 23.4105C37.1916 23.7205 37.1971 24.0305 37.1861 24.3401C37.1842 24.3915 37.1125 24.4406 37.0732 24.4908C37.0303 24.4422 36.9454 24.3884 36.9509 24.346C36.991 24.0274 37.049 23.7115 37.1016 23.3945C37.1316 23.4 37.1616 23.405 37.1916 23.4105Z" fill="black" style="fill:black;fill-opacity:1;"/>
<path d="M0.394836 18.5669C0.321993 18.5159 0.246424 18.489 0.244866 18.4586C0.228895 18.1346 0.224223 17.8098 0.21799 17.485C0.21799 17.4795 0.237853 17.4741 0.24876 17.4682C0.297452 17.7763 0.346923 18.0836 0.394056 18.3912C0.400679 18.4337 0.394836 18.4777 0.394836 18.5669Z" fill="black" style="fill:black;fill-opacity:1;"/>
<path d="M21.3655 0.419595C21.2724 0.62172 21.1038 0.604195 20.8681 0.352609C21.0309 0.374418 21.1937 0.396617 21.3655 0.419595Z" fill="black" style="fill:black;fill-opacity:1;"/>
<path d="M30.0954 27.046C30.0954 27.1469 30.102 27.2485 30.0915 27.3482C30.0884 27.3778 30.0378 27.4024 30.0089 27.4293C29.9891 27.3965 29.949 27.3603 29.9536 27.3319C29.9712 27.2299 30.0039 27.1305 30.0308 27.0301C30.0526 27.0355 30.074 27.041 30.0958 27.046H30.0954Z" fill="black" style="fill:black;fill-opacity:1;"/>
<path d="M25.7879 3.03476C25.89 3.07605 25.9924 3.11772 26.0968 3.16017C26.0231 3.30219 25.9136 3.27869 25.7685 3.08968L25.7875 3.03476H25.7879Z" fill="black" style="fill:black;fill-opacity:1;"/>
<path d="M31.0759 26.5362C31.0073 26.5795 30.9411 26.6278 30.8675 26.6605C30.8539 26.6667 30.8118 26.6098 30.783 26.5822C30.864 26.5386 30.9454 26.4953 31.0264 26.4517C31.0428 26.4798 31.0591 26.5078 31.0755 26.5362H31.0759Z" fill="black" style="fill:black;fill-opacity:1;"/>
<path d="M0.625443 15.4357C0.567792 15.7547 0.509748 16.074 0.452097 16.393C0.438463 16.3906 0.424442 16.3883 0.410809 16.386C0.467681 16.0666 0.524553 15.7473 0.581426 15.4279C0.596228 15.4302 0.611031 15.433 0.625833 15.4353L0.625443 15.4357Z" fill="black" style="fill:black;fill-opacity:1;"/>
<path d="M4.56093 8.89173C4.60923 8.73517 4.64624 8.61483 4.68325 8.49449C4.74791 8.65378 4.82114 8.81618 4.56093 8.89173Z" fill="black" style="fill:black;fill-opacity:1;"/>
<path d="M38.9028 26.3396C38.9675 26.1156 39.0318 25.8917 39.0964 25.6682C39.1151 25.6736 39.1338 25.6791 39.1525 25.6845C39.0851 25.9108 39.0178 26.1371 38.9508 26.3637C38.9348 26.3559 38.9188 26.3477 38.9028 26.34V26.3396Z" fill="black" style="fill:black;fill-opacity:1;"/>
<path d="M16.0168 6.32875C15.9066 6.41248 15.7959 6.49582 15.6857 6.57956C15.674 6.56515 15.6619 6.55035 15.6502 6.53594C15.7087 6.3895 15.847 6.33887 15.9798 6.28201C15.9923 6.29759 16.0043 6.31317 16.0168 6.32875Z" fill="black" style="fill:black;fill-opacity:1;"/>
<path d="M12.1273 1.49526C12.3069 1.42866 12.4864 1.36168 12.6816 1.28924C12.5694 1.4423 12.2971 1.53615 12.1257 1.49292C12.1249 1.49215 12.1273 1.49526 12.1273 1.49526Z" fill="black" style="fill:black;fill-opacity:1;"/>
<path d="M26.2258 25.2966C26.3052 25.4029 26.3894 25.4656 26.3859 25.5233C26.3824 25.584 26.2951 25.6397 26.2445 25.6974C26.1899 25.6448 26.0996 25.5973 26.091 25.5385C26.0828 25.4804 26.158 25.4107 26.2262 25.2966H26.2258Z" fill="black" style="fill:black;fill-opacity:1;"/>
<path d="M26.2316 26.6488C26.1611 26.7053 26.1175 26.7645 26.0855 26.759C26.0458 26.752 25.9971 26.6955 25.9878 26.6527C25.9819 26.6262 26.0407 26.5592 26.0731 26.5577C26.1128 26.5553 26.1557 26.6021 26.2316 26.6492V26.6488Z" fill="black" style="fill:black;fill-opacity:1;"/>
<circle cx="19.9807" cy="19.9807" r="19.7807" stroke="black" style="stroke:black;stroke-opacity:1;" stroke-width="0.4"/>
</g>
<defs>
<clipPath id="clip0_36583_53954">
<rect width="39.9614" height="39.9614" rx="19.9807" fill="white" style="fill:white;fill-opacity:1;"/>
</clipPath>
</defs>
</svg>
