<svg width="40" height="40" viewBox="0 0 40 40" fill="none" xmlns="http://www.w3.org/2000/svg">
<g clip-path="url(#clip0_36583_53949)">
<path d="M26.0356 26.1228C26.07 26.1367 26.1148 26.1409 26.1376 26.1656C26.2854 26.3251 26.458 26.3367 26.6986 26.2344C26.653 26.583 26.6117 26.8981 26.5708 27.2131C26.5538 27.2147 26.5372 27.2162 26.5202 27.2178L26.4376 27.2853C26.4341 27.3548 26.4314 27.4027 26.4283 27.4641C26.6847 27.5347 26.6063 27.2108 26.7623 27.2205C26.8885 27.2421 27.0144 27.2707 27.1414 27.2834C27.3862 27.3073 27.5322 27.371 27.8206 27.6035C27.7759 27.6551 27.7312 27.7064 27.68 27.765L27.6704 27.7761C27.7796 27.8506 27.8866 27.8826 27.9576 27.7633C28.0426 27.6208 28.1519 27.6181 28.2661 27.688C28.4515 27.8008 28.6464 27.7961 28.8441 27.7633C29.036 27.7317 29.1835 27.7803 29.292 27.9475C29.4325 28.1637 29.604 28.3139 29.8959 28.2749C29.9534 28.2672 30.0742 28.3849 30.0878 28.4591C30.1495 28.7958 30.143 29.1278 29.8739 29.3931C29.5268 29.7351 29.1908 30.0896 28.8279 30.4139C28.6356 30.5861 28.4947 30.7695 28.458 31.0228C28.3897 31.495 28.092 31.8579 27.8387 32.2266C27.6063 32.5653 27.2785 32.8398 26.9839 33.1336C26.9268 33.1907 26.8318 33.2282 26.7495 33.2386C26.4966 33.271 26.2607 33.3158 26.0179 33.4282C25.8194 33.5201 25.5789 33.5409 25.3912 33.6822C25.2735 33.7707 25.153 33.8583 25.0488 33.9614C24.9936 34.0162 24.9387 34.1031 24.938 34.1757C24.936 34.3888 24.8345 34.5467 24.6901 34.6791C24.5009 34.8525 24.3221 35.0618 24.0974 35.1656C23.7495 35.3263 23.5113 35.6058 23.2298 35.8367C23.0511 35.9834 22.8762 36.0517 22.6472 36.0035C22.4797 35.968 22.3067 35.9595 22.1113 35.9799C22.1395 36.0139 22.1642 36.0517 22.197 36.0807C22.3878 36.2514 22.3692 36.3896 22.1924 36.5749C21.9109 36.8699 21.5522 36.8846 21.1889 36.9066C21.119 36.9108 21.0495 36.9147 21.0198 36.9162C20.9383 37.0649 20.9001 37.2359 20.7966 37.2965C20.6916 37.3579 20.5229 37.31 20.3642 37.31C20.36 37.3799 20.3557 37.4525 20.3507 37.5332H20.5793C20.5522 37.5768 20.5356 37.6278 20.5179 37.6282C20.2889 37.6332 20.2542 37.8348 20.1561 37.9734C20.1275 38.0139 20.0851 38.0506 20.0407 38.0726C19.9422 38.1212 19.8387 38.1595 19.7372 38.2015C19.8121 38.293 19.887 38.3846 19.9723 38.4896C19.8306 38.6019 19.6592 38.7351 19.492 38.8734C19.4584 38.9012 19.4156 38.9552 19.4221 38.9884C19.4557 39.1552 19.3673 39.3822 19.6275 39.4506C19.6295 39.451 19.6167 39.507 19.6109 39.5371H19.3407C18.8194 39.3664 18.7194 39.2641 18.4835 38.6483C18.553 38.6239 18.6217 38.6 18.6905 38.5761C18.7117 38.5521 18.7325 38.5282 18.7538 38.5042C18.6746 38.4348 18.5955 38.3653 18.4893 38.2718C18.5063 38.2606 18.5692 38.2185 18.6322 38.1761C18.6407 38.19 18.6495 38.2039 18.658 38.2178C18.7013 38.1143 18.7526 38.0135 18.7862 37.9069C18.8275 37.7768 18.8546 37.6421 18.8881 37.5077C18.8248 37.4882 18.7712 37.5772 18.7271 37.7749C18.6634 37.7463 18.5708 37.7328 18.5565 37.6915C18.5376 37.6375 18.5804 37.5618 18.597 37.4954C18.6117 37.4375 18.6306 37.3803 18.6414 37.3212C18.6511 37.268 18.6542 37.2131 18.6565 37.1587C18.6623 37.0305 18.6623 36.9015 18.6719 36.7737C18.6773 36.705 18.6777 36.6224 18.7152 36.5726C18.8017 36.4583 18.8955 36.3568 18.8723 36.1958C18.8673 36.1606 18.8986 36.1093 18.9283 36.0822C19.1071 35.9209 19.1395 35.7185 19.0878 35.4992C19.0252 35.2355 19.0333 34.9846 19.1437 34.7313C19.2457 34.4969 19.3352 34.2556 19.4051 34.01C19.4472 33.8625 19.4461 33.7012 19.4553 33.5459C19.4831 33.0927 19.5067 32.639 19.5295 32.2328C19.3874 32.1224 19.27 32.0432 19.1665 31.9487C18.9221 31.7247 18.6607 31.5355 18.3372 31.4371C18.2592 31.4131 18.1808 31.3459 18.1314 31.278C17.826 30.856 17.5287 30.4282 17.2302 30.0012C17.209 29.9707 17.1847 29.9324 17.1847 29.8977C17.1851 29.5876 16.9908 29.4081 16.7611 29.2502C16.514 29.0803 16.275 28.9054 16.253 28.5653C16.2499 28.5197 16.1978 28.4795 16.1793 28.4328C16.1611 28.3869 16.1349 28.3023 16.1503 28.2919C16.2993 28.1911 16.3105 27.9653 16.5117 27.9085C16.5723 27.8915 16.614 27.8073 16.653 27.7228C16.4495 27.6996 16.219 27.7633 16.2731 27.4421C16.3005 27.2795 16.2287 27.0653 16.5248 27.1019C16.5484 26.9301 16.6148 26.8251 16.77 26.7212C16.87 26.6544 17.1329 26.5459 16.9881 26.2803C17.2553 26.2857 17.2812 26.1174 17.2978 25.9355C17.3032 25.8741 17.3175 25.805 17.3515 25.7556C17.521 25.5093 17.4488 25.0687 17.1854 24.8811C17.2221 24.8197 17.248 24.7429 17.3005 24.6958C17.4295 24.5792 17.5484 24.4602 17.5963 24.2857C17.6051 24.2529 17.6418 24.2035 17.6665 24.2027C17.9437 24.1946 17.9283 23.9923 17.9391 23.8054C17.941 23.7741 17.9488 23.7432 17.9457 23.7622C18.1916 23.6556 18.4009 23.5487 18.621 23.4749C18.7511 23.4313 18.8986 23.4402 19.0399 23.4251C19.1233 23.1598 19.2337 23.1008 19.4789 23.2C19.3839 23.3174 19.2345 23.4228 19.209 23.5521C19.1712 23.7463 19.2132 23.9579 19.2368 24.1606C19.243 24.2147 19.3059 24.2622 19.3426 24.3127C19.3623 24.3085 19.382 24.3039 19.4017 24.2996C19.3897 24.1934 19.382 24.0869 19.3646 23.9815C19.3271 23.7556 19.3746 23.6869 19.5951 23.6178C19.6596 23.5977 19.748 23.5429 19.7611 23.4888C19.804 23.31 19.9241 23.3297 20.0241 23.3865C20.1804 23.4749 20.3986 23.4718 20.4735 23.7035C20.4908 23.7568 20.6696 23.7815 20.7731 23.7788C21.0175 23.7722 21.2279 23.8243 21.4013 24.0093C21.4955 24.1097 21.5843 24.0591 21.6271 23.9537C21.6978 23.778 21.7908 23.683 21.9901 23.7795C22.021 23.7946 22.0827 23.7784 22.114 23.7548C22.2642 23.6405 22.3854 23.6973 22.4824 23.7792C22.4383 23.9023 22.4009 24.0069 22.3437 24.1668C22.5607 24.122 22.7074 24.0915 22.8669 24.0587C22.8881 24.3649 23.1557 24.4243 23.3457 24.5649C23.4314 24.6286 23.5225 24.7085 23.5658 24.8019C23.7102 25.1124 24.1372 25.3154 24.5519 25.2185C24.7851 25.1641 24.9816 25.1911 25.1777 25.3459C25.1395 25.368 25.1032 25.3861 25.07 25.4089L25.1515 25.6073C25.1935 25.4641 25.3325 25.5865 25.4047 25.5529C25.5175 25.5004 25.5897 25.5027 25.6874 25.6066C25.638 25.6259 25.5827 25.6309 25.5708 25.6564C25.5526 25.6954 25.5638 25.7483 25.5627 25.7954C25.7094 25.7907 25.6769 25.8996 25.682 25.9842C25.6966 26.2417 25.7634 26.3012 26.0623 26.295C26.0523 26.2354 26.0432 26.1792 26.0336 26.1231L26.0306 26.1236L26.0333 26.1212C26.0334 26.1219 26.0335 26.1225 26.0336 26.1231L26.0356 26.1228Z" fill="black" style="fill:black;fill-opacity:1;"/>
<path d="M40.0001 20.5019C39.9766 20.7757 39.9468 21.049 39.9298 21.3228C39.8329 22.9015 39.5569 24.4463 39.0781 25.9556C38.4005 28.0915 37.3739 30.0456 36.0109 31.8201C35.5654 32.4 35.0685 32.9405 34.5943 33.4985C34.5673 33.5305 34.5325 33.556 34.4746 33.5606C34.6217 33.3803 34.7715 33.2019 34.9152 33.0189C36.0283 31.605 37.0071 30.105 37.7503 28.4625C37.902 28.127 37.9723 27.7533 38.0708 27.395C38.3036 26.5463 38.531 25.6958 38.7596 24.8459C38.7739 24.7923 38.7812 24.7367 38.7939 24.671C38.7488 24.671 38.7175 24.6664 38.6878 24.6718C38.4202 24.7197 38.4148 24.7154 38.4198 24.434C38.4198 24.4212 38.4225 24.4081 38.4206 24.3954C38.4071 24.312 38.3928 24.229 38.3785 24.1459C38.3163 24.1923 38.2534 24.2382 38.1916 24.2857C38.1715 24.3012 38.1538 24.3355 38.1353 24.3351C37.8739 24.3324 37.7719 24.5448 37.6241 24.7008C37.5538 24.7749 37.4816 24.8575 37.3611 24.7205C37.2584 24.6035 36.8963 24.7201 36.8198 24.8699C36.7241 25.0583 36.6484 25.0795 36.5102 24.9174C36.3754 24.7591 36.1812 24.6197 36.2515 24.3541C36.2638 24.3073 36.2001 24.2093 36.1476 24.1826C35.9221 24.068 35.8507 23.8996 35.8615 23.6487C35.8715 23.4139 35.7723 23.207 35.5746 23.0456C35.3955 22.8992 35.2947 22.6981 35.3032 22.4529C35.3074 22.3317 35.3067 22.2077 35.2858 22.0888C35.2588 21.932 35.2476 21.7958 35.3739 21.6641C35.426 21.6097 35.4279 21.4965 35.4333 21.4089C35.4565 21.012 35.4704 20.6147 35.4924 20.2174C35.4982 20.1108 35.458 20.0618 35.3526 20.0579C35.2758 20.0548 35.1993 20.0459 35.0912 20.0375C35.0978 19.9066 35.0935 19.7799 35.1125 19.6571C35.1407 19.4734 35.18 19.2907 35.2241 19.11C35.2627 18.951 35.2457 18.773 35.4538 18.683C35.5314 18.6494 35.5766 18.4919 35.5959 18.3834C35.626 18.2139 35.6098 18.0363 35.6345 17.8653C35.6526 17.7417 35.6708 17.5892 35.7495 17.5089C35.9534 17.3012 36.0129 17.0486 36.0549 16.7734C36.1152 16.7591 36.1754 16.7452 36.2449 16.7286C36.2071 16.4239 36.1843 16.1236 36.1275 15.8297C36.0912 15.6432 36.1437 15.5459 36.3391 15.5093C36.299 15.3363 36.2619 15.1757 36.2217 15.0031C36.2893 14.9853 36.3538 14.9683 36.4279 14.9487C36.402 14.7668 36.3769 14.5927 36.3538 14.432C36.5102 14.4579 36.6464 14.4958 36.7835 14.4996C37.0202 14.5062 37.0986 14.4185 37.1078 14.1846C37.1094 14.1436 37.1291 14.0695 37.1434 14.0687C37.3712 14.0556 37.3723 13.8375 37.4804 13.6819C37.5642 13.7475 37.6364 13.8042 37.7256 13.8741C37.8167 13.79 37.9186 13.6958 38.0356 13.5876C38.0654 13.6348 38.0966 13.6788 38.1217 13.7259C38.3905 14.2382 38.6553 14.7525 38.9287 15.2625C38.98 15.3579 38.9893 15.5058 39.1669 15.4938C39.2028 15.4915 39.2461 15.5969 39.3183 15.6475C39.2588 15.3884 39.1997 15.1297 39.1403 14.8707C39.1634 14.8614 39.1866 14.8521 39.2098 14.8429C39.2804 14.9977 39.3785 15.1459 39.4175 15.3081C39.6936 16.4529 39.8773 17.6131 39.9638 18.788C39.9688 18.8575 39.987 18.9259 39.9993 18.995V20.5008L40.0001 20.5019Z" fill="black" style="fill:black;fill-opacity:1;"/>
<path d="M19.8843 0C20.0715 0.0332046 20.2603 0.0610039 20.4457 0.103089C20.5113 0.117761 20.5692 0.167181 20.6221 0.195753C20.7827 0.214672 20.9376 0.232819 21.0928 0.250579C21.1364 0.255598 21.18 0.261776 21.2237 0.262934C21.3283 0.265251 21.4445 0.235521 21.5356 0.271042C22.0125 0.456371 22.4808 0.664093 22.9569 0.850965C23.1654 0.932819 23.3874 0.980309 23.6005 1.05251C23.6654 1.07452 23.7982 1.04865 23.7495 1.2C23.7468 1.20811 23.8202 1.24479 23.8607 1.26216C24.2279 1.42162 24.5955 1.57992 24.9769 1.7444C24.9468 1.79768 24.9241 1.83745 24.9051 1.87104C25.0241 1.91081 25.1461 1.95174 25.3051 2.00541C25.202 2.061 25.1434 2.09228 25.0352 2.15058C25.3318 2.13127 25.475 2.2668 25.621 2.45058C25.7159 2.57066 25.9063 2.61429 26.0526 2.69459C26.1194 2.73127 26.1827 2.77413 26.2468 2.81351C26.2252 2.8695 26.2078 2.9139 26.1851 2.97297C26.0932 2.91081 26.004 2.85019 25.9036 2.78224C25.8638 2.81313 25.8214 2.84595 25.7588 2.89498C25.8198 2.93668 25.8723 3.00077 25.9314 3.00734C26.0885 3.02432 26.2337 3.14209 26.4036 3.06718C26.4159 3.06178 26.4704 3.11081 26.4673 3.11776C26.4484 3.16139 26.4186 3.2 26.4125 3.24131C26.3866 3.33205 26.3854 3.47645 26.3298 3.50193C26.2136 3.55483 26.3372 3.77529 26.1457 3.73629C26.0399 3.71506 25.9368 3.68108 25.8503 3.65753C25.8646 3.84981 25.8808 4.04826 25.892 4.24672C25.8932 4.26988 25.8685 4.2973 25.8511 4.31853C25.804 4.3749 25.7538 4.42896 25.6796 4.51236C25.6611 4.50425 25.5963 4.49344 25.56 4.4556C25.5229 4.41699 25.514 4.35135 25.4928 4.29768C25.4646 4.32085 25.4368 4.34363 25.4086 4.3668C25.4167 4.40811 25.4252 4.44904 25.4356 4.50309C25.3881 4.51197 25.3407 4.52085 25.3248 4.52355C25.2928 4.6139 25.2673 4.68571 25.2368 4.77143C25.4453 4.92896 25.502 5.16757 25.4549 5.45058C25.409 5.46641 25.3511 5.48649 25.2916 5.50695C25.2951 5.53475 25.2901 5.56062 25.3005 5.57066C25.5102 5.77027 25.5986 6.02124 25.6102 6.30386C25.6125 6.36178 25.6237 6.45135 25.5935 6.47182C25.5457 6.50463 25.4561 6.51622 25.4028 6.49344C25.2735 6.439 25.16 6.34788 25.0306 6.29344C24.936 6.25328 24.8271 6.24749 24.7244 6.22703C24.6634 6.21467 24.5874 6.22239 24.5437 6.18842C24.1901 5.91236 23.8387 5.6332 23.4955 5.3444C23.4159 5.27761 23.348 5.18417 23.4515 5.05985C23.4793 5.02626 23.4241 4.92394 23.3955 4.80656C23.321 4.8973 23.287 4.93861 23.2399 4.99575C23.1549 4.87066 23.0264 4.78533 23.0797 4.6112C23.0827 4.60116 23.0001 4.54093 22.9642 4.54672C22.7495 4.58147 22.6611 4.50154 22.6449 4.26834C22.6414 4.22085 22.5777 4.17104 22.5322 4.13398C22.4669 4.0807 22.3932 4.03822 22.3268 3.99382C22.4071 3.89073 22.4654 3.81583 22.5237 3.74131L22.48 3.69923C22.5727 3.67066 22.6654 3.64209 22.7576 3.61351C22.6924 3.49112 22.653 3.33629 22.5534 3.25444C22.4642 3.18108 22.309 3.18842 22.1773 3.18224C22.2511 3.22124 22.3248 3.25985 22.4105 3.30502C22.2322 3.42703 22.0163 3.439 21.9229 3.33205C21.892 3.29653 21.9051 3.22278 21.8982 3.16641C21.921 3.15521 21.9441 3.14402 21.9669 3.13282C21.9129 3.10927 21.8588 3.08571 21.8051 3.06216L21.8395 2.99807C22.0213 3.01969 22.2032 3.0417 22.3851 3.06332C22.3901 3.04942 22.3951 3.03552 22.4001 3.02162C22.2464 2.92896 22.0947 2.83398 21.938 2.7471C21.9152 2.73436 21.8677 2.75792 21.8352 2.77297C21.6283 2.86873 21.5183 2.79228 21.4519 2.59189C21.3959 2.42278 21.2851 2.25985 21.1619 2.12857C20.9935 1.94903 20.8074 1.77336 20.597 1.64942C20.3785 1.52046 20.1345 1.41737 19.8565 1.48803C19.5947 1.55444 19.3538 1.5139 19.1769 1.25251C19.2939 1.23089 19.4186 1.20772 19.5885 1.17645C19.3457 1.12317 19.1565 1.08185 18.9677 1.04054C18.9642 1.00927 18.9603 0.977992 18.9569 0.946718C19.1468 0.876448 19.3364 0.805792 19.575 0.717375C19.4719 0.650965 19.3955 0.60193 19.3198 0.552896C19.3959 0.448263 19.4588 0.330888 19.5515 0.24556C19.6074 0.194209 19.7094 0.193436 19.782 0.172587C19.765 0.116988 19.7476 0.0586873 19.7298 0.0003861C19.7812 0.0003861 19.8329 0.0003861 19.8843 0.0003861V0Z" fill="black" style="fill:black;fill-opacity:1;"/>
<path d="M13.402 3.64633C13.5959 3.51931 13.6854 3.73127 13.8071 3.79228C14.0997 3.93861 14.3561 3.97413 14.6067 3.73012C14.6333 3.70425 14.67 3.68842 14.7148 3.65946C14.687 3.60116 14.6611 3.54633 14.6337 3.48842C14.7391 3.4112 14.8449 3.33436 14.9515 3.25637C15.1507 3.38456 15.1484 3.49691 14.9488 3.62703C14.9117 3.65135 14.882 3.7 14.8681 3.74363C14.8511 3.79575 14.8472 3.85483 14.8515 3.90965C14.8553 3.96139 14.8773 4.01197 14.9213 4.0722C14.9461 3.72548 15.3542 3.81274 15.48 3.54556C15.3546 3.57992 15.2596 3.60618 15.158 3.63398C15.0742 3.36757 15.4364 3.56293 15.3955 3.35212C15.2287 3.05598 15.3955 2.71544 15.7522 2.67761C15.8063 2.67181 15.9024 2.72046 15.9183 2.76525C15.9522 2.86178 15.992 2.99961 15.9488 3.07259C15.8279 3.27606 15.9596 3.41737 16.0186 3.60077C16.0997 3.55792 16.1704 3.52085 16.258 3.4749C16.2986 3.53822 16.3387 3.60077 16.3546 3.62548C16.3159 3.76795 16.2688 3.87181 16.2654 3.97722C16.2623 4.07182 16.3437 4.12317 16.4225 4.04595C16.5827 3.8888 16.7298 3.71853 16.88 3.55135C16.8924 3.53745 16.8835 3.50541 16.8866 3.48224C16.897 3.40348 16.9086 3.32432 16.9198 3.24556C16.9426 3.22973 16.9654 3.21429 16.9885 3.19846C16.8511 3.16834 16.7121 3.1444 16.5773 3.10502C16.5202 3.08842 16.4727 3.03938 16.421 3.00541C16.4291 2.98571 16.4376 2.96602 16.4457 2.94672C16.531 2.93668 16.6167 2.92664 16.702 2.9166C16.7067 2.90425 16.7117 2.89189 16.7163 2.87954C16.631 2.84595 16.5461 2.81197 16.4607 2.77838C16.5766 2.35174 16.9742 2.0556 17.3341 2.12626C16.992 2.44788 16.9345 2.65405 17.1515 2.81699C17.1719 2.69189 17.1827 2.56834 17.2144 2.45058C17.2345 2.37683 17.2688 2.2834 17.3268 2.24903C17.4333 2.1861 17.5592 2.14865 17.6816 2.12239C17.8102 2.09498 17.9229 2.29228 17.8638 2.43127C17.8445 2.47645 17.8179 2.51815 17.7812 2.58687C17.9264 2.55753 18.0468 2.54633 18.1576 2.50849C18.46 2.40502 18.5731 2.42625 18.7553 2.67761C18.8283 2.77838 18.8901 2.83552 19.0225 2.78842C19.0557 2.77683 19.1144 2.84672 19.165 2.87181C19.2596 2.91853 19.3627 2.95097 19.4518 3.00618C19.592 3.09305 19.7244 3.19228 19.8561 3.29151C19.8619 3.29575 19.8298 3.35058 19.8109 3.39151C19.8623 3.41467 19.9125 3.43745 19.9893 3.4722C19.9399 3.50039 19.9036 3.51583 19.8735 3.53938C19.8434 3.56293 19.7951 3.5973 19.7982 3.62085C19.8024 3.65174 19.8503 3.70154 19.8777 3.70077C20.0268 3.69575 20.1341 3.72162 20.2298 3.86757C20.2808 3.94517 20.4507 3.94093 20.5634 3.9834C20.6522 4.01699 20.7345 4.06757 20.8206 4.10849C20.8951 4.14363 20.9746 4.17027 21.0457 4.2112C21.0978 4.24131 21.1634 4.28185 21.1789 4.33127C21.1897 4.36602 21.1329 4.43012 21.0951 4.47066C20.9847 4.58842 20.7565 4.6112 20.8148 4.89266C20.46 4.80541 20.3136 4.45946 19.9696 4.37683C19.9434 4.40077 19.8889 4.44981 19.7881 4.54015C19.9854 4.6749 20.1603 4.79266 20.3333 4.91351C20.3777 4.94479 20.4244 4.97954 20.4542 5.02317C20.5283 5.13205 20.5935 5.24672 20.6978 5.33745C20.6754 5.4529 20.653 5.56834 20.6279 5.69691C20.3607 5.56602 20.0916 5.43436 19.7839 5.2834C19.9349 5.57259 20.2928 5.60965 20.4078 5.89537C20.1939 5.87066 20.0125 5.85637 19.8337 5.82471C19.7769 5.81467 19.731 5.75367 19.6754 5.72587C19.5827 5.67954 19.4796 5.65135 19.3928 5.59691C19.3005 5.539 19.199 5.47375 19.143 5.38533C19.0206 5.19305 18.8777 5.04479 18.6488 4.98919C18.5264 4.95946 18.441 4.96988 18.3198 5.04633C18.2024 5.12046 18.0121 5.07876 17.8511 5.08803C17.8565 4.82819 18.0295 4.6973 18.258 4.7278C18.3403 4.73861 18.4233 4.75097 18.5063 4.75251C18.5688 4.75367 18.6318 4.73938 18.7171 4.72896C18.5793 4.48533 18.7827 4.39228 18.9017 4.26602C19.0383 4.12046 19.0499 4.00695 18.9017 3.87529C18.7256 3.71892 18.5368 3.57722 18.3553 3.42703C18.2295 3.32278 18.1071 3.21506 17.9383 3.07066C17.9611 3.17066 17.9704 3.21197 17.9928 3.31042C17.838 3.2834 17.7036 3.2471 17.5681 3.23977C17.4549 3.23398 17.3403 3.26216 17.2028 3.27799C17.3144 3.37838 17.4318 3.44479 17.4908 3.54517C17.5874 3.71042 17.4186 3.73707 17.321 3.78417C17.3163 3.80425 17.3102 3.8166 17.3109 3.82857C17.3159 3.96487 17.4854 4.11081 17.2808 4.23436C17.1592 4.30772 17.043 4.39035 16.9237 4.46757C16.9032 4.48108 16.8758 4.48456 16.8565 4.49923C16.7808 4.55598 16.7067 4.61544 16.6032 4.69691C16.7132 4.7668 16.8518 4.8471 16.982 4.93977C17.1036 5.02664 17.2159 5.12626 17.338 5.2251C17.3248 5.37336 17.2627 5.40656 17.0874 5.35483C16.9835 5.32432 16.8773 5.28378 16.7723 5.28417C16.6908 5.28417 16.6028 5.33012 16.5295 5.37529C16.4225 5.44131 16.3295 5.5139 16.2376 5.35714C16.2047 5.30154 16.2102 5.14093 16.2403 5.07529C16.2932 4.95946 16.3256 4.83398 16.3769 4.71737C16.4047 4.65405 16.4472 4.59305 16.4955 4.54286C16.6325 4.4 16.5445 4.36332 16.3955 4.33282C16.4345 4.55907 16.2824 4.65058 16.1213 4.65483C15.9642 4.65869 15.8051 4.57954 15.643 4.53552C15.7233 4.76293 15.9329 4.739 16.1102 4.76641C16.0159 5.0888 15.853 5.17645 15.5217 5.09266C15.3314 5.45019 15.0715 5.10965 14.8109 5.1668C14.9275 5.20888 15.0213 5.23629 15.1086 5.27645C15.1484 5.29498 15.202 5.33745 15.204 5.37143C15.2067 5.41853 15.1769 5.47915 15.1414 5.51351C15.0966 5.55676 15.0341 5.58417 14.9754 5.60927C14.5013 5.8139 14.1959 6.17954 14.0067 6.64595C13.9781 6.7166 13.9986 6.86873 14.0468 6.8973C14.1955 6.98494 14.2082 7.11467 14.2279 7.2556C14.241 7.34865 14.2685 7.43938 14.2878 7.52201C14.3233 7.52896 14.3376 7.53668 14.3476 7.53321C14.8017 7.37375 15.075 7.66409 15.358 7.93475C15.3881 7.96371 15.4302 7.98224 15.4696 7.99923C15.7839 8.13282 16.1105 8.21313 16.4526 8.22934C16.4769 8.2305 16.5013 8.24054 16.5082 8.24209C16.5082 8.46757 16.499 8.68224 16.5121 8.89537C16.5186 9.00155 16.5561 9.11004 16.599 9.20927C16.6418 9.3085 16.7125 9.39537 16.765 9.49073C16.8538 9.6529 17.0372 9.70425 17.1928 9.60541C17.3449 9.50888 17.4275 9.26448 17.3727 9.08108C17.36 9.03861 17.3515 8.99421 17.3472 8.95019C17.3291 8.75328 17.3132 8.55637 17.2951 8.33745C17.5874 8.31583 17.8824 8.16023 17.9731 7.81506C18.0588 7.48919 17.999 7.16834 17.6132 7.01892C17.6908 6.86409 17.7576 6.7305 17.8349 6.57606C17.8349 6.43629 17.8403 6.2556 17.8325 6.07529C17.8287 5.98919 17.7993 5.90386 17.7793 5.80772C17.8978 5.63398 18.0681 5.69382 18.2407 5.71853C18.3719 5.73745 18.5086 5.72085 18.643 5.72201C18.6847 5.72201 18.7345 5.7139 18.7669 5.73321C18.8658 5.79228 18.9696 5.85135 19.0499 5.93127C19.214 6.09459 19.3835 6.23436 19.6607 6.21236V6.96255C19.8449 6.92317 19.982 6.96409 20.0704 7.14826C20.0893 7.18726 20.2372 7.16641 20.3256 7.16795C20.3383 7.16795 20.3503 7.13977 20.365 7.1278C20.5132 7.0085 20.7098 6.93127 20.6804 6.67606C20.6735 6.61544 20.7657 6.54324 20.8013 6.49266C21.1078 6.84209 21.4013 7.18185 21.7013 7.51544C21.7928 7.61699 21.8252 7.69653 21.6592 7.76409C21.9881 8.15753 22.4237 8.29035 22.8843 8.39807C22.7275 8.67761 22.282 8.49421 22.1376 8.8946C22.2534 8.87336 22.3271 8.8722 22.3905 8.84595C22.5241 8.78996 22.6472 8.70309 22.7847 8.66332C22.8808 8.63552 23.0017 8.6278 23.0688 8.7583C23.0851 8.78958 23.1592 8.80425 23.2067 8.80348C23.3793 8.80077 23.4032 8.90425 23.4013 9.04324C23.4001 9.12548 23.4213 9.20811 23.4403 9.34711C23.3793 9.44131 23.2283 9.49073 23.0642 9.49537C22.8835 9.50039 22.7546 9.56062 22.6495 9.71969C22.5082 9.93398 22.2982 9.99884 22.0318 9.97915C21.6167 9.94865 21.1978 9.95714 20.7812 9.96487C20.6557 9.96718 20.5368 10.0189 20.4766 10.1629C20.4546 10.2151 20.3658 10.2409 20.3051 10.2749C20.1812 10.3448 20.0156 10.3838 19.9418 10.4884C19.8515 10.6162 19.7735 10.6992 19.6063 10.7019C19.638 10.722 19.6692 10.7417 19.7067 10.7656C19.5796 10.9201 19.4526 11.0741 19.326 11.2282C19.3426 11.244 19.3588 11.2598 19.3754 11.2753C19.5322 11.1398 19.6966 11.012 19.8441 10.8668C20.0881 10.6266 20.3685 10.4506 20.7005 10.373C20.8642 10.3348 21.0383 10.3402 21.1932 10.327C21.3217 10.5703 21.2519 10.7224 21.0518 10.8193C21.1642 11.273 21.5804 11.5907 22.0067 11.5448C22.0735 11.5375 22.1654 11.4792 22.1897 11.4208C22.2627 11.2475 22.3866 11.1807 22.6152 11.1776C22.565 11.2819 22.5256 11.3656 22.4847 11.4486C22.4793 11.4595 22.4642 11.4653 22.4576 11.4761C22.2376 11.8483 21.8302 11.9015 21.4808 12.0556C21.3658 12.1066 21.2712 12.2046 21.1557 12.2537C21.0885 12.2822 20.9395 12.2772 20.9291 12.2494C20.8982 12.1668 20.88 12.0309 20.9271 11.9799C20.9955 11.9058 21.1217 11.8761 21.2291 11.8483C21.3337 11.8212 21.4453 11.8205 21.5951 11.8039C21.3156 11.5977 20.8963 11.6444 20.7105 11.8463C20.5839 11.9842 20.431 12.095 20.2229 12.0656C20.1287 12.0525 20.043 12.049 20.0051 12.1649C19.997 12.1896 19.958 12.2247 19.9383 12.222C19.7318 12.1915 19.6028 12.3224 19.5634 12.478C19.5237 12.6351 19.5723 12.8151 19.5843 12.9849C19.5858 13.0089 19.5993 13.0324 19.6156 13.0803C19.3059 13.1429 19.0051 13.2012 18.7059 13.2676C18.6596 13.278 18.5897 13.3212 18.5843 13.3571C18.5252 13.739 18.1808 13.961 18.0769 14.3444C17.9916 14.2452 17.931 14.1749 17.8634 14.0961C17.7978 14.1297 17.7372 14.161 17.7213 14.1691C17.7213 14.3131 17.7163 14.4197 17.7241 14.5255C17.7271 14.5656 17.7557 14.6062 17.7781 14.6429C17.8611 14.7788 17.9468 14.9135 18.0074 15.0108C17.9094 15.1564 17.8345 15.2722 17.7538 15.3838C17.7333 15.412 17.6939 15.4274 17.6623 15.4467C17.4283 15.5903 17.1939 15.7344 16.9592 15.8768C16.8449 15.9459 16.7283 16.0108 16.6148 16.0811C16.5677 16.1104 16.5132 16.1402 16.4839 16.1842C16.2727 16.5031 16.1511 16.8494 16.1793 17.2382C16.1824 17.2822 16.1878 17.3278 16.202 17.3691C16.3102 17.6896 16.4441 18.0042 16.5186 18.332C16.5484 18.4637 16.4526 18.6259 16.3993 18.7691C16.3955 18.7792 16.2156 18.7544 16.2109 18.729C16.1657 18.4834 15.9244 18.3714 15.8383 18.1602C15.763 17.9753 15.6835 17.7888 15.6403 17.595C15.6094 17.4568 15.3781 17.0614 15.2441 17.039C15.1851 17.029 15.1163 17.1035 15.0476 17.117C14.9739 17.1313 14.8457 17.1479 14.826 17.1143C14.6654 16.8355 14.3939 16.9127 14.1565 16.8892C14.0816 16.8819 14.0036 16.9081 13.9268 16.9104C13.5881 16.9209 13.5445 16.9676 13.5569 17.3185C13.2379 17.4108 13.0874 17.3726 12.9607 17.2085C12.7136 17.1645 12.5148 17.1185 12.3136 17.0988C12.231 17.0907 12.1291 17.1197 12.0596 17.1668C11.8677 17.2965 11.731 17.4992 11.4553 17.5054C11.2986 17.5089 11.1159 17.8907 11.1824 18.0405C11.2881 18.2792 11.2368 18.5124 11.1194 18.7054C10.9445 18.9938 11.009 19.2803 11.0213 19.5799C11.0379 19.9849 11.2654 20.3042 11.4086 20.6579C11.4295 20.71 11.4959 20.7463 11.5461 20.7834C11.6179 20.8367 11.7298 20.8672 11.7619 20.9367C11.8758 21.1819 12.0712 21.1409 12.2661 21.1077C12.4557 21.0757 12.6457 21.0409 12.8306 20.9896C12.8924 20.9726 12.9596 20.91 12.9885 20.851C13.0982 20.6263 13.1851 20.3903 13.2986 20.168C13.3291 20.1085 13.4186 20.0548 13.4881 20.044C13.6715 20.0151 13.8592 19.9973 14.0441 20.0035C14.1341 20.0066 14.2939 20.068 14.2966 20.1108C14.3028 20.2093 14.2356 20.3139 14.1908 20.4127C14.1592 20.483 14.1017 20.5436 14.0812 20.6158C14.0322 20.7865 13.9978 20.9614 13.9584 21.1348C13.9275 21.2703 13.9094 21.41 13.865 21.5409C13.8306 21.6417 13.7642 21.7317 13.7051 21.8394C13.7932 21.9494 13.904 21.9876 14.07 21.9124C14.1654 21.8691 14.2905 21.8865 14.402 21.8865C14.5163 21.8865 14.6337 21.9178 14.7449 21.9015C15.1712 21.8402 15.5615 22.1405 15.4491 22.6668C15.3935 22.9278 15.3851 23.2 15.3712 23.468C15.3673 23.5405 15.4051 23.6278 15.4507 23.688C15.6592 23.9645 15.9206 24.1278 16.2893 24.1066C16.5511 24.0915 16.8159 24.1205 17.0793 24.1336C17.2692 24.1429 17.3901 24.3575 17.2777 24.4969C17.2495 24.532 17.1125 24.5398 17.1001 24.5178C16.9773 24.3027 16.7623 24.3714 16.6055 24.3888C16.4503 24.4062 16.438 24.5884 16.4627 24.7378C16.4642 24.7475 16.453 24.7598 16.441 24.7838C16.3252 24.7324 16.2105 24.6776 16.0928 24.6297C15.9102 24.556 15.7186 24.5004 15.5441 24.4116C15.4152 24.3459 15.3063 24.2405 15.1901 24.151C15.0708 24.0591 14.9704 23.9305 14.7835 24.0004C14.7542 24.0112 14.6441 23.9212 14.6461 23.8811C14.6565 23.649 14.4997 23.5035 14.3889 23.3348C14.3148 23.222 14.2376 23.11 14.1515 23.007C14.0881 22.9309 14.0074 22.8695 13.9314 22.7985C13.8291 22.949 13.5685 22.9487 13.4712 22.7846C13.3275 22.5417 13.1268 22.488 12.8723 22.49C12.7978 22.4907 12.7148 22.4263 12.6495 22.3741C12.4352 22.2027 12.2368 22.0097 12.0136 21.851C11.8499 21.7344 11.6715 21.7012 11.5024 21.8888C11.4561 21.9405 11.3183 21.9386 11.2314 21.9193C11.0824 21.8861 10.9302 21.8386 10.7978 21.7645C10.4001 21.5421 10.0248 21.2753 9.6144 21.0815C9.28621 20.9263 9.02482 20.71 8.76575 20.468C8.57888 20.2934 8.56305 20.171 8.79509 19.9853C8.57386 19.5884 8.36266 19.1838 8.12521 18.795C8.02135 18.6247 7.80088 18.5054 7.74876 18.329C7.69162 18.1351 7.63139 17.9606 7.5171 17.7942C7.34374 17.5413 7.17617 17.2822 7.02946 17.0131C6.97231 16.9085 6.97656 16.7695 6.95687 16.6452C6.94799 16.5892 6.96073 16.5278 6.9449 16.4749C6.89393 16.3062 6.61324 16.1205 6.56613 16.2054C6.50243 16.3209 6.50243 16.49 6.52366 16.6282C6.54837 16.7888 6.62598 16.9413 6.68003 17.0977C6.68428 17.1097 6.68003 17.1309 6.6866 17.1348C6.90745 17.2506 6.83872 17.5212 6.97849 17.6822C7.02212 17.7324 7.04529 17.8062 7.06189 17.8734C7.11594 18.0934 7.09973 18.339 7.31247 18.4981C7.33988 18.5185 7.32907 18.5838 7.3476 18.6224C7.37849 18.6869 7.40629 18.761 7.45725 18.8066C7.59007 18.9255 7.63872 19.2081 7.53447 19.3471C7.52135 19.3645 7.49162 19.3687 7.46575 19.3811C7.40783 19.0853 7.22791 18.8911 6.99625 18.7266C6.93911 18.6861 6.87772 18.5795 6.89239 18.5224C6.95494 18.283 6.80938 18.1529 6.66961 18.0085C6.52984 17.8641 6.39934 17.7112 6.26807 17.5656C6.50011 17.3174 6.51633 17.2965 6.32752 17.0649C6.05417 16.7293 6.09625 16.3255 6.05919 15.9432C6.03563 15.7 5.96961 15.5097 5.76652 15.3722C5.63718 15.2846 5.58698 15.0931 5.37579 15.0965C5.34335 15.0969 5.3005 14.8865 5.27579 14.7707C5.20938 14.4583 5.14297 14.1456 5.09085 13.8305C5.06575 13.6784 5.06884 13.5205 5.06807 13.3653C5.06807 13.29 5.08891 13.2147 5.09895 13.139C5.10127 13.1201 5.09278 13.0996 5.09664 13.0815C5.17888 12.7042 5.18814 12.2869 5.36652 11.9625C5.53293 11.6602 5.65224 11.339 5.8171 11.0386C6.06961 10.578 6.10899 10.107 5.84567 9.62973C5.80513 9.55637 5.80088 9.46332 5.77888 9.3749C6.05108 9.25251 6.05146 9.57297 6.15069 9.5834C6.19432 9.71622 6.22675 9.8112 6.25571 9.90695C6.27347 9.96602 6.29393 10.0259 6.29973 10.0865C6.31285 10.2251 6.31787 10.3649 6.32752 10.5293C6.54142 10.2653 6.56536 9.99382 6.42637 9.72703C6.39548 9.66795 6.39123 9.59537 6.37 9.5305C6.35532 9.48571 6.34297 9.43243 6.31092 9.4027C6.06691 9.17452 5.99548 8.87297 6.10397 8.55483C6.12019 8.50695 6.08274 8.44131 6.07386 8.3834C6.06807 8.34479 6.05648 8.3 6.06922 8.2668C6.15996 8.03552 6.2561 7.80656 6.35764 7.55985C6.31749 7.53205 6.27154 7.5 6.24644 7.48263C6.29162 7.31043 6.32946 7.1668 6.37077 7.00965C6.36613 6.94788 6.36807 6.86602 6.35146 6.78765C6.34027 6.73436 6.29355 6.6888 6.28081 6.63552C6.24683 6.49189 6.19355 6.3444 6.20243 6.20154C6.21131 6.06255 6.13911 5.99189 6.04837 5.99459C5.82135 6.00116 5.86768 5.87143 5.89239 5.74131C5.90204 5.69112 5.91594 5.6417 5.93988 5.54209C5.63756 5.70888 5.36498 5.85907 5.09239 6.00927C5.07579 5.98301 5.05957 5.95676 5.04297 5.9305C5.24799 5.78649 5.45339 5.64247 5.67 5.49035C5.66073 5.47722 5.63949 5.4471 5.61401 5.41043C6.43216 4.64402 7.30397 3.9444 8.23949 3.32548C8.58814 3.09498 8.94799 2.88147 9.30011 2.65637C9.41826 2.5807 9.51363 2.55212 9.60243 2.70039C9.6337 2.75251 9.70899 2.77838 9.7754 2.82394C9.79818 2.86487 9.83177 2.92587 9.87733 3.00811C9.86498 3.03127 9.83949 3.08031 9.78467 3.18417C10.2198 3.08456 10.609 2.99537 10.9982 2.90579C11.0024 2.91506 11.0067 2.92432 11.0105 2.93359C10.8974 2.98224 10.7847 3.0305 10.6715 3.07915C10.6777 3.09344 10.6839 3.10772 10.6901 3.12162C10.9121 3.02394 11.1341 2.92625 11.3561 2.82857C11.3654 2.83552 11.3746 2.84286 11.3839 2.84981C11.3206 2.93514 11.2573 3.02008 11.1939 3.10541C11.2009 3.11699 11.2082 3.12857 11.2152 3.14015C11.2901 3.10541 11.3654 3.07066 11.4623 3.02548C11.443 3.07645 11.4295 3.11274 11.4024 3.18417C11.4735 3.1556 11.5194 3.13012 11.5688 3.11892C11.6912 3.09151 11.8333 2.97761 11.8789 3.22973C11.8924 3.30463 12.0414 3.35637 12.1306 3.41544C12.192 3.45598 12.2573 3.49112 12.3561 3.54981C12.2206 3.61506 12.1337 3.65676 12.0472 3.69846C12.0484 3.71583 12.0491 3.73282 12.0503 3.75019C12.2032 3.77297 12.3573 3.81969 12.509 3.81313C12.8407 3.79884 12.8642 3.81313 12.814 4.14556C12.9569 3.90965 13.143 3.72741 13.4082 3.64479L13.4028 3.64595L13.402 3.64633Z" fill="black" style="fill:black;fill-opacity:1;"/>
<path d="M38.7561 13.395C38.4661 13.1243 38.5055 12.6382 38.1561 12.3988C38.2623 12.7815 38.3627 13.1444 38.4642 13.5097C38.3721 13.5238 38.2651 13.4313 38.1434 13.232C38.3507 13.1224 38.3082 12.9525 38.2102 12.8031C38.0271 12.5247 37.8248 12.2595 37.6283 11.99C37.4742 11.7784 37.3186 11.568 37.1596 11.3602C37.1028 11.2865 37.0341 11.2216 36.9221 11.1676C36.914 11.327 36.9055 11.4861 36.897 11.6552C36.8047 11.6259 36.7132 11.5965 36.6221 11.5676L36.58 11.605C36.6665 11.8 36.753 11.995 36.8422 12.1965C36.5951 12.4487 36.5897 12.7598 36.763 13.0147C36.9596 13.3039 36.8623 13.5236 36.7225 13.7622C36.626 13.9266 36.5132 14.0815 36.3936 14.2622C36.2746 13.995 36.0437 14.0027 35.8229 13.9718C35.77 13.9645 35.7017 13.8861 35.6854 13.8278C35.4966 13.1575 35.3129 12.4865 34.9403 11.8911C35.0009 11.8293 35.0534 11.7757 35.1063 11.7216C35.102 11.6992 35.0978 11.6772 35.0932 11.6548C35.3445 11.707 35.5963 11.756 35.8464 11.8127C35.9785 11.8429 35.9982 11.7683 35.9785 11.6745C35.9511 11.5429 35.9352 11.3954 35.8634 11.2888C35.6283 10.9405 35.3781 10.6012 35.1144 10.2741C35.0461 10.1892 34.8982 10.173 34.8055 10.1012C34.7538 10.061 34.7407 9.97066 34.7102 9.90309C34.7719 9.90039 34.8341 9.89382 34.8955 9.89575C34.9422 9.8973 34.9885 9.90965 35.0812 9.92471C34.9657 9.75676 34.8773 9.62819 34.7731 9.47606C34.8862 9.51815 34.97 9.54904 35.1125 9.60232C35.0472 9.39073 34.987 9.23205 34.9519 9.06834C34.9302 8.96795 34.9491 8.85946 34.9461 8.75483C34.9449 8.71274 34.948 8.64672 34.9244 8.63282C34.753 8.53127 34.7808 8.35212 34.7588 8.20116C34.7488 8.13282 34.8125 8.05367 34.853 7.95483C34.5213 7.54093 34.163 7.09382 33.8047 6.64672C33.8129 6.64015 33.821 6.63321 33.8291 6.62664C33.9916 6.79498 34.1538 6.96293 34.3163 7.13127C34.338 7.12317 34.36 7.11506 34.3816 7.10695C34.3835 7.06371 34.4051 6.99884 34.3847 6.97992C34.0437 6.66332 33.6974 6.35251 33.3264 6.06023C33.3978 6.18726 33.4696 6.3139 33.541 6.44093C33.5295 6.45405 33.5175 6.46718 33.5059 6.48031C33.4329 6.45328 33.3434 6.4444 33.2897 6.39575C33.1283 6.24942 32.9827 6.08533 32.8268 5.93243C32.7715 5.87838 32.7055 5.83552 32.6426 5.78996C32.5924 5.75405 32.5356 5.72625 32.4889 5.68649C32.4507 5.65367 32.4306 5.59498 32.3893 5.57066C32.1353 5.42317 32.0403 5.15212 31.8851 4.92896C31.7082 4.6749 31.5538 4.41544 31.2912 4.22008C30.9013 3.93012 30.5654 3.56757 30.1762 3.27606C30.0032 3.14672 29.7982 3.05521 29.6295 2.90772C29.3908 2.69923 29.1403 2.50425 28.8982 2.30579C29.4492 2.28185 33.1881 4.89266 33.4364 5.54093C32.7769 4.9749 32.1179 4.40849 31.4584 3.84247C31.4445 3.85869 31.4302 3.87529 31.4163 3.89151C31.5009 3.96216 31.5885 4.02934 31.6696 4.10348C32.1295 4.52471 32.5611 4.98263 33.0546 5.35985C33.5121 5.70965 33.8399 6.16757 34.2414 6.55985C34.4271 6.74131 34.5333 6.94788 34.6453 7.16178C34.6924 7.25174 34.699 7.36255 34.7287 7.48263C34.7179 7.48649 34.6831 7.49807 34.6202 7.51969C34.7221 7.60734 34.8109 7.68417 34.9229 7.7807C34.9078 7.69807 34.8978 7.6417 34.8878 7.58494C34.8997 7.57877 34.9121 7.5722 34.9241 7.56602C34.9781 7.61313 35.0322 7.66023 35.0851 7.70618C35.1005 7.69614 35.1198 7.68571 35.119 7.6834C35.0407 7.4834 35.0762 7.25367 34.9013 7.07452C34.6978 6.86602 34.5426 6.6112 34.3511 6.38958C34.2287 6.24788 34.0727 6.13591 33.9418 6.00077C33.8646 5.92124 33.8067 5.82317 33.7592 5.72085C36.0241 7.89035 37.8017 10.3768 38.7565 13.395H38.7561ZM37.0032 10.6834C37.2538 11.2942 37.7337 11.7371 38.1345 12.2382C37.875 11.6351 37.4661 11.1398 37.0032 10.6834Z" fill="black" style="fill:black;fill-opacity:1;"/>
<path d="M12.5484 3.29923C12.4619 3.2888 12.387 3.27992 12.3036 3.26988C12.3206 3.04826 12.4862 3.02625 12.6434 3.01004C12.7445 2.99961 12.8488 3.02239 12.9511 3.01892C13.0117 3.0166 13.0712 2.99228 13.131 2.97761C13.1302 2.95405 13.1291 2.9305 13.1283 2.90695C12.9584 2.89035 12.7885 2.87375 12.6186 2.85714C12.6163 2.8305 12.614 2.80386 12.6117 2.77722C12.7495 2.73282 12.887 2.68803 13.0248 2.64363C13.0241 2.6332 13.0233 2.62239 13.0225 2.61197H12.7646C12.8472 2.38687 13.1206 2.4332 13.1812 2.25019C12.836 2.40309 12.4735 2.56332 12.0766 2.739C12.1252 2.59266 12.1557 2.5 12.1847 2.41236C12.5217 2.21274 12.8669 2.00309 13.2175 1.80348C13.3542 1.72548 13.4947 1.67838 13.6295 1.83629C13.663 1.87568 13.7688 1.8529 13.8704 1.86139C13.8345 1.98031 13.7982 2.1 13.7596 2.22741C13.9129 2.19691 14.0557 2.56409 14.2009 2.1112C14.2144 2.15598 14.2283 2.20116 14.2418 2.24595C14.1851 2.35444 14.1283 2.46255 14.0712 2.57104C14.0789 2.57992 14.0862 2.58842 14.0939 2.5973C14.1399 2.55714 14.1908 2.52162 14.231 2.47645C14.2986 2.40039 14.3511 2.30811 14.4271 2.24286C14.4654 2.21004 14.5414 2.22124 14.6001 2.21236C14.6051 2.27066 14.6333 2.34015 14.6113 2.38494C14.543 2.52432 14.4437 2.64903 14.3808 2.79035C14.3553 2.84749 14.3758 2.94093 14.4067 3.00232C14.4349 3.05946 14.5047 3.09575 14.5974 3.17799C14.5445 3.20463 14.5117 3.22548 14.4762 3.23861C14.3715 3.27722 14.2603 3.27336 14.2063 3.42394C14.1615 3.54904 13.899 3.55637 13.8009 3.45019C13.6858 3.32548 13.5746 3.33089 13.4268 3.38842C13.1372 3.50116 12.8441 3.62587 12.5024 3.53089C12.5171 3.45714 12.5302 3.39073 12.548 3.3L12.5484 3.29923Z" fill="black" style="fill:black;fill-opacity:1;"/>
<path d="M18.3376 0.528958C18.2657 0.497683 18.1789 0.459846 18.06 0.408108C18.114 0.349035 18.1445 0.283398 18.1847 0.276448C18.5183 0.219691 18.8349 0.0440154 19.1881 0.122008C19.2661 0.139382 19.341 0.171429 19.4627 0.211969C19.363 0.258687 19.309 0.28417 19.2275 0.322008H19.3997C19.143 0.528185 18.9905 0.807722 18.6318 0.754054C18.682 0.783398 18.7325 0.813127 18.799 0.852124C18.6515 0.984942 18.5159 1.10695 18.4217 1.19189C18.414 1.28919 18.4264 1.36988 18.4036 1.38147C18.2924 1.43784 18.1851 1.53938 18.0426 1.41776C17.9959 1.37761 17.8963 1.39228 17.821 1.39382C17.6916 1.39691 17.5623 1.41351 17.4329 1.41467C17.4044 1.41467 17.36 1.37954 17.3515 1.35174C17.343 1.32471 17.3623 1.27683 17.3851 1.25444C17.4553 1.1861 17.5287 1.11737 17.6113 1.06525C17.6441 1.04479 17.7082 1.05676 17.7507 1.07297C17.8055 1.09421 17.8534 1.13436 17.9318 1.13436C17.8854 1.07413 17.8387 1.0139 17.7796 0.937452C17.7982 0.913127 17.8314 0.869112 17.8491 0.845946C17.7125 0.879537 17.5503 0.919305 17.3878 0.959073C17.3723 0.927799 17.3569 0.896911 17.3414 0.865637C17.4117 0.812355 17.4824 0.759073 17.5519 0.706178C17.5237 0.703089 17.48 0.698456 17.4113 0.69112C17.5503 0.454054 17.8163 0.455599 18.004 0.322394C18.0194 0.48417 18.0341 0.632819 18.0511 0.809653C18.0773 0.819691 18.143 0.845174 18.2275 0.877992C18.1812 0.764865 18.1457 0.678378 18.1102 0.591892C18.1897 0.569884 18.2692 0.547876 18.3376 0.528958Z" fill="black" style="fill:black;fill-opacity:1;"/>
<path d="M18.3368 20.5375C17.9484 20.5375 17.5854 20.5417 17.2229 20.5332C17.1592 20.5317 17.0735 20.4927 17.0376 20.4429C16.9264 20.2884 16.7696 20.251 16.5997 20.2077C16.502 20.1826 16.4059 20.1004 16.3383 20.0193C16.1769 19.827 15.8565 19.7718 15.6461 19.9185C15.4244 20.0734 15.1337 20.0429 14.9982 19.8359C14.9592 19.7761 14.9445 19.6714 14.9696 19.6077C14.9901 19.556 15.0866 19.5062 15.1503 19.5046C15.3291 19.4996 15.5086 19.5313 15.687 19.527C15.8376 19.5236 15.9874 19.4876 16.1376 19.4703C16.2499 19.4571 16.3391 19.4745 16.4194 19.583C16.4789 19.6633 16.602 19.6946 16.6932 19.7537C16.831 19.8436 16.9573 19.9564 17.1044 20.0259C17.224 20.0826 17.3712 20.1286 17.4978 20.1131C17.8715 20.0676 18.1167 20.2382 18.336 20.5371L18.3368 20.5375Z" fill="black" style="fill:black;fill-opacity:1;"/>
<path d="M34.3098 9.43514C34.2816 9.27182 34.1279 9.11042 34.3847 8.93514C34.2515 8.90348 34.163 8.85328 34.0947 8.87259C33.931 8.91853 33.9225 8.83205 33.9291 8.71853C33.9364 8.58919 33.9121 8.49421 33.7418 8.53977C33.7322 8.4668 33.7252 8.41197 33.7167 8.34711C33.7762 8.34402 33.8318 8.34093 33.8982 8.33707C33.8889 8.30734 33.8881 8.27915 33.8735 8.26293C33.7542 8.12896 33.6542 7.92934 33.5055 7.88147C33.3082 7.81815 33.1901 7.71506 33.0901 7.55676C33.0839 7.54672 33.0557 7.55212 33.0387 7.54672C32.904 7.50309 32.7434 7.5112 32.7283 7.29344C32.7229 7.21467 32.6032 7.1417 32.5306 7.07104C32.4739 7.01583 32.4098 6.96795 32.3129 6.88649C32.4028 6.88185 32.4399 6.87992 32.4932 6.87722C32.4051 6.761 32.3287 6.65985 32.2507 6.55714C32.3627 6.4529 32.4306 6.49421 32.4908 6.60309C32.5596 6.72626 32.604 6.89073 32.8109 6.81467C32.8306 6.80734 32.88 6.84749 32.8982 6.87645C32.9781 7.00579 33.0507 7.13977 33.1279 7.27066C33.1588 7.32317 33.1851 7.38456 33.2302 7.42162C33.4986 7.64247 33.7735 7.85483 34.0418 8.07529C34.1437 8.15907 34.221 8.29768 34.3341 8.33359C34.4117 8.35792 34.4897 8.36834 34.5395 8.43205C34.5889 8.49498 34.6229 8.56989 34.6603 8.6417C34.7005 8.71853 34.7441 8.79459 34.7731 8.87606C34.7986 8.9471 34.8055 9.02471 34.8206 9.09923C34.7658 9.10155 34.7059 9.09112 34.6569 9.10927C34.5885 9.13475 34.4685 9.20232 34.4731 9.2166C34.5341 9.39305 34.3237 9.33475 34.309 9.43591L34.3098 9.43514Z" fill="black" style="fill:black;fill-opacity:1;"/>
<path d="M23.4051 10.9305C23.3217 10.9305 23.2372 10.939 23.1549 10.9282C23.0735 10.9174 22.931 10.8958 22.9264 10.8633C22.9117 10.7591 22.921 10.632 22.9715 10.5425C23.0592 10.3876 23.1978 10.2625 23.2893 10.1093C23.3441 10.0174 23.3468 9.89537 23.3804 9.7888C23.3962 9.73822 23.426 9.65637 23.4561 9.65367C23.5148 9.64788 23.5959 9.67104 23.6337 9.71313C23.6607 9.74286 23.6426 9.82625 23.6256 9.87915C23.5986 9.96332 23.5553 10.0425 23.5186 10.1236C23.5932 10.1514 23.6692 10.1753 23.7414 10.2081C23.8495 10.2575 23.9534 10.3162 24.0607 10.3664C24.258 10.4583 24.5206 10.4934 24.3878 10.8301C24.3611 10.8981 24.4341 11.0004 24.4422 11.0884C24.4549 11.2282 24.3777 11.2768 24.2522 11.2181C24.2233 11.2046 24.1912 11.1903 24.1712 11.1672C23.9638 10.9309 23.7028 10.8707 23.4047 10.9301L23.4051 10.9305Z" fill="black" style="fill:black;fill-opacity:1;"/>
<path d="M21.2893 20.9772C21.3156 21.0382 21.3495 21.1185 21.3993 21.2351C21.3102 21.2432 21.2032 21.2807 21.1121 21.2571C20.7391 21.161 20.3769 21.2876 20.0098 21.2888C19.9468 21.2888 19.8827 21.2807 19.821 21.2896C19.6993 21.307 19.5658 21.3073 19.4607 21.3606C19.2132 21.4865 18.9916 21.4761 18.8588 21.2475C18.7866 21.1236 18.8047 20.9467 18.7804 20.7807C19.2113 20.7166 19.5935 20.7162 19.9403 20.9463C20.0966 21.0502 20.2461 21.0471 20.4071 20.9629C20.4546 20.9382 20.5152 20.9239 20.5688 20.9266C20.8071 20.939 21.0445 20.9591 21.2893 20.9772Z" fill="black" style="fill:black;fill-opacity:1;"/>
<path d="M27.8499 4.65097C27.9499 4.62317 28.009 4.60656 28.0839 4.58571C27.9947 4.49151 27.9283 4.41544 27.7766 4.4556C27.7179 4.47104 27.6279 4.36757 27.5225 4.29923C27.7291 4.18764 27.8688 4.12703 28.0024 4.30772C28.0596 4.38494 28.1295 4.41931 28.221 4.31236C28.2642 4.26178 28.3777 4.27143 28.47 4.25174C28.5291 4.06564 28.5908 4.05367 28.7534 4.18996C28.8727 4.28996 29.0117 4.36602 29.138 4.45792C29.1939 4.49884 29.2407 4.55251 29.3074 4.61467C29.2345 4.64093 29.1789 4.661 29.1075 4.68649C29.1179 4.81351 29.1283 4.93977 29.1422 5.11197C28.9824 5.06371 28.8407 4.99266 28.6951 4.98378C28.5403 4.97452 28.3982 5.02896 28.265 4.8722C28.1785 4.77027 28.0144 4.73398 27.8499 4.65058V4.65097Z" fill="black" style="fill:black;fill-opacity:1;"/>
<path d="M32.7619 8.10618C32.8102 8.06023 32.8453 8.02703 32.8835 7.99035C32.8329 7.90618 32.787 7.8305 32.7437 7.75869C33.0175 7.6278 33.1797 7.78533 33.3013 7.98687C33.4507 8.23475 33.5758 8.4973 33.7186 8.76718C33.6627 8.78224 33.604 8.79846 33.5337 8.81738V8.95328C33.3271 9.03398 33.1422 8.88417 33.1519 8.61853C33.1565 8.49575 33.1098 8.46911 33.0194 8.4112C32.914 8.34324 32.8484 8.21351 32.7623 8.10618H32.7619Z" fill="black" style="fill:black;fill-opacity:1;"/>
<path d="M16.9051 1.39846C16.9881 1.37104 17.0708 1.34402 17.2028 1.30077C17.1638 1.40039 17.1287 1.44556 17.1376 1.47915C17.1507 1.53012 17.1939 1.61313 17.2252 1.61351C17.4074 1.61544 17.5897 1.59614 17.7719 1.58687C17.8464 1.58301 17.9252 1.57143 17.9947 1.59035C18.0522 1.60579 18.0993 1.661 18.1511 1.69846C18.0905 1.76371 18.0368 1.87529 17.9681 1.88533C17.731 1.92008 17.4878 1.93861 17.2491 1.92471C17.1198 1.91737 16.9993 1.85058 16.8549 1.88031C16.7538 1.90116 16.7136 1.77104 16.7731 1.67336C16.8271 1.58417 16.8661 1.48571 16.9117 1.39151L16.9047 1.39846H16.9051Z" fill="black" style="fill:black;fill-opacity:1;"/>
<path d="M14.6194 1.63398H14.2078C14.4553 1.40541 14.88 1.27915 15.0271 1.38147C15.0044 1.42857 14.9804 1.47722 14.9461 1.54749C15.2279 1.58533 15.2715 1.19151 15.5457 1.2583C15.4974 1.3139 15.4484 1.37104 15.38 1.45058C15.4449 1.45676 15.4816 1.46062 15.5252 1.46486C15.514 1.48571 15.509 1.50579 15.4966 1.5166C15.3515 1.639 15.199 1.72394 14.9928 1.70579C14.8854 1.69653 14.7723 1.75328 14.6615 1.77876C14.548 1.80502 14.4345 1.82934 14.3206 1.85444C14.3129 1.82741 14.3051 1.80039 14.2974 1.77375C14.4051 1.73938 14.5125 1.70463 14.6202 1.67027V1.63436L14.6194 1.63398Z" fill="black" style="fill:black;fill-opacity:1;"/>
<path d="M15.8538 2.03398C15.8005 2.12046 15.7472 2.20695 15.6661 2.33861C15.6905 2.58417 15.675 2.60541 15.3708 2.6861C15.3283 2.6973 15.2901 2.72317 15.2488 2.73977C15.2198 2.75135 15.1839 2.77297 15.1611 2.76409C15.1306 2.75251 15.0939 2.71931 15.087 2.68919C15.0592 2.56834 15.0407 2.44517 15.0252 2.32201C15.0244 2.3166 15.1028 2.28378 15.1194 2.29653C15.2862 2.42239 15.3279 2.27645 15.3642 2.17452C15.4013 2.07066 15.4538 2.03745 15.5603 2.03977C15.6368 2.0417 15.7144 2.01004 15.7912 1.99344C15.8121 2.00695 15.8329 2.02046 15.8538 2.03359V2.03398Z" fill="black" style="fill:black;fill-opacity:1;"/>
<path d="M36.1414 26.6247C36.1615 27.0027 36.1835 27.3784 36.0206 27.7317C36.0047 27.7664 35.9596 27.7873 35.9279 27.8147C35.9013 27.7822 35.8553 27.7525 35.8507 27.7174C35.7997 27.317 35.8742 26.9463 36.1414 26.6243V26.6247Z" fill="black" style="fill:black;fill-opacity:1;"/>
<path d="M16.7244 2.11776C16.4225 2.28069 16.1449 2.43012 15.8673 2.57992C15.9866 2.10656 16.3194 1.8305 16.7244 2.11776Z" fill="black" style="fill:black;fill-opacity:1;"/>
<path d="M25.0588 0.871815C24.4615 0.727799 23.8619 0.583398 23.2623 0.438996C23.2696 0.406564 23.2773 0.374131 23.2847 0.341699C23.5847 0.416602 23.887 0.482626 24.1835 0.569498C24.4808 0.656757 24.8202 0.625483 25.0588 0.871815Z" fill="black" style="fill:black;fill-opacity:1;"/>
<path d="M16.141 1.50463C16.1878 1.4139 16.2156 1.35985 16.2453 1.30154C16.3086 1.32124 16.3715 1.34054 16.502 1.38108C16.3001 1.52625 16.1333 1.64595 15.9669 1.76602L15.9156 1.7166C15.9237 1.67413 15.9314 1.63166 15.9345 1.61429C15.8685 1.57413 15.8125 1.53977 15.7569 1.50579C15.8102 1.41892 15.8634 1.33205 15.9167 1.24517C15.9387 1.25869 15.9603 1.27259 15.9824 1.2861C15.9611 1.33822 15.9403 1.38996 15.9067 1.4722C15.9777 1.42085 16.0279 1.38456 16.0951 1.33591C16.1098 1.38919 16.1194 1.4251 16.1414 1.50502L16.141 1.50463Z" fill="black" style="fill:black;fill-opacity:1;"/>
<path d="M17.0538 21.049C17.243 21.0876 17.4341 21.1201 17.6202 21.1703C17.6627 21.1819 17.7248 21.2695 17.714 21.2992C17.6908 21.3633 17.6341 21.4247 17.5746 21.461C17.5526 21.4745 17.4854 21.4143 17.4391 21.3873C17.3665 21.3452 17.2943 21.3027 17.2213 21.2614C17.1534 21.2232 17.0851 21.1857 17.0167 21.1483C17.0291 21.1151 17.041 21.0822 17.0534 21.049H17.0538Z" fill="black" style="fill:black;fill-opacity:1;"/>
<path d="M21.2878 10.0977C21.5939 10.0108 21.7399 10.3127 21.9939 10.2498C21.8831 10.5201 21.8298 10.5355 21.6383 10.3842C21.5341 10.3015 21.4318 10.2158 21.2874 10.0977H21.2878Z" fill="black" style="fill:black;fill-opacity:1;"/>
<path d="M18.3974 3.78958C18.4472 3.84479 18.5395 3.90077 18.5387 3.95521C18.5364 4.11004 18.4055 4.15212 18.2793 4.13629C18.2071 4.12741 18.0816 4.05328 18.0847 4.01737C18.0974 3.86718 18.214 3.81506 18.3974 3.78958Z" fill="black" style="fill:black;fill-opacity:1;"/>
<path d="M18.4982 2.32548C18.3291 2.3444 18.1603 2.36911 17.9912 2.37297C17.9773 2.37297 17.96 2.2332 17.9333 2.10656C18.1576 2.14479 18.3341 2.17452 18.5105 2.20425C18.5063 2.24479 18.5024 2.28494 18.4982 2.32548Z" fill="black" style="fill:black;fill-opacity:1;"/>
<path d="M14.1175 1.35019C14.5156 1.23243 14.8758 1.12548 15.2364 1.01853C15.0337 1.22162 14.3298 1.42625 14.1175 1.35019Z" fill="black" style="fill:black;fill-opacity:1;"/>
<path d="M17.6295 5.82934C17.6279 6.03784 17.5225 6.03359 17.4171 6.039C17.292 6.04517 17.2383 5.94517 17.2739 5.87452C17.3109 5.80154 17.4217 5.74942 17.5102 5.72664C17.5464 5.71738 17.6082 5.81004 17.6291 5.82934H17.6295Z" fill="black" style="fill:black;fill-opacity:1;"/>
<path d="M16.697 1.03089C16.5912 0.967568 16.5325 0.932432 16.5098 0.918919C16.5472 0.867568 16.5881 0.78417 16.6534 0.731274C16.6935 0.698842 16.7712 0.713514 16.8322 0.707336C16.8337 0.764865 16.8557 0.833205 16.8322 0.877606C16.7963 0.945174 16.7291 0.996139 16.697 1.03089Z" fill="black" style="fill:black;fill-opacity:1;"/>
<path d="M16.543 1.55135C16.6333 1.72471 16.5847 1.81236 16.4692 1.83745C16.4152 1.84942 16.3449 1.78687 16.2816 1.75792C16.3638 1.69266 16.4464 1.62741 16.5426 1.55097L16.543 1.55135Z" fill="black" style="fill:black;fill-opacity:1;"/>
<path d="M16.5573 5.7722C16.721 5.69961 16.8441 5.64517 16.9773 5.5861C16.9368 5.79498 16.7955 5.86795 16.5573 5.7722Z" fill="black" style="fill:black;fill-opacity:1;"/>
<path d="M16.9121 1.39112C16.8935 1.39344 16.875 1.39923 16.8565 1.39768C16.7901 1.39228 16.7237 1.38494 16.6573 1.37799C16.6623 1.33861 16.6588 1.26911 16.6735 1.26525C16.741 1.24672 16.8148 1.23745 16.8835 1.24672C16.8974 1.24865 16.8986 1.34517 16.9055 1.39846L16.9121 1.39151V1.39112Z" fill="black" style="fill:black;fill-opacity:1;"/>
<path d="M15.8939 0.979537C15.7742 1.02741 15.6549 1.07568 15.5256 1.12741C15.5426 0.959846 15.5426 0.962934 15.7036 0.961004C15.7642 0.960232 15.8244 0.941313 15.8847 0.930502C15.8878 0.946718 15.8908 0.963321 15.8939 0.979537Z" fill="black" style="fill:black;fill-opacity:1;"/>
<path d="M13.4074 3.64517C13.3032 3.65637 13.199 3.66757 13.0947 3.67876C13.0908 3.66139 13.087 3.64402 13.0831 3.62664C13.2329 3.57722 13.3824 3.5278 13.5322 3.47838C13.541 3.49189 13.5499 3.50579 13.5588 3.51931C13.5071 3.56139 13.4553 3.60386 13.4028 3.64633C13.402 3.64633 13.4074 3.64517 13.4074 3.64517Z" fill="black" style="fill:black;fill-opacity:1;"/>
<path d="M14.7561 2.30695C14.7248 2.03822 14.7642 2.00463 15.0074 2.0888C14.9229 2.16216 14.8526 2.22317 14.7561 2.30695Z" fill="black" style="fill:black;fill-opacity:1;"/>
<path d="M26.2712 26.9224C26.3256 27.0046 26.3719 27.0448 26.3739 27.0869C26.3754 27.1212 26.3244 27.1579 26.2966 27.1938C26.2573 27.1618 26.1947 27.1355 26.1851 27.0961C26.1762 27.0602 26.2248 27.0104 26.2712 26.9228V26.9224Z" fill="black" style="fill:black;fill-opacity:1;"/>
<circle cx="19.9807" cy="20.0198" r="19.7807" stroke="black" style="stroke:black;stroke-opacity:1;" stroke-width="0.4"/>
</g>
<defs>
<clipPath id="clip0_36583_53949">
<rect width="40" height="40" rx="20" fill="white" style="fill:white;fill-opacity:1;"/>
</clipPath>
</defs>
</svg>
