<svg width="60" height="60" viewBox="0 0 60 60" fill="none" xmlns="http://www.w3.org/2000/svg">
<rect width="60" height="60" rx="15" fill="#0057FE" style="fill:#0057FE;fill:color(display-p3 0.0000 0.3412 0.9961);fill-opacity:1;"/>
<g clip-path="url(#clip0_36501_130228)">
<path d="M36.0391 20.349H45.1309V22.5547H36.0391V20.349ZM26.929 29.0762C28.9388 28.1146 29.9915 26.6517 29.9915 24.3913C29.9915 19.9206 26.6647 18.8359 22.8229 18.8359H12.25V41.276H23.1191C27.1934 41.276 31.0169 39.3164 31.0169 34.7591C31.0169 31.9427 29.6862 29.86 26.929 29.0762ZM17.181 22.6641H21.8066C23.5885 22.6641 25.1882 23.1608 25.1882 25.2298C25.1882 27.1348 23.944 27.9004 22.1803 27.9004H17.181V22.6641ZM22.4447 37.4661H17.1764V31.2865H22.5495C24.7188 31.2865 26.0905 32.1934 26.0905 34.4902C26.0905 36.7507 24.4544 37.4661 22.4447 37.4661ZM48.6855 33.3874C48.6855 28.5794 45.8737 24.5736 40.7878 24.5736C35.8431 24.5736 32.4798 28.2969 32.4798 33.1777C32.4798 38.2363 35.6654 41.709 40.7878 41.709C44.666 41.709 47.1771 39.9635 48.3848 36.2402H44.4518C44.0234 37.6302 42.2826 38.3594 40.929 38.3594C38.3132 38.3594 36.946 36.8281 36.946 34.2259H48.6536C48.6673 33.957 48.6855 33.6745 48.6855 33.3874ZM36.946 31.4095C37.0872 29.2721 38.5137 27.9368 40.6465 27.9368C42.8887 27.9368 44.0098 29.2539 44.2057 31.4095H36.946Z" fill="white" style="fill:white;fill-opacity:1;"/>
</g>
<defs>
<clipPath id="clip0_36501_130228">
<rect width="40" height="40" fill="white" style="fill:white;fill-opacity:1;" transform="translate(10 10)"/>
</clipPath>
</defs>
</svg>
