<svg width="24" height="38" viewBox="0 0 24 38" fill="none" xmlns="http://www.w3.org/2000/svg">
<path d="M0 38V0H24V38L12 31.16L0 38Z" fill="#470137" style="fill:#470137;fill:color(display-p3 0.2784 0.0039 0.2157);fill-opacity:1;"/>
<path d="M5.0092 24.7891L7.8032 20.7301L5.2072 16.9571H6.8462L8.6282 19.7291L10.4872 16.9571H12.0272L9.4312 20.7301L12.2142 24.7891H10.5422L8.5842 21.7971L6.5932 24.7891H5.0092ZM18.7222 16.9571V24.7891H17.5452V24.0081C17.1932 24.6241 16.5772 24.9431 15.7302 24.9431C14.1242 24.9431 13.1122 23.7771 13.1122 21.9401C13.1122 20.1141 14.1132 18.9591 15.6862 18.9591C16.4892 18.9591 17.0942 19.2671 17.4902 19.8501V16.9571H18.7222ZM15.9172 19.9711C14.9712 19.9711 14.3772 20.7081 14.3772 21.9181C14.3772 23.1611 14.9822 23.9311 15.9612 23.9311C16.9402 23.9311 17.5232 23.1941 17.5232 21.9401C17.5232 20.6971 16.9292 19.9711 15.9172 19.9711Z" fill="#FF99F9" style="fill:#FF99F9;fill:color(display-p3 1.0000 0.6000 0.9765);fill-opacity:1;"/>
</svg>
