<svg width="60" height="60" viewBox="0 0 60 60" fill="none" xmlns="http://www.w3.org/2000/svg">
<rect width="60" height="60" rx="15" fill="#222222" style="fill:#222222;fill:color(display-p3 0.1343 0.1343 0.1343);fill-opacity:1;"/>
<path d="M16.4282 42.8233L9.19141 17.2109H15.3444L19.8466 35.2197H20.08L24.6822 17.2109H30.7685L35.3707 35.1196H35.6209L40.0563 17.2109H46.226L38.9725 42.8233H32.6861L27.8838 25.515H27.5336L22.7313 42.8233H16.4282Z" fill="#FF5B4D" style="fill:#FF5B4D;fill:color(display-p3 1.0000 0.3583 0.3000);fill-opacity:1;"/>
<path d="M48.8982 43.1902C47.8866 43.1902 47.0195 42.8344 46.2969 42.123C45.5744 41.4115 45.2186 40.5445 45.2298 39.5217C45.2186 38.5213 45.5744 37.6653 46.2969 36.9538C47.0195 36.2424 47.8866 35.8866 48.8982 35.8866C49.8764 35.8866 50.7269 36.2424 51.4494 36.9538C52.1831 37.6653 52.5555 38.5213 52.5666 39.5217C52.5555 40.1998 52.3777 40.8168 52.033 41.3726C51.6996 41.9285 51.2549 42.3731 50.6991 42.7066C50.1544 43.029 49.5541 43.1902 48.8982 43.1902Z" fill="#FF5B4D" style="fill:#FF5B4D;fill:color(display-p3 1.0000 0.3583 0.3000);fill-opacity:1;"/>
</svg>
