<svg width="28" height="28" viewBox="0 0 28 28" fill="none" xmlns="http://www.w3.org/2000/svg">
<rect width="28" height="28" rx="7" fill="#0057FE" style="fill:#0057FE;fill:color(display-p3 0.0000 0.3412 0.9961);fill-opacity:1;"/>
<path d="M16.6211 9.32266H20.9072V10.3625H16.6211V9.32266ZM12.3264 13.4369C13.2738 12.9836 13.7701 12.2939 13.7701 11.2283C13.7701 9.1207 12.2018 8.60938 10.3906 8.60938H5.40625V19.1883H10.5303C12.451 19.1883 14.2535 18.2645 14.2535 16.116C14.2535 14.7883 13.6262 13.8064 12.3264 13.4369ZM7.73086 10.4141H9.91152C10.7516 10.4141 11.5057 10.6482 11.5057 11.6236C11.5057 12.5217 10.9191 12.8826 10.0877 12.8826H7.73086V10.4141ZM10.2123 17.3922H7.72871V14.4789H10.2617C11.2844 14.4789 11.9311 14.9064 11.9311 15.9893C11.9311 17.0549 11.1598 17.3922 10.2123 17.3922ZM22.583 15.4693C22.583 13.2027 21.2574 11.3143 18.8598 11.3143C16.5287 11.3143 14.9432 13.0695 14.9432 15.3705C14.9432 17.7553 16.4449 19.3924 18.8598 19.3924C20.6881 19.3924 21.8719 18.5695 22.4412 16.8143H20.5871C20.3852 17.4695 19.5645 17.8133 18.9264 17.8133C17.6932 17.8133 17.0486 17.0914 17.0486 15.8646H22.568C22.5744 15.7379 22.583 15.6047 22.583 15.4693ZM17.0486 14.5369C17.1152 13.5293 17.7877 12.8998 18.7932 12.8998C19.8502 12.8998 20.3787 13.5207 20.4711 14.5369H17.0486Z" fill="white" style="fill:white;fill-opacity:1;"/>
</svg>
