<svg width="28" height="28" viewBox="0 0 28 28" fill="none" xmlns="http://www.w3.org/2000/svg">
<rect width="28" height="28" rx="7" fill="#222222" style="fill:#222222;fill:color(display-p3 0.1343 0.1343 0.1343);fill-opacity:1;"/>
<path d="M7.67016 19.9915L4.29297 8.03906H7.16436L9.26538 16.4431H9.37432L11.522 8.03906H14.3623L16.51 16.3964H16.6267L18.6966 8.03906H21.5758L18.1908 19.9915H15.2572L13.0161 11.9143H12.8527L10.6116 19.9915H7.67016Z" fill="#FF5B4D" style="fill:#FF5B4D;fill:color(display-p3 1.0000 0.3583 0.3000);fill-opacity:1;"/>
<path d="M22.8228 20.1627C22.3507 20.1627 21.9461 19.9967 21.6089 19.6647C21.2717 19.3327 21.1057 18.928 21.1109 18.4508C21.1057 17.9839 21.2717 17.5844 21.6089 17.2524C21.9461 16.9204 22.3507 16.7544 22.8228 16.7544C23.2793 16.7544 23.6762 16.9204 24.0134 17.2524C24.3558 17.5844 24.5296 17.9839 24.5347 18.4508C24.5296 18.7672 24.4466 19.0551 24.2857 19.3145C24.1301 19.5739 23.9226 19.7814 23.6632 19.937C23.409 20.0875 23.1289 20.1627 22.8228 20.1627Z" fill="#FF5B4D" style="fill:#FF5B4D;fill:color(display-p3 1.0000 0.3583 0.3000);fill-opacity:1;"/>
</svg>
