<svg width="24" height="24" viewBox="0 0 24 24" fill="none" xmlns="http://www.w3.org/2000/svg">
<path d="M6.30887 16.4953C5.49526 16.4953 4.88002 16.2893 4.46317 15.8775C4.04632 15.4657 3.83789 14.8555 3.83789 14.0469V6.37026C3.83789 5.56166 4.04632 4.95145 4.46317 4.53962C4.88002 4.12779 5.49526 3.92188 6.30887 3.92188H13.9403C14.7539 3.92188 15.3691 4.1303 15.786 4.54715C16.2028 4.95898 16.4113 5.56669 16.4113 6.37026V8.14062H14.9272V6.49833C14.9272 6.1317 14.8343 5.85798 14.6484 5.67718C14.4626 5.49135 14.1964 5.39844 13.8499 5.39844H6.39927C6.04771 5.39844 5.77902 5.49135 5.59319 5.67718C5.41239 5.85798 5.32199 6.1317 5.32199 6.49833V13.9188C5.32199 14.2854 5.41239 14.5617 5.59319 14.7475C5.77902 14.9283 6.04771 15.0187 6.39927 15.0187H8.32031V16.4953H6.30887ZM10.0605 20.0812C9.24693 20.0812 8.6317 19.8753 8.21484 19.4634C7.79799 19.0516 7.58956 18.4414 7.58956 17.6328V9.94866C7.58956 9.14509 7.79799 8.53739 8.21484 8.12556C8.6317 7.70871 9.24693 7.50028 10.0605 7.50028H17.692C18.5056 7.50028 19.1208 7.70871 19.5377 8.12556C19.9545 8.54241 20.1629 9.15011 20.1629 9.94866V17.6328C20.1629 18.4364 19.9545 19.0441 19.5377 19.4559C19.1208 19.8728 18.5056 20.0812 17.692 20.0812H10.0605ZM10.1509 18.6046H17.6016C17.9481 18.6046 18.2143 18.5117 18.4001 18.3259C18.5859 18.1451 18.6789 17.8714 18.6789 17.5047V10.0843C18.6789 9.71763 18.5859 9.44392 18.4001 9.26311C18.2143 9.07729 17.9481 8.98438 17.6016 8.98438H10.1509C9.79939 8.98438 9.53069 9.07729 9.34487 9.26311C9.15904 9.44392 9.06613 9.71763 9.06613 10.0843V17.5047C9.06613 17.8714 9.15904 18.1451 9.34487 18.3259C9.53069 18.5117 9.79939 18.6046 10.1509 18.6046Z" fill="black" style="fill:black;fill-opacity:1;"/>
</svg>
