<svg width="24" height="24" viewBox="0 0 24 24" fill="none" xmlns="http://www.w3.org/2000/svg">
<path d="M12.7686 4.01842C12.7686 3.60407 12.4145 3.25 12.0001 3.25C11.5858 3.25 11.2393 3.60407 11.2393 4.01842V5.54771C11.2393 5.96205 11.5858 6.30859 12.0001 6.30859C12.4145 6.30859 12.7686 5.96205 12.7686 5.54771V4.01842ZM15.7819 6.82087C15.4881 7.11468 15.4881 7.60435 15.7895 7.89816C16.0758 8.19196 16.573 8.19196 16.8668 7.89063L17.9516 6.8058C18.2454 6.51953 18.2454 6.01479 17.9516 5.72098C17.6578 5.43471 17.1681 5.43471 16.8743 5.72852L15.7819 6.82087ZM7.13351 7.89063C7.41978 8.19196 7.91699 8.19196 8.2108 7.89816C8.5046 7.61189 8.5046 7.10714 8.21833 6.82087L7.13351 5.72852C6.84724 5.44224 6.35003 5.43471 6.05622 5.72098C5.76242 6.01479 5.76242 6.51953 6.04869 6.79827L7.13351 7.89063ZM12.0001 7.70229C9.8305 7.70229 8.02999 9.49526 8.02999 11.6724C8.02999 13.8496 9.8305 15.6426 12.0001 15.6426C14.1698 15.6426 15.9628 13.8496 15.9628 11.6724C15.9628 9.49526 14.1698 7.70229 12.0001 7.70229ZM19.6466 12.4408C20.061 12.4408 20.4075 12.0868 20.4075 11.6724C20.4075 11.2581 20.061 10.9116 19.6466 10.9116H18.1173C17.703 10.9116 17.3564 11.2581 17.3564 11.6724C17.3564 12.0868 17.703 12.4408 18.1173 12.4408H19.6466ZM4.36119 10.9116C3.93931 10.9116 3.59277 11.2581 3.59277 11.6724C3.59277 12.0868 3.93931 12.4408 4.36119 12.4408H5.88295C6.29729 12.4408 6.65137 12.0868 6.65137 11.6724C6.65137 11.2581 6.29729 10.9116 5.88295 10.9116H4.36119ZM16.8592 15.4542C16.5654 15.1604 16.0758 15.168 15.7819 15.4618C15.4881 15.748 15.4881 16.2377 15.7895 16.5391L16.8818 17.6239C17.1681 17.9177 17.6653 17.9102 17.9591 17.6164C18.2454 17.3225 18.2454 16.8329 17.9516 16.5391L16.8592 15.4542ZM6.04869 16.5315C5.75488 16.8253 5.74735 17.3225 6.03362 17.6088C6.32743 17.9026 6.83217 17.9102 7.11844 17.6239L8.2108 16.5391C8.5046 16.2453 8.5046 15.748 8.21833 15.4618C7.92453 15.168 7.42732 15.168 7.13351 15.4542L6.04869 16.5315ZM12.7686 17.7972C12.7686 17.3828 12.4145 17.0363 12.0001 17.0363C11.5858 17.0363 11.2393 17.3828 11.2393 17.7972V19.3265C11.2393 19.7408 11.5858 20.0949 12.0001 20.0949C12.4145 20.0949 12.7686 19.7408 12.7686 19.3265V17.7972Z" fill="black" style="fill:black;fill-opacity:1;"/>
</svg>
