<svg width="28" height="28" viewBox="0 0 28 28" fill="none" xmlns="http://www.w3.org/2000/svg">
<path d="M13.9979 23.0858C18.9813 23.0858 23.0946 18.9725 23.0946 13.9979C23.0946 9.02325 18.9725 4.90997 13.9891 4.90997C9.01453 4.90997 4.91003 9.02325 4.91003 13.9979C4.91003 18.9725 9.02332 23.0858 13.9979 23.0858ZM11.0009 17.8299C10.535 17.8299 10.1659 17.4608 10.1659 16.9861C10.1659 16.7752 10.2538 16.5643 10.4208 16.4061L12.8114 14.0067L10.4208 11.616C10.2538 11.4578 10.1659 11.2469 10.1659 11.0359C10.1659 10.5613 10.535 10.201 11.0009 10.201C11.2469 10.201 11.4403 10.2801 11.5985 10.4383L13.9979 12.8289L16.4061 10.4295C16.5819 10.2625 16.7665 10.1834 17.0038 10.1834C17.4696 10.1834 17.8387 10.5526 17.8387 11.0184C17.8387 11.2381 17.7509 11.4315 17.5839 11.6072L15.1932 14.0067L17.5839 16.3973C17.7421 16.5643 17.83 16.7664 17.83 16.9861C17.83 17.4608 17.4608 17.8299 16.9862 17.8299C16.7489 17.8299 16.5468 17.742 16.3798 17.5838L13.9979 15.202L11.6161 17.5838C11.4579 17.7508 11.2469 17.8299 11.0009 17.8299Z" fill="black" style="fill:black;fill-opacity:1;"/>
</svg>
